<svg width="25" height="24" viewBox="0 0 25 24" fill="none" xmlns="http://www.w3.org/2000/svg">
<path d="M11.4824 4H4.48242C3.95199 4 3.44328 4.21071 3.06821 4.58579C2.69314 4.96086 2.48242 5.46957 2.48242 6V20C2.48242 20.5304 2.69314 21.0391 3.06821 21.4142C3.44328 21.7893 3.95199 22 4.48242 22H18.4824C19.0129 22 19.5216 21.7893 19.8966 21.4142C20.2717 21.0391 20.4824 20.5304 20.4824 20V13" stroke="#1D1C1C" stroke-linecap="round" stroke-linejoin="round"/>
<path d="M18.9824 2.50023C19.3802 2.1024 19.9198 1.87891 20.4824 1.87891C21.045 1.87891 21.5846 2.1024 21.9824 2.50023C22.3802 2.89805 22.6037 3.43762 22.6037 4.00023C22.6037 4.56284 22.3802 5.1024 21.9824 5.50023L12.4824 15.0002L8.48242 16.0002L9.48242 12.0002L18.9824 2.50023Z" stroke="#1D1C1C" stroke-linecap="round" stroke-linejoin="round"/>
</svg>
