<svg width="58" height="58" viewBox="0 0 58 58" fill="none" xmlns="http://www.w3.org/2000/svg">
<path fill-rule="evenodd" clip-rule="evenodd" d="M29 0C12.9841 0 0 12.9841 0 29C0 45.0159 12.9841 58 29 58C45.0159 58 58 45.0159 58 29C58 12.9841 45.0159 0 29 0ZM41.5702 24.0964C41.8016 23.8318 41.9779 23.5236 42.0885 23.1899C42.1991 22.8562 42.2418 22.5038 42.2142 22.1533C42.1866 21.8029 42.0891 21.4615 41.9276 21.1492C41.7661 20.837 41.5438 20.5602 41.2737 20.3352C41.0037 20.1101 40.6913 19.9414 40.3551 19.8388C40.0188 19.7362 39.6655 19.702 39.3158 19.738C38.9661 19.774 38.6271 19.8796 38.3189 20.0486C38.0106 20.2175 37.7392 20.4464 37.5207 20.7218L26.1844 34.3228L20.3185 28.4543C19.8212 27.974 19.1553 27.7083 18.464 27.7143C17.7728 27.7203 17.1116 27.9976 16.6228 28.4864C16.1339 28.9752 15.8567 29.6364 15.8507 30.3277C15.8447 31.0189 16.1104 31.6849 16.5906 32.1821L24.4997 40.0912C24.7588 40.3501 25.0689 40.5521 25.4104 40.6845C25.7518 40.8169 26.1171 40.8767 26.483 40.8601C26.8488 40.8435 27.2072 40.7508 27.5353 40.588C27.8633 40.4252 28.1539 40.1958 28.3884 39.9145L41.5702 24.0964Z" fill="#8FD476"/>
</svg>
