<svg width="104" height="93" viewBox="0 0 104 93" fill="none" xmlns="http://www.w3.org/2000/svg">
<path d="M39.1997 37.0157C43.1458 37.0157 46.3448 33.8167 46.3448 29.8706C46.3448 25.9245 43.1458 22.7256 39.1997 22.7256C35.2536 22.7256 32.0547 25.9245 32.0547 29.8706C32.0547 33.8167 35.2536 37.0157 39.1997 37.0157Z" fill="white"/>
<path d="M97.8473 56.1679C94.4733 52.9924 90.2061 50.9084 85.542 50.313V13.9924C85.542 10.1221 83.9542 6.64885 81.4733 4.0687C78.8931 1.48855 75.4198 0 71.5496 0H13.9924C10.1221 0 6.64885 1.58779 4.0687 4.0687C1.48855 6.64885 0 10.1221 0 13.9924V59.7404V64.0076V73.2366C0 77.1069 1.58779 80.5801 4.0687 83.1603C6.64885 85.7405 10.1221 87.229 13.9924 87.229H69.6641C73.3359 90.2061 77.9008 92.0916 82.9618 92.0916C88.8168 92.0916 94.0763 89.7099 97.8473 85.9389C101.618 82.1679 104 76.9084 104 71.0534C104 65.1985 101.618 59.9389 97.8473 56.1679ZM5.25954 13.9924C5.25954 11.6107 6.25191 9.42748 7.83969 7.93893C9.42748 6.35114 11.6107 5.35878 13.9924 5.35878H71.5496C73.9313 5.35878 76.1145 6.35114 77.7023 7.93893C79.2901 9.52672 80.2824 11.7099 80.2824 14.0916V45.0534L65.5954 30.3664C64.6031 29.374 62.916 29.2748 61.8244 30.3664L39.6947 52.5954L24.7099 37.5114C23.7176 36.5191 22.0305 36.4198 20.9389 37.5114L5.25954 53.3893V13.9924ZM13.8931 82.1679V81.9695C11.5114 81.9695 9.32824 80.9771 7.74046 79.3893C6.25191 77.8015 5.25954 75.6183 5.25954 73.2366V64.0076V60.9313L22.8244 43.2672L37.8092 58.2519C38.8015 59.2443 40.4885 59.2443 41.5802 58.2519L63.7099 36.0229L78.1985 50.6107C77.9008 50.7099 77.6031 50.8092 77.3053 50.9084C76.9084 51.0076 76.5114 51.1069 76.0153 51.3053C75.6183 51.4046 75.2214 51.603 74.8244 51.7023C74.5267 51.8015 74.3282 51.9008 74.0305 52.0992C73.6336 52.2977 73.3359 52.3969 73.0382 52.5954C72.542 52.8931 72.0458 53.1908 71.5496 53.4885C71.2519 53.687 71.0534 53.7863 70.7557 53.9847C70.5573 54.084 70.458 54.1832 70.2595 54.2824C69.3664 54.8779 68.5725 55.5725 67.8779 56.3664C64.1069 60.1374 61.7252 65.3969 61.7252 71.2519C61.7252 72.7405 61.9237 74.1298 62.2214 75.6183C62.3206 76.0153 62.4198 76.313 62.5191 76.7099C62.8168 77.7023 63.1145 78.6946 63.5114 79.687V79.7863C63.9084 80.5801 64.3053 81.4733 64.8015 82.1679H13.8931ZM93.9771 82.1679C91.0992 85.0458 87.229 86.7328 82.8626 86.7328C78.6947 86.7328 74.8244 85.0458 72.0458 82.3664C71.6488 81.9695 71.2519 81.4733 70.855 81.0763C70.5573 80.7786 70.2595 80.3817 69.9618 80.084C69.5649 79.5878 69.2672 78.9924 68.9695 78.3969C68.771 78 68.5725 77.7023 68.374 77.3053C68.1756 76.8092 67.9771 76.2137 67.8779 75.6183C67.7786 75.2214 67.5801 74.7252 67.4809 74.3282C67.2824 73.3359 67.1832 72.2443 67.1832 71.1527C67.1832 66.7862 68.9695 62.916 71.7481 60.0382C74.5267 57.1603 78.4962 55.4733 82.8626 55.4733C87.229 55.4733 91.0992 57.2595 93.9771 60.0382C96.855 62.916 98.542 66.7862 98.542 71.1527C98.542 75.4198 96.7557 79.2901 93.9771 82.1679Z" fill="white"/>
<path d="M84.75 60.4355C84.5515 60.237 84.2538 60.0386 83.8568 59.8401C83.5591 59.7408 83.2614 59.6416 82.9637 59.6416C82.8645 59.6416 82.8645 59.6416 82.8645 59.6416C82.7652 59.6416 82.7652 59.6416 82.7652 59.6416C82.4675 59.6416 82.1698 59.7408 81.8721 59.8401C81.5744 59.9393 81.2767 60.1378 80.979 60.4355L74.8263 66.5882C73.8339 67.5805 73.8339 69.2676 74.8263 70.3592C75.8187 71.3515 77.5057 71.3515 78.5973 70.3592L80.1851 68.7714V79.6874C80.1851 81.176 81.3759 82.3668 82.8645 82.3668C84.353 82.3668 85.5439 81.176 85.5439 79.6874V68.7714L87.1317 70.3592C88.124 71.3515 89.811 71.3515 90.9026 70.3592C91.895 69.3668 91.895 67.6798 90.9026 66.5882L84.75 60.4355Z" fill="white"/>
</svg>
