<?xml version="1.0" standalone="no"?>
<!DOCTYPE svg PUBLIC "-//W3C//DTD SVG 20010904//EN"
 "http://www.w3.org/TR/2001/REC-SVG-20010904/DTD/svg10.dtd">
<svg version="1.0" xmlns="http://www.w3.org/2000/svg"
 width="2168.000000pt" height="2168.000000pt" viewBox="0 0 2168.000000 2168.000000"
 preserveAspectRatio="xMidYMid meet">
<metadata>
Created by potrace 1.14, written by Peter Selinger 2001-2017
</metadata>
<g transform="translate(0.000000,2168.000000) scale(0.100000,-0.100000)"
fill="#000000" stroke="none">
<path d="M6 14772 c20 -275 29 -431 41 -682 9 -197 8 -1056 -1 -1260 -11 -265
-15 -322 -20 -380 -24 -241 -25 -286 -6 -282 28 7 720 3 731 -3 7 -5 8 21 5
82 -17 261 -27 1166 -13 1180 5 4 1583 17 1742 14 6 0 326 -2 713 -4 386 -2
705 -7 709 -11 14 -13 4 -985 -12 -1188 -4 -51 -2 -68 7 -69 7 0 63 0 123 1
138 3 355 3 505 0 l115 -2 -2 48 c-1 49 -8 138 -18 231 -19 187 -28 540 -27
1013 0 250 1 461 1 468 1 6 1 18 0 25 -1 11 6 172 16 362 5 95 12 203 20 320
3 39 8 101 10 138 l5 68 -62 -6 c-53 -5 -321 -18 -353 -16 -100 4 -234 11
-283 16 l-63 5 6 -287 c13 -711 15 -933 8 -934 -58 -10 -2460 -15 -2958 -7
l-200 4 1 284 c2 410 12 891 18 897 3 3 1 14 -4 23 -8 14 -19 17 -57 14 -27
-2 -102 -6 -168 -9 -66 -2 -122 -5 -125 -5 -19 -5 -245 5 -359 15 l-50 4 5
-67z"/>
<path d="M5998 14829 c109 -88 178 -145 182 -149 3 -3 30 -25 60 -50 30 -25
57 -47 60 -50 5 -5 91 -76 133 -110 11 -8 24 -19 31 -25 20 -18 130 -111 154
-131 13 -10 33 -27 45 -37 12 -10 44 -37 71 -60 28 -23 60 -51 72 -62 13 -11
39 -33 60 -50 20 -16 71 -59 113 -94 125 -105 160 -134 306 -256 77 -64 151
-126 165 -138 14 -13 66 -56 115 -97 50 -41 92 -77 95 -80 3 -3 30 -25 60 -50
161 -132 159 -129 155 -197 -2 -32 -6 -105 -9 -163 -6 -110 -13 -217 -22 -360
-3 -47 -7 -119 -9 -160 -2 -41 -6 -118 -10 -170 -4 -52 -8 -113 -9 -134 l-1
-40 120 3 c137 4 306 4 480 2 180 -3 164 -6 159 33 -2 19 -6 72 -8 118 -3 45
-6 83 -6 83 -1 0 -3 29 -5 65 -3 62 -10 179 -20 320 -3 36 -7 116 -10 179 -3
62 -7 117 -10 121 -3 5 -1 11 5 15 6 4 7 11 3 18 -3 6 -7 47 -9 91 l-1 81 76
75 c105 102 302 277 459 406 38 31 56 46 117 99 32 28 68 56 79 64 12 8 23 18
26 21 3 3 61 51 130 106 68 54 133 106 143 114 11 8 24 20 31 26 6 5 36 29 66
52 113 85 215 165 220 171 3 4 21 18 40 31 19 14 42 30 50 37 8 7 42 33 75 58
85 64 96 73 130 101 17 14 45 34 63 45 17 11 32 25 32 30 0 5 6 9 13 9 6 0 26
13 42 29 17 15 41 33 53 40 12 6 22 15 22 19 0 4 -134 7 -298 6 l-297 0 -70
-74 c-169 -177 -452 -454 -604 -590 -40 -36 -85 -76 -100 -90 -15 -14 -53 -47
-85 -75 -32 -27 -73 -63 -91 -80 -18 -16 -54 -49 -81 -72 -27 -22 -63 -54 -81
-70 -17 -15 -45 -39 -63 -53 -17 -14 -38 -32 -47 -40 -9 -8 -41 -35 -72 -60
-31 -25 -63 -51 -71 -58 -85 -73 -104 -82 -129 -55 -10 10 -46 43 -81 73 -35
30 -68 59 -74 65 -16 14 -90 80 -170 150 -38 33 -80 71 -95 85 -14 14 -44 40
-66 59 -22 19 -80 70 -129 115 -49 45 -98 89 -110 99 -33 29 -176 159 -216
197 -21 19 -88 82 -150 140 -176 164 -190 177 -273 258 l-78 77 -429 0 c-236
0 -426 -3 -422 -6z"/>
<path d="M11693 14828 c-2 -5 -1 -13 2 -18 3 -6 8 -36 11 -68 2 -31 6 -75 9
-97 11 -94 15 -133 20 -189 2 -32 7 -86 10 -120 3 -34 8 -97 11 -141 3 -44 7
-102 9 -130 21 -313 21 -1207 0 -1450 -14 -154 -19 -199 -31 -270 -4 -22 -8
-51 -10 -65 -1 -14 -5 -45 -9 -70 l-7 -45 1088 1 c1084 2 1373 7 1536 28 24 3
70 8 103 11 33 4 71 8 85 11 14 2 50 7 80 10 81 8 377 62 435 79 28 9 51 15
53 15 1 0 3 0 5 1 1 0 9 2 17 4 146 30 463 146 615 226 226 118 446 295 559
449 28 38 116 211 121 238 2 9 4 17 5 17 1 0 3 7 5 15 1 8 8 34 14 58 7 24 14
60 17 80 6 54 6 263 -1 292 -3 14 -7 39 -10 55 -20 137 -106 328 -199 444
-162 200 -332 308 -693 440 -46 17 -83 28 -83 25 0 -2 -9 0 -21 6 -11 6 -28
13 -37 15 -9 2 -51 13 -92 23 -41 11 -93 23 -115 27 -22 5 -42 9 -45 10 -3 1
-30 5 -60 9 -30 5 -64 10 -75 12 -47 10 -73 13 -125 18 -30 3 -71 8 -90 11
-19 3 -55 8 -80 10 -25 2 -72 7 -105 10 -33 4 -87 9 -120 12 -92 9 -2796 9
-2802 1z m2312 -161 c91 -6 233 -17 285 -23 19 -2 62 -6 95 -9 33 -3 71 -7 85
-10 14 -3 48 -7 75 -11 28 -3 93 -14 145 -25 116 -25 153 -36 305 -89 86 -31
254 -106 265 -119 3 -3 32 -24 65 -46 76 -51 200 -175 249 -249 121 -182 169
-410 142 -671 -32 -320 -217 -584 -545 -782 -45 -26 -179 -93 -189 -93 -4 0
-19 -6 -33 -14 -49 -25 -298 -104 -389 -123 -14 -3 -29 -6 -35 -7 -82 -19
-144 -30 -225 -40 -14 -2 -47 -6 -75 -10 -54 -7 -128 -14 -215 -21 -30 -2 -55
-4 -55 -5 0 -15 -917 -20 -1180 -7 -224 12 -311 19 -319 28 -19 20 -29 295
-29 814 0 416 14 1357 22 1466 1 9 11 16 29 17 15 1 63 3 107 6 152 10 282 16
465 22 102 3 186 7 187 8 4 4 694 -3 768 -7z"/>
<path d="M18037 14782 c1 -31 5 -79 8 -107 9 -82 27 -436 29 -577 0 -54 3 -98
6 -98 15 0 11 -1210 -4 -1350 -2 -19 -7 -73 -10 -120 -4 -47 -9 -105 -11 -130
-2 -25 -7 -77 -10 -116 -3 -39 -7 -81 -10 -92 -3 -15 1 -22 13 -23 9 0 823 -1
1807 -2 l1790 -2 0 111 0 112 -40 -4 c-273 -22 -342 -25 -925 -39 -358 -8
-1898 -10 -1906 -2 -15 15 -25 254 -28 697 -2 201 1 370 5 375 5 7 123 9 331
7 178 -1 337 -2 353 -2 131 4 1710 -16 1901 -24 l90 -3 0 118 0 118 -96 -4
c-200 -9 -775 -27 -805 -25 -11 1 -24 1 -30 0 -32 -4 -1585 -4 -1657 0 l-88 5
-1 35 c-1 121 15 959 20 1005 1 14 1791 9 1791 -5 0 -3 64 -5 143 -6 78 -1
214 -4 302 -8 162 -6 459 -17 549 -19 l49 -1 1 114 0 115 -174 -2 c-96 -1
-359 -4 -585 -8 -355 -6 -467 -6 -494 -3 -3 0 -10 0 -16 -1 -28 -5 -266 -1
-274 4 -5 3 -12 2 -14 -3 -3 -4 -38 -5 -77 -2 -39 3 -73 3 -75 0 -2 -4 -28 -3
-59 0 -30 3 -62 3 -72 0 -10 -4 -34 -4 -54 0 -20 4 -45 3 -56 0 -10 -4 -27 -3
-37 2 -12 6 -23 6 -31 -1 -7 -6 -15 -9 -18 -6 -3 3 -259 8 -569 10 -310 2
-654 7 -764 9 l-200 5 2 -57z"/>
<path d="M10826 10211 c-2 -3 -4 -68 -4 -143 -1 -132 0 -138 20 -138 11 0 22
8 25 19 9 37 48 42 333 42 151 0 290 0 308 0 l32 -1 0 -525 c0 -512 -1 -526
-20 -545 -11 -11 -29 -20 -40 -20 -11 0 -20 -7 -20 -15 0 -16 -3 -16 245 -16
201 0 195 0 195 16 0 9 -9 15 -23 15 -13 0 -31 8 -40 18 -15 17 -17 69 -17
545 l0 527 310 0 c321 0 360 -4 360 -42 0 -12 7 -18 24 -18 l24 0 -2 142 c-1
121 -3 143 -17 146 -9 1 -20 -8 -27 -22 -7 -15 -24 -28 -44 -34 -49 -14 -1499
-14 -1538 0 -17 6 -35 20 -40 33 -7 20 -36 30 -44 16z"/>
<path d="M20183 10181 l-21 -26 -464 -2 c-254 -1 -592 -2 -750 -2 -262 -1
-288 -3 -288 -18 0 -9 3 -14 6 -10 12 11 63 -15 70 -36 5 -17 10 -1018 5
-1134 -1 -29 -27 -53 -57 -53 -15 0 -24 -6 -24 -15 0 -11 12 -15 43 -16 23 0
355 -1 737 -3 382 -1 704 -5 715 -8 11 -4 23 -7 28 -7 4 -1 7 -8 7 -16 0 -18
36 -20 42 -2 7 20 2 262 -6 275 -10 16 -36 3 -36 -18 0 -9 -9 -25 -21 -36 -20
-18 -47 -19 -583 -22 l-561 -3 -1 208 0 208 360 -1 c199 0 378 -4 399 -9 28
-5 41 -14 48 -32 6 -16 15 -23 27 -21 15 3 17 18 18 143 0 90 -3 143 -10 147
-6 5 -22 -5 -36 -22 -18 -21 -38 -32 -70 -38 -35 -6 -641 -8 -720 -3 -14 1
-16 27 -16 191 l-1 190 271 0 c681 1 812 0 826 -3 33 -7 60 -19 60 -26 0 -17
27 -42 40 -36 22 8 21 263 0 275 -10 5 -22 -1 -37 -19z"/>
<path d="M5770 10185 c0 -8 -15 -18 -32 -23 -18 -5 -346 -9 -728 -10 -382 0
-712 -1 -733 -1 -46 -1 -46 -21 0 -33 22 -6 34 -17 40 -36 10 -32 9 -713 -1
-730 -4 -7 -4 -12 1 -12 4 0 8 -87 7 -194 -1 -215 -9 -246 -59 -246 -16 0 -25
-6 -25 -15 0 -10 10 -15 28 -15 15 -1 353 -2 750 -3 l724 -2 17 -22 c10 -12
26 -20 37 -19 17 3 18 14 19 144 0 141 0 142 -22 142 -16 0 -23 -6 -23 -20 0
-12 -13 -28 -32 -40 -31 -19 -52 -19 -583 -17 l-550 2 0 205 0 205 360 0 c198
1 377 -3 398 -9 26 -6 41 -16 48 -32 5 -14 17 -24 28 -24 18 0 19 8 19 149 -1
163 -3 168 -56 115 -17 -17 -36 -31 -44 -33 -33 -4 -741 -5 -747 -1 -3 3 -6
89 -7 193 l0 187 547 0 c576 0 603 -2 619 -45 6 -15 16 -22 27 -21 16 3 18 15
18 139 0 135 0 137 -22 137 -14 0 -23 -6 -23 -15z"/>
<path d="M16604 10159 c-10 -3 -22 -5 -25 -3 -10 5 -159 -23 -225 -42 -32 -10
-64 -19 -70 -20 -32 -6 -210 -98 -258 -134 -25 -19 -135 -128 -159 -159 -62
-78 -105 -218 -101 -327 3 -70 36 -181 65 -218 10 -13 19 -28 19 -33 0 -9 93
-108 126 -133 56 -44 174 -114 214 -125 3 -1 12 -4 20 -8 50 -20 175 -56 218
-62 15 -2 38 -6 51 -9 57 -13 176 -20 306 -20 182 0 256 8 465 49 37 7 172 46
195 56 11 5 43 17 70 28 62 24 193 87 211 102 18 15 18 39 -1 39 -32 0 -43 41
-44 165 0 155 4 175 35 175 25 0 36 29 12 31 -7 1 -179 2 -383 3 -393 2 -419
5 -430 49 -4 16 -13 24 -27 23 -19 -1 -20 -7 -20 -116 1 -190 0 -180 20 -173
9 4 27 17 39 30 16 17 34 23 65 24 58 1 368 1 394 0 21 -1 22 -6 22 -91 l-1
-90 -61 -29 c-73 -34 -207 -76 -291 -90 -184 -32 -419 -34 -530 -7 -5 2 -28 6
-50 11 -45 9 -193 73 -213 92 -7 7 -17 13 -21 13 -9 0 -108 95 -133 128 -10
12 -18 28 -18 35 0 7 -5 18 -11 24 -30 30 -46 203 -26 278 31 115 124 222 247
282 90 44 113 52 198 68 13 2 32 7 43 10 10 4 54 9 96 11 43 3 89 6 103 7 14
2 33 -1 42 -5 9 -5 20 -4 23 2 4 6 11 7 17 4 6 -4 39 -8 73 -9 34 -2 77 -6 96
-10 19 -5 43 -9 54 -10 56 -7 205 -55 266 -85 24 -12 54 -28 67 -34 23 -12 37
-40 33 -68 -1 -9 6 -18 16 -20 19 -4 33 8 171 157 77 83 81 90 61 97 -15 6
-27 4 -39 -7 -10 -9 -28 -13 -46 -11 -43 7 -54 11 -114 38 -52 24 -165 62
-214 72 -11 3 -32 8 -46 11 -31 7 -116 21 -190 31 -74 9 -382 12 -406 3z"/>
<path d="M1357 10152 c-36 -4 -30 -24 11 -34 17 -5 34 -14 38 -20 9 -15 10
-1124 1 -1160 -6 -21 -15 -29 -40 -33 -20 -4 -34 -13 -34 -21 0 -12 37 -14
219 -14 187 0 218 2 218 15 0 8 -8 15 -18 15 -10 0 -27 6 -38 14 -19 13 -20
25 -19 272 l0 259 588 0 c323 0 587 -2 588 -5 6 -28 3 -499 -3 -512 -5 -10
-23 -21 -41 -26 -74 -19 -23 -27 191 -30 173 -2 223 0 220 10 -3 7 -18 16 -35
20 -16 4 -34 18 -39 30 -8 18 -12 1054 -5 1150 1 16 50 50 68 47 16 -2 13 19
-4 22 -15 4 -334 3 -411 0 -26 -1 -26 -26 0 -26 8 0 25 -7 38 -16 l24 -16 1
-241 c0 -236 0 -242 -20 -243 -51 -3 -1141 -4 -1150 -2 -7 3 -11 84 -10 242 0
255 3 271 50 271 20 0 45 29 27 31 -21 3 -391 4 -415 1z"/>
<path d="M6842 10152 c-32 -5 -23 -24 16 -34 18 -5 33 -17 37 -29 5 -15 9
-830 5 -1125 0 -39 -3 -43 -40 -58 -22 -9 -40 -20 -40 -26 0 -11 7 -11 205
-11 238 0 235 0 235 16 0 8 -9 15 -20 15 -11 0 -28 8 -39 19 -17 17 -18 37
-18 259 0 212 2 241 16 244 9 2 146 4 305 3 l290 0 34 -45 c18 -25 39 -52 45
-60 7 -8 20 -27 29 -41 9 -14 23 -32 30 -40 7 -8 26 -34 43 -59 16 -25 32 -47
36 -50 3 -3 38 -49 78 -103 73 -100 81 -127 38 -127 -28 0 -37 -7 -31 -23 6
-17 487 -11 482 5 -3 7 -20 16 -38 21 -19 5 -46 18 -61 30 -25 20 -169 201
-169 213 0 2 -9 15 -21 27 -24 27 -199 260 -196 263 1 1 30 5 65 8 108 11 243
68 310 130 77 72 110 218 73 329 -21 61 -88 139 -143 164 -58 27 -156 61 -193
67 -16 2 -30 5 -30 6 0 10 -1268 21 -1333 12z m1243 -175 c57 -7 132 -38 158
-65 35 -36 47 -95 32 -154 -21 -83 -67 -119 -195 -153 -39 -10 -154 -14 -474
-15 l-423 -1 0 193 c0 106 1 196 3 199 3 6 847 3 899 -4z"/>
<path d="M9560 10152 c-11 -4 -14 -33 -2 -31 21 4 42 -3 56 -17 14 -14 16 -81
16 -594 l0 -579 -22 -15 c-12 -9 -30 -16 -40 -16 -10 0 -18 -7 -18 -15 0 -13
31 -15 220 -15 189 0 220 2 220 15 0 8 -9 15 -20 15 -11 0 -29 9 -39 19 -19
19 -20 39 -20 595 1 523 2 576 17 589 10 8 26 17 37 19 11 2 20 10 20 18 0 12
-34 14 -208 14 -114 1 -212 0 -217 -2z"/>
<path d="M13894 10150 c-36 -6 -34 -23 5 -33 21 -5 29 -12 26 -25 -2 -10 -67
-121 -144 -246 -78 -126 -141 -232 -141 -237 0 -5 -4 -9 -10 -9 -5 0 -10 -4
-10 -9 0 -11 -328 -546 -383 -624 -28 -40 -49 -60 -70 -65 -17 -4 -32 -13 -35
-20 -4 -12 3 -13 203 -13 197 0 215 1 215 12 0 5 -13 15 -30 20 -36 13 -37 26
-7 77 12 21 47 82 77 135 l55 97 475 0 476 0 18 -32 c11 -18 28 -43 40 -56 12
-13 20 -27 20 -30 -1 -4 16 -32 37 -63 61 -91 62 -128 2 -129 -16 0 -21 -4
-17 -15 5 -13 41 -15 235 -15 197 0 229 2 229 15 0 10 -10 15 -30 15 -18 0
-39 10 -55 26 -28 28 -265 381 -265 394 0 5 -3 10 -7 12 -11 5 -53 66 -53 77
0 5 -3 11 -7 13 -11 4 -143 206 -143 217 0 5 -3 11 -8 13 -11 5 -279 411 -286
435 -5 17 -1 23 24 31 18 7 28 16 25 24 -4 10 -52 13 -218 13 -117 0 -226 -2
-243 -5z m222 -224 c8 -8 14 -17 14 -21 0 -9 82 -129 93 -136 5 -3 8 -9 8 -13
-1 -3 51 -85 115 -183 64 -97 118 -182 121 -190 4 -11 -56 -13 -345 -13 -193
0 -353 3 -355 8 -3 4 29 61 69 127 40 66 81 135 90 153 9 17 20 32 25 32 5 0
9 9 9 19 0 11 4 21 8 23 5 2 23 30 42 63 18 33 36 62 39 65 4 3 15 22 26 43
22 42 22 42 41 23z"/>
<path d="M5553 7473 c0 -67 3 -83 15 -83 8 0 20 8 27 17 10 14 34 17 154 17
l141 1 1 -30 c1 -38 1 -455 0 -476 -1 -9 -10 -19 -21 -22 -13 -3 -18 -11 -14
-20 8 -22 229 -19 229 3 0 8 -8 20 -19 25 -17 9 -19 25 -18 257 0 136 2 250 5
255 3 4 61 7 129 6 177 -2 168 -1 168 -22 0 -14 5 -18 19 -14 16 4 18 15 18
87 0 71 -3 83 -17 82 -9 -1 -23 -8 -31 -16 -23 -23 -726 -22 -743 1 -6 9 -18
16 -27 16 -13 0 -16 -14 -16 -84z"/>
<path d="M8737 7534 c-1 -1 -33 -5 -72 -9 -77 -8 -110 -12 -110 -15 0 -1 -7
-3 -15 -5 -43 -8 -140 -65 -178 -103 -80 -80 -107 -187 -74 -299 38 -128 193
-226 379 -238 26 -2 53 -4 58 -5 6 -1 12 -2 15 -1 3 1 39 3 80 5 190 9 337 83
392 195 13 25 23 49 24 54 1 4 2 8 4 10 1 1 3 27 4 57 7 182 -140 318 -374
345 -57 7 -130 12 -133 9z m113 -116 c76 -14 158 -52 183 -85 67 -84 65 -195
-6 -285 -16 -20 -105 -62 -157 -73 -90 -20 -263 -5 -294 26 -6 5 -18 9 -27 9
-27 0 -89 71 -103 120 -31 104 14 212 104 252 93 41 204 55 300 36z"/>
<path d="M11625 7534 c-5 -2 -39 -5 -75 -7 -231 -17 -398 -152 -408 -330 -4
-57 0 -75 23 -122 23 -47 109 -138 134 -141 3 0 26 -10 51 -21 40 -18 73 -29
120 -40 8 -2 55 -6 104 -8 49 -3 93 -8 97 -11 5 -3 9 -2 9 3 0 4 15 8 33 9 45
1 123 13 150 23 12 5 27 9 32 10 38 5 190 75 201 93 4 6 0 16 -9 23 -11 8 -16
30 -17 71 -3 79 -2 84 14 84 8 0 13 8 12 18 -3 15 -20 17 -191 18 -179 0 -189
1 -202 21 -8 12 -21 19 -31 16 -14 -3 -17 -16 -16 -77 1 -92 7 -103 42 -79 21
13 49 17 120 18 55 0 92 -4 93 -10 0 -5 2 -18 4 -27 6 -30 -23 -55 -87 -73
-90 -25 -111 -28 -223 -28 -82 0 -110 4 -155 23 -101 43 -160 118 -160 204 0
93 57 168 157 207 78 30 259 33 343 5 87 -29 130 -54 124 -71 -4 -9 1 -18 12
-22 13 -5 33 10 80 62 56 62 61 70 46 81 -12 9 -21 9 -29 2 -9 -7 -32 -3 -78
16 -36 14 -72 26 -80 26 -8 0 -15 3 -15 8 0 4 -10 7 -22 8 -13 0 -48 4 -78 8
-88 11 -114 13 -125 10z"/>
<path d="M14258 7535 c-1 -1 -37 -5 -78 -8 -79 -6 -148 -19 -190 -35 -14 -5
-29 -10 -34 -10 -5 0 -12 -4 -15 -9 -3 -5 -23 -19 -43 -32 -44 -27 -99 -91
-119 -141 -8 -20 -14 -66 -13 -110 1 -89 25 -148 82 -202 33 -32 110 -82 137
-88 13 -3 20 -5 70 -21 22 -7 97 -13 167 -15 208 -3 329 32 422 121 108 104
119 263 28 391 -18 25 -42 48 -53 51 -10 3 -19 9 -19 13 0 7 -83 51 -105 56
-5 1 -29 7 -51 13 -23 6 -68 14 -100 17 -33 3 -64 7 -71 9 -6 2 -13 2 -15 0z
m147 -134 c67 -23 99 -45 128 -83 29 -39 46 -115 35 -158 -5 -19 -10 -41 -12
-48 -5 -25 -56 -82 -88 -98 -142 -74 -387 -59 -478 28 -70 67 -86 176 -38 259
64 109 286 159 453 100z"/>
<path d="M6860 7508 c0 -10 7 -18 15 -18 22 0 24 -23 22 -315 -2 -248 -3 -270
-19 -273 -10 -2 -18 -12 -18 -22 0 -16 11 -18 115 -17 102 0 115 2 115 18 0 9
-8 19 -18 21 -16 5 -19 18 -20 127 l-1 121 270 0 269 0 0 -126 c0 -108 -2
-125 -15 -120 -8 3 -15 2 -16 -2 0 -4 -2 -14 -4 -23 -2 -14 12 -16 111 -16
105 0 114 1 114 18 0 11 -7 19 -15 19 -8 0 -16 6 -16 13 -4 41 -3 560 1 566 3
4 13 11 24 14 13 5 15 11 8 20 -8 9 -43 13 -119 12 -91 0 -108 -2 -111 -16 -2
-10 5 -19 18 -22 19 -5 20 -13 20 -119 l0 -115 -267 1 -268 1 -2 112 c-2 105
-1 112 18 118 12 4 19 14 17 23 -3 15 -19 17 -116 17 -101 0 -112 -1 -112 -17z"/>
<path d="M9739 7525 c0 0 -2 -8 -4 -17 -2 -12 3 -18 16 -18 11 0 19 -7 20 -17
3 -56 4 -532 1 -550 -2 -11 -13 -23 -23 -26 -12 -3 -17 -11 -13 -20 5 -13 24
-15 106 -14 103 2 132 14 89 37 -20 10 -21 19 -21 245 0 136 4 235 9 235 5 0
11 -3 13 -7 2 -5 32 -33 68 -63 36 -30 67 -57 70 -60 6 -6 64 -57 159 -140 34
-30 75 -66 91 -80 15 -14 53 -47 84 -74 49 -43 54 -50 39 -61 -32 -24 -3 -33
107 -32 98 0 110 2 110 17 0 10 -9 20 -20 23 -19 5 -19 15 -19 291 0 270 1
285 19 291 10 3 18 14 17 23 -1 15 -14 17 -104 18 -84 0 -103 -3 -105 -16 -2
-8 6 -20 17 -25 19 -10 20 -20 21 -210 0 -110 -2 -203 -4 -208 -2 -4 -9 -1
-16 5 -7 7 -39 36 -70 63 -64 55 -147 129 -182 160 -12 11 -50 45 -85 75 -121
105 -135 119 -116 120 18 0 21 9 9 25 -5 7 -257 16 -283 10z"/>
<path d="M12602 7520 c-15 -11 -11 -30 7 -30 10 0 21 -6 23 -12 3 -11 2 -527
-1 -565 -1 -7 -10 -13 -20 -13 -13 0 -18 -6 -17 -17 3 -17 29 -18 376 -19 272
-1 375 -4 378 -13 2 -6 14 -11 26 -11 21 0 22 4 21 80 -1 44 -4 83 -7 86 -4 3
-16 -4 -29 -17 -22 -22 -27 -23 -278 -24 -141 0 -264 1 -273 3 -17 4 -18 25
-18 259 0 246 1 255 20 260 20 5 28 32 10 34 -31 5 -212 4 -218 -1z"/>
<path d="M15224 7518 c-3 -4 6 -16 18 -27 l23 -21 -1 -277 c-1 -153 -2 -281
-3 -285 0 -5 -7 -8 -15 -8 -18 0 -29 -30 -13 -35 6 -2 59 -3 117 -2 91 2 105
4 108 20 2 11 -3 17 -16 17 -19 0 -36 23 -25 34 3 3 5 50 4 106 l-2 100 139 0
138 0 48 -65 c26 -36 53 -71 60 -78 6 -7 24 -29 40 -51 25 -34 27 -40 13 -48
-9 -4 -14 -15 -11 -22 8 -20 241 -19 248 1 4 9 -4 18 -22 24 -16 5 -51 39 -82
80 -30 39 -61 77 -67 84 -7 8 -13 16 -13 19 0 3 -11 17 -25 32 -19 20 -22 30
-13 35 7 4 15 6 19 3 4 -2 34 7 66 21 73 32 105 75 111 150 6 70 -30 137 -83
156 -19 7 -35 17 -35 23 0 5 -3 7 -6 4 -3 -4 -20 -2 -37 4 -37 12 -676 18
-683 6z m664 -119 c12 -8 24 -21 27 -29 5 -19 0 -63 -9 -79 -9 -13 -66 -44
-66 -35 0 4 -6 2 -12 -3 -10 -7 -307 -10 -398 -4 -12 1 -14 16 -12 86 l3 86
85 -2 c47 -1 86 0 88 2 3 2 64 1 138 -2 89 -4 140 -10 156 -20z"/>
</g>
</svg>
