<svg width="131" height="49" viewBox="0 0 131 49" fill="none" xmlns="http://www.w3.org/2000/svg">
<path d="M16.9114 28.5385C17.0469 28.5236 17.1832 28.5578 17.2957 28.6348C17.3298 28.6684 17.3564 28.7088 17.3737 28.7534C17.3911 28.798 17.3988 28.8457 17.3965 28.8935V31.6693H10.2482V28.8935C10.2457 28.8457 10.2533 28.7979 10.2707 28.7533C10.288 28.7087 10.3147 28.6683 10.3489 28.6348C10.4611 28.5576 10.5973 28.5233 10.7326 28.5385V28.3613H8.06641V28.5385C8.20146 28.5234 8.33742 28.5576 8.44929 28.6348C8.48365 28.6682 8.51053 28.7086 8.52815 28.7532C8.54577 28.7978 8.55373 28.8456 8.5515 28.8935V35.597C8.55386 35.6448 8.54596 35.6925 8.52833 35.737C8.5107 35.7815 8.48375 35.8217 8.44929 35.8549C8.3377 35.9327 8.20151 35.967 8.06641 35.9513V36.1277H10.7326V35.9513C10.5972 35.9671 10.4607 35.9329 10.3489 35.8549C10.3146 35.8217 10.2879 35.7814 10.2705 35.7369C10.2531 35.6924 10.2455 35.6447 10.2482 35.597V32.6433H17.3965V35.597C17.3989 35.6447 17.3912 35.6923 17.3738 35.7368C17.3565 35.7813 17.3298 35.8215 17.2957 35.8549C17.1835 35.9326 17.0469 35.9668 16.9114 35.9513V36.1277H19.5775V35.9513C19.4424 35.9668 19.3063 35.9326 19.1946 35.8549C19.1605 35.8216 19.1338 35.7813 19.1165 35.7368C19.0991 35.6923 19.0914 35.6447 19.0939 35.597V28.8935C19.0915 28.8457 19.0993 28.798 19.1166 28.7534C19.134 28.7088 19.1606 28.6684 19.1946 28.6348C19.3066 28.5578 19.4425 28.5236 19.5775 28.5385V28.3613H16.9114V28.5385Z" fill="#D1986D"/>
<path d="M34.7983 28.2959C34.5813 28.3547 34.356 28.377 34.1317 28.3619H25.6719V28.539C25.8074 28.524 25.9438 28.5582 26.0563 28.6354C26.0902 28.669 26.1168 28.7094 26.1341 28.754C26.1515 28.7986 26.1592 28.8463 26.157 28.8941V35.5975C26.1593 35.6452 26.1516 35.6928 26.1342 35.7373C26.1169 35.7818 26.0903 35.822 26.0563 35.8555C25.9441 35.9333 25.8074 35.9675 25.6719 35.9518V36.1312H34.2325C34.704 36.1312 34.9395 36.2251 34.939 36.4129H35.1811V34.6555H34.9419C34.9492 34.7332 34.9341 34.8114 34.8982 34.8808C34.8624 34.9502 34.8074 35.0078 34.7398 35.0468C34.5424 35.1321 34.3278 35.1697 34.1132 35.1565H27.8552V32.646H31.9944C32.2 32.6337 32.406 32.664 32.5994 32.735C32.6576 32.762 32.7062 32.8062 32.7387 32.8615C32.7713 32.9168 32.7862 32.9808 32.7816 33.0448H33.0238V31.2592H32.7816C32.7843 31.3315 32.7629 31.4026 32.7208 31.4614C32.6787 31.5201 32.6183 31.5632 32.5491 31.5839C32.3583 31.648 32.1577 31.6779 31.9566 31.6721H27.8574V29.3395H34.1525C34.3672 29.3199 34.5832 29.358 34.7783 29.45C34.8291 29.482 34.8708 29.5267 34.8993 29.5797C34.9277 29.6328 34.9419 29.6922 34.9405 29.7524H35.1826V28.0684H34.9419C34.9444 28.1165 34.9319 28.1642 34.9062 28.2049C34.8805 28.2457 34.8427 28.2774 34.7983 28.2959Z" fill="#D1986D"/>
<path d="M51.1112 35.5708L48.9346 32.692C49.7126 32.6713 50.4687 32.4299 51.1149 31.996C51.3332 31.819 51.5071 31.5933 51.6228 31.3371C51.7386 31.0809 51.7929 30.8012 51.7814 30.5202C51.794 30.1997 51.72 29.8817 51.5673 29.5997C51.4145 29.3177 51.1887 29.0821 50.9135 28.9177C50.0244 28.4804 49.0345 28.2889 48.0466 28.3633H41.2812V28.5405C41.4168 28.5252 41.5533 28.5594 41.6656 28.6368C41.6997 28.6704 41.7262 28.7108 41.7436 28.7554C41.761 28.8 41.7687 28.8477 41.7663 28.8955V35.599C41.7688 35.6467 41.7611 35.6943 41.7437 35.7388C41.7264 35.7833 41.6997 35.8235 41.6656 35.8569C41.5536 35.935 41.4168 35.9693 41.2812 35.9533V36.1297H43.9474V35.9533C43.8121 35.9691 43.6756 35.9349 43.5638 35.8569C43.5295 35.8237 43.5027 35.7834 43.4853 35.7389C43.4679 35.6944 43.4604 35.6467 43.4631 35.599V32.7646H47.1771L49.2923 35.6553C49.3212 35.6722 49.3456 35.6959 49.3634 35.7243C49.3812 35.7527 49.3919 35.7849 49.3945 35.8184C49.3955 35.8414 49.3887 35.8642 49.3753 35.883C49.3619 35.9018 49.3426 35.9156 49.3204 35.9221C49.2115 35.9491 49.0991 35.9591 48.9872 35.9518V36.1282H51.8947V35.9518C51.7462 35.962 51.5975 35.9366 51.4608 35.8777C51.3304 35.7923 51.2127 35.689 51.1112 35.5708ZM43.4631 31.761V29.3691H47.7844C48.1723 29.3644 48.56 29.3862 48.9449 29.4344C49.1941 29.4627 49.4367 29.5329 49.6626 29.6419C49.8177 29.7157 49.9451 29.8373 50.0262 29.9888C50.0976 30.1459 50.1321 30.3173 50.1269 30.4898C50.1314 30.6757 50.0871 30.8596 49.9983 31.023C49.9095 31.1863 49.7795 31.3235 49.6211 31.4208C49.085 31.6926 48.4841 31.8103 47.8851 31.761H43.4631Z" fill="#D1986D"/>
<path d="M57.793 28.5385C57.9285 28.5234 58.0649 28.5576 58.1773 28.6348C58.2114 28.6684 58.2379 28.7088 58.2553 28.7534C58.2726 28.798 58.2804 28.8457 58.2781 28.8935V35.597C58.2805 35.6447 58.2728 35.6923 58.2554 35.7368C58.2381 35.7813 58.2115 35.8215 58.1773 35.8549C58.0652 35.9328 57.9285 35.967 57.793 35.9513V36.1277H60.4591V35.9513C60.3238 35.9667 60.1875 35.9324 60.0755 35.8549C60.0415 35.8215 60.0149 35.7812 59.9975 35.7367C59.9802 35.6923 59.9724 35.6447 59.9748 35.597V28.8935C59.9726 28.8457 59.9804 28.798 59.9977 28.7535C60.0151 28.7089 60.0416 28.6685 60.0755 28.6348C60.1878 28.5579 60.3239 28.5237 60.4591 28.5385V28.3613H57.793V28.5385Z" fill="#D1986D"/>
<path d="M74.9168 28.3629H66.4362C65.9652 28.3629 65.7297 28.2354 65.7297 27.9805H65.4883V29.7216H65.7297C65.7236 29.6608 65.7357 29.5996 65.7644 29.5458C65.7932 29.4919 65.8373 29.4478 65.8912 29.4192C66.0652 29.3543 66.2509 29.327 66.4362 29.3391H69.8289V35.5993C69.8314 35.6471 69.8235 35.6949 69.8059 35.7395C69.7883 35.784 69.7612 35.8241 69.7267 35.8573C69.6151 35.9351 69.4789 35.9693 69.3438 35.9536V36.13H72.01V35.9566C71.8742 35.9722 71.7374 35.9379 71.6249 35.8602C71.5908 35.8269 71.5641 35.7866 71.5468 35.7421C71.5294 35.6976 71.5217 35.65 71.5241 35.6023V29.3421H74.9176C75.1029 29.3299 75.2887 29.3571 75.4627 29.4221C75.5165 29.4508 75.5606 29.4949 75.5894 29.5487C75.6181 29.6026 75.6302 29.6638 75.6241 29.7245H75.8663V27.9834H75.6241C75.6236 28.2369 75.3879 28.3634 74.9168 28.3629Z" fill="#D1986D"/>
<path d="M91.2597 35.8497C91.1859 35.7849 91.1216 35.7101 91.0686 35.6274C91.0005 35.5288 90.9064 35.3917 90.7857 35.213L86.9094 29.3375C86.802 29.1693 86.7146 29.041 86.6472 28.9447C86.5918 28.8802 86.5568 28.8008 86.5465 28.7164C86.5465 28.5985 86.6539 28.5385 86.8701 28.5385V28.3613H83.9218V28.5385C84.164 28.5385 84.2862 28.5985 84.2862 28.7164C84.277 28.7888 84.2489 28.8576 84.2047 28.9158L83.9626 29.2915L80.3085 35.2582C80.1996 35.4146 80.1129 35.5399 80.0463 35.6341C79.9927 35.7112 79.9317 35.783 79.8641 35.8483C79.8167 35.8941 79.757 35.9253 79.6923 35.938C79.6221 35.9477 79.5513 35.9524 79.4805 35.952V36.1284H81.9637V35.952C81.7341 35.952 81.6216 35.8979 81.6216 35.7897C81.6332 35.6989 81.6676 35.6124 81.7215 35.5384C81.7889 35.4302 81.8496 35.3316 81.9037 35.2419L82.5895 34.0605H88.3047L89.072 35.2419C89.1786 35.4183 89.2497 35.5347 89.2838 35.5888C89.3143 35.6352 89.3318 35.689 89.3341 35.7445C89.3354 35.7752 89.3286 35.8057 89.3142 35.8329C89.2999 35.8601 89.2787 35.8831 89.2527 35.8994C89.1505 35.9425 89.0394 35.9601 88.929 35.9506V36.1269H91.7359V35.9506C91.6414 35.9516 91.5469 35.9469 91.453 35.9365C91.382 35.9252 91.3153 35.8953 91.2597 35.8497ZM83.2338 33.0895L85.3342 29.6058L87.6159 33.0895H83.2338Z" fill="#D1986D"/>
<path d="M102.314 31.7888H102.072V33.5328H102.314C102.314 33.3159 102.549 33.2072 103.02 33.2067H105.342V34.3185C104.795 34.6063 104.211 34.8185 103.606 34.9493C102.824 35.1241 102.024 35.2079 101.223 35.1991C100.698 35.2006 100.175 35.1335 99.6675 34.9997C99.1992 34.8795 98.753 34.6856 98.3456 34.4252C97.9735 34.1859 97.6571 33.8694 97.4176 33.4972C97.1779 33.1162 97.0549 32.6733 97.0636 32.2231C97.0598 31.8225 97.152 31.4269 97.3324 31.0693C97.5128 30.7117 97.7761 30.4025 98.1004 30.1677C98.5122 29.8713 98.9741 29.6518 99.4639 29.5199C100.102 29.3467 100.761 29.2651 101.422 29.2776C101.95 29.2741 102.477 29.3185 102.997 29.4102C103.425 29.4844 103.846 29.593 104.256 29.7349C104.548 29.8337 104.829 29.9626 105.094 30.1196C105.296 30.247 105.396 30.356 105.396 30.4442C105.398 30.4781 105.392 30.512 105.378 30.5429C105.364 30.5738 105.343 30.6008 105.316 30.6213L105.558 30.7399L106.973 29.2183L106.729 29.1011C106.691 29.1483 106.647 29.1904 106.598 29.2264C106.528 29.2666 106.447 29.2847 106.366 29.2783C106.192 29.2628 106.023 29.2097 105.872 29.1226C105.587 28.9885 105.294 28.8726 104.994 28.7758C104.522 28.6245 104.039 28.5085 103.55 28.4289C102.832 28.3161 102.106 28.2645 101.38 28.2747C100.575 28.2666 99.7727 28.3709 98.9965 28.5845C98.324 28.7656 97.6863 29.0574 97.1095 29.448C96.6065 29.7864 96.1799 30.2265 95.8572 30.7399C95.557 31.2227 95.3993 31.7805 95.4024 32.3491C95.3981 32.9057 95.56 33.4508 95.8675 33.9145C96.2025 34.4115 96.6437 34.8277 97.1591 35.1331C97.7662 35.4953 98.4276 35.7571 99.118 35.9084C99.9261 36.0916 100.753 36.1808 101.581 36.1745C102.522 36.1638 103.46 36.0545 104.378 35.8483C105.426 35.619 106.431 35.2253 107.356 34.6817V34.5038C107.254 34.4971 107.157 34.4613 107.074 34.4008C107.006 34.3075 106.977 34.1913 106.993 34.0769V32.7924C106.979 32.6809 107.005 32.5681 107.067 32.4744C107.155 32.4177 107.259 32.3939 107.363 32.4069V32.2312H103.022C102.55 32.2322 102.314 32.0847 102.314 31.7888Z" fill="#D1986D"/>
<path d="M121.417 29.3395C121.632 29.3199 121.848 29.3581 122.043 29.45C122.094 29.4821 122.136 29.5268 122.164 29.5798C122.192 29.6328 122.206 29.6923 122.205 29.7524H122.448V28.0684H122.205C122.208 28.1166 122.196 28.1646 122.17 28.2058C122.145 28.2469 122.108 28.2792 122.063 28.2981C121.846 28.357 121.621 28.3793 121.397 28.3641H112.938V28.5412C113.073 28.5264 113.209 28.5605 113.322 28.6376C113.356 28.6713 113.382 28.7117 113.4 28.7563C113.417 28.8008 113.425 28.8485 113.423 28.8963V35.5998C113.425 35.6474 113.417 35.6951 113.4 35.7395C113.382 35.784 113.356 35.8243 113.322 35.8577C113.21 35.9354 113.073 35.9697 112.938 35.9541V36.1334H121.499C121.969 36.1334 122.204 36.2273 122.205 36.4151H122.448V34.6577H122.205C122.212 34.7355 122.197 34.8137 122.161 34.8831C122.125 34.9524 122.07 35.01 122.002 35.049C121.805 35.1343 121.591 35.1719 121.377 35.1587H115.118V32.6483H119.257C119.463 32.636 119.67 32.6663 119.864 32.7372C119.921 32.7646 119.97 32.8089 120.002 32.8641C120.034 32.9194 120.049 32.9831 120.045 33.047H120.286V31.2615H120.045C120.048 31.3338 120.026 31.4049 119.984 31.4637C119.942 31.5225 119.882 31.5656 119.812 31.5861C119.622 31.6501 119.421 31.68 119.22 31.6743H115.122V29.3418L121.417 29.3395Z" fill="#D1986D"/>
<path d="M59.2354 0C58.6069 0.676474 57.9327 1.37148 57.2129 2.08502C56.493 2.79855 55.7401 3.50863 54.9541 4.21525C54.1695 4.92137 53.3852 5.61316 52.6012 6.29062C51.8171 6.96808 51.0642 7.58798 50.3423 8.15031C48.7106 6.72176 47.1654 5.34805 45.707 4.0292C44.2485 2.71035 42.8134 1.36802 41.4019 0.00222805C41.4019 0.00222805 37.7574 0.111185 36.2266 0.00222805C36.5396 0.254732 36.9943 0.627802 37.5907 1.12145C38.1872 1.61509 38.8537 2.17223 39.5904 2.79287C40.328 3.414 41.1046 4.06577 41.9203 4.74817C42.7359 5.43058 43.5123 6.0816 44.2495 6.70125C44.9851 7.32139 45.6595 7.88669 46.2728 8.39713C46.886 8.90758 47.3489 9.29572 47.6614 9.56157C47.6443 10.5926 47.2844 16.1776 47.2844 16.1776C48.0053 16.1459 48.7738 16.1306 49.5899 16.1316C50.406 16.1326 51.1745 16.1479 51.8954 16.1776C51.8954 16.1776 51.5777 11.8437 51.5251 9.97961C51.5251 9.75057 51.5206 9.52155 51.5206 9.30289C52.0218 8.81616 52.618 8.27063 53.3092 7.6663C54.0004 7.06197 54.8002 6.38302 55.7087 5.62946C56.6182 4.8764 57.6691 4.03637 58.8614 3.10937C60.0538 2.18236 61.4027 1.14591 62.9081 0C61.6849 0.0717341 60.4586 0.0717341 59.2354 0Z" fill="#D1986D"/>
<path d="M28.1368 0.0078125C27.7294 0.0396844 27.3362 0.0678498 26.9607 0.0908272C26.5852 0.113805 26.2068 0.12789 25.8313 0.12789C25.4558 0.12789 25.0788 0.114546 24.7011 0.0908272C24.3234 0.0671086 23.9346 0.0404256 23.5258 0.0078125C23.5258 0.0433904 23.531 0.0767511 23.5347 0.109364C23.5347 0.207945 23.6088 3.03787 23.648 6.34291H23.6695V6.82544H23.648C23.648 7.02112 23.6525 7.21753 23.6554 7.41839L18.9845 7.46361C17.5225 7.47769 16.0058 7.48511 14.4483 7.48659H14.0684H13.6885C12.1332 7.48659 10.6135 7.47769 9.1523 7.46361L4.76574 7.42136H4.48284H4.47914L4.48284 6.9381L4.49247 6.00862V5.97453C4.53468 2.83329 4.59912 0.209424 4.60134 0.115291C4.60134 0.0826775 4.60727 0.0493281 4.61097 0.0137502C4.20216 0.0456221 3.81185 0.0737875 3.43489 0.0967649C3.05793 0.119742 2.68171 0.133816 2.30623 0.133816C1.93075 0.133816 1.55303 0.120484 1.17755 0.0967649C0.802064 0.0730463 0.407328 0.0463633 0 0.0137502C0.00888717 0.0997301 0.0155569 0.184229 0.0229629 0.269467C0.400424 4.84944 0.456845 9.45024 0.191817 14.0381C0.131088 14.763 0.0688755 15.4835 0 16.1876C0.721835 16.156 1.49082 16.1407 2.30695 16.1416C3.12309 16.1426 3.89159 16.158 4.61244 16.1876C4.59392 16.0008 4.5769 15.8103 4.55987 15.6221C4.46063 14.1256 4.44728 11.3579 4.46802 8.5643V8.51909H4.47396C4.59023 8.51909 4.70281 8.51909 4.81908 8.51909C6.30027 8.50723 7.75479 8.49611 9.15526 8.48944C10.7377 8.48104 12.3764 8.47708 14.0713 8.47758C15.7663 8.47807 17.405 8.48203 18.9874 8.48944C20.4272 8.49685 21.9187 8.50723 23.4488 8.52131C23.5229 8.52131 23.5969 8.52131 23.671 8.52131C23.671 8.65695 23.671 8.79186 23.6747 8.9275V8.45831C23.6954 11.2875 23.6836 14.1056 23.5836 15.6213C23.5665 15.8096 23.5495 15.9993 23.531 16.1869C24.2531 16.1557 25.0196 16.1409 25.8365 16.1409C26.6534 16.1409 27.4206 16.1557 28.1419 16.1869C28.0746 15.4805 28.0101 14.7608 27.9509 14.0374C27.6864 9.44949 27.7428 4.84872 28.1197 0.268721C28.1227 0.181258 28.1294 0.0937924 28.1368 0.0078125Z" fill="#D1986D"/>
<path d="M131.001 14.8367C130.248 14.9147 129.362 14.9733 128.343 15.0123C127.325 15.0514 126.243 15.0827 125.097 15.1065C123.952 15.1307 122.784 15.1423 121.591 15.1413H113.577C113.46 14.1777 113.429 12.0282 113.436 9.69713V9.68083C113.436 9.31023 113.441 8.93963 113.443 8.56383C117.324 8.57273 124.726 8.65204 128.009 8.68836C128.613 8.71282 129.171 8.73802 129.674 8.76693H129.682C129.678 8.74988 129.674 8.72912 129.671 8.70836C129.645 8.25331 129.648 7.79706 129.679 7.34232C129.678 7.33838 129.678 7.3344 129.679 7.33046C128.987 7.3616 128.258 7.38877 127.49 7.412C126.722 7.43522 125.883 7.45992 124.972 7.48611C124.27 7.50341 123.511 7.51923 122.697 7.53356C122.03 7.54097 121.344 7.54838 120.657 7.55208C119.909 7.55579 118.953 7.55876 117.975 7.56098C116.258 7.56098 114.616 7.53355 113.449 7.47722L113.454 7.11477H113.448C113.454 6.72045 113.46 6.33058 113.466 5.95182C113.507 3.38132 113.564 1.27258 113.569 1.11396C115.119 1.11396 121.24 1.12582 122.336 1.14954C123.432 1.17326 124.446 1.19994 125.372 1.23107C126.299 1.2622 127.175 1.29408 128.007 1.32521C128.84 1.35634 129.756 1.38895 130.759 1.41934C130.747 1.37487 130.738 1.3252 130.73 1.27703C130.713 0.853096 130.723 0.428571 130.759 0.00585938C129.348 0.0379783 127.952 0.0656497 126.571 0.0888741C125.191 0.112099 123.795 0.124454 122.383 0.125937C120.976 0.125937 114.745 0.112593 113.348 0.0888741C111.951 0.0651555 110.548 0.0384725 109.137 0.00585938C109.455 4.12371 109.557 8.25544 109.443 12.384C109.428 12.6501 109.416 12.9184 109.395 13.183C109.316 14.1797 109.23 15.1801 109.137 16.1842C109.137 16.1842 124.994 16.1278 129.725 16.1627C130.148 16.1701 130.572 16.176 130.995 16.1842C130.99 16.1627 130.987 16.1375 130.981 16.1145C130.955 15.6934 130.96 15.2711 130.995 14.8507L131.001 14.8367Z" fill="#D1986D"/>
<path d="M96.0928 2.08837C94.6374 1.33617 93.0738 0.815765 91.4581 0.545922C89.2117 0.154187 86.9336 -0.0274578 84.6535 0.00335186C84.1706 0.00335186 83.6907 0.0100267 83.2064 0.0166976C83.2064 0.0166976 78.6058 0.0559846 74.9606 0.0522785C74.4022 0.0522785 72.2204 0.0248472 71.245 0.0129879C71.1621 0.0129879 71.0806 0.00929119 70.9969 0.00632636H70.7695C70.7695 0.00632636 71.1702 3.2869 71.2746 6.25914C71.3265 8.50796 71.3309 11.0703 71.2102 13.4392C71.1311 14.3592 71.0048 15.2746 70.8318 16.1817H70.9962C70.9962 16.1817 79.3649 16.1557 80.6891 16.1676H80.6661C81.4726 16.178 82.2866 16.1839 83.1101 16.1839C84.9788 16.1778 86.8447 16.0406 88.6942 15.7733C90.5227 15.5284 92.3138 15.0576 94.0265 14.3716C95.5196 13.7915 96.875 12.9053 98.0057 11.77C98.516 11.246 98.9165 10.6252 99.1835 9.94409C99.4506 9.26297 99.579 8.53528 99.561 7.80381C99.5778 6.66154 99.2892 5.53554 98.7249 4.54251C98.0888 3.49849 97.1783 2.64952 96.0928 2.08837ZM93.9013 11.6003C93.0266 12.6143 91.9265 13.4089 90.6894 13.9202C89.2677 14.5149 87.7684 14.9033 86.2369 15.0736C84.587 15.2769 82.9262 15.3788 81.2638 15.3789C80.1174 15.3789 79.0023 15.3594 77.9185 15.3204C76.8348 15.2814 75.9757 15.2223 75.3412 15.1432C75.3109 14.8727 75.2872 14.5999 75.2627 14.3279C75.088 11.1348 75.2716 3.25651 75.3161 1.46576C75.3242 1.39164 75.3324 1.30565 75.3405 1.22857C76.2742 1.1663 77.3288 1.11146 78.5043 1.06402C79.6799 1.01658 80.9461 0.991881 82.3029 0.989904C84.025 0.982085 85.746 1.0811 87.4559 1.28638C88.85 1.43661 90.2139 1.7941 91.5026 2.34705C92.5572 2.79741 93.4761 3.51531 94.1687 4.42984C94.8498 5.41703 95.1914 6.59924 95.1419 7.79788C95.2018 9.17383 94.761 10.5248 93.9013 11.6003Z" fill="#D1986D"/>
<path d="M38.4053 44.1402C38.4053 44.1721 38.4053 44.2662 38.1364 44.2662H34.1194C33.8506 44.2662 33.8506 44.1721 33.8506 44.1402V44.0742H33.6055V45.0756H33.8513V45.0089C33.8513 44.9466 33.8728 44.9266 33.8928 44.9162C33.9654 44.8891 34.0429 44.878 34.1202 44.8836H35.6614V47.9396C35.6625 47.9544 35.6606 47.9693 35.6558 47.9833C35.6509 47.9973 35.6432 48.0102 35.6332 48.0212C35.6243 48.0308 35.594 48.0508 35.4977 48.0508H35.4325V48.2732H36.8263V48.0508H36.7604C36.6634 48.0508 36.633 48.0308 36.6249 48.0212C36.6144 48.0105 36.6063 47.9977 36.6011 47.9836C36.596 47.9696 36.594 47.9546 36.5952 47.9396V44.8836H38.1364C38.2139 44.878 38.2917 44.8891 38.3645 44.9162C38.3838 44.9266 38.4053 44.9459 38.4053 45.0089V45.0756H38.6519V44.0742H38.4053V44.1402Z" fill="#D1986D"/>
<path d="M45.7018 44.4823H45.7662C45.864 44.4823 45.8944 44.5038 45.9033 44.5127C45.9131 44.5239 45.9207 44.5369 45.9255 44.5511C45.9303 44.5652 45.9323 44.5801 45.9314 44.595V45.9121H42.6728V44.595C42.6715 44.5801 42.6733 44.565 42.6782 44.5509C42.683 44.5367 42.6908 44.5237 42.7009 44.5127C42.7098 44.5038 42.7402 44.4823 42.8364 44.4823H42.9016V44.2637H41.5078V44.4823H41.5737C41.6693 44.4823 41.6996 44.5038 41.7093 44.5127C41.7192 44.5238 41.7269 44.5369 41.7317 44.551C41.7365 44.5651 41.7385 44.5801 41.7374 44.595V47.9371C41.7384 47.9519 41.7364 47.9667 41.7316 47.9807C41.7268 47.9947 41.7192 48.0076 41.7093 48.0186C41.6996 48.0283 41.6693 48.0483 41.5737 48.0483H41.5078V48.2706H42.9016V48.0483H42.8364C42.7402 48.0483 42.7091 48.0283 42.7009 48.0186C42.6905 48.0079 42.6826 47.9951 42.6778 47.981C42.6729 47.9669 42.6712 47.9519 42.6728 47.9371V46.5288H45.9314V47.9371C45.9323 47.952 45.9301 47.9669 45.925 47.9809C45.92 47.995 45.912 48.0078 45.9018 48.0186C45.8936 48.0283 45.8633 48.0483 45.7655 48.0483H45.7011V48.2706H47.0949V48.0483H47.0297C46.9319 48.0483 46.9023 48.0283 46.8927 48.0186C46.8827 48.0077 46.8751 47.9948 46.8704 47.9808C46.8656 47.9667 46.8639 47.9518 46.8653 47.9371V44.595C46.8638 44.58 46.8655 44.565 46.8703 44.5508C46.8752 44.5366 46.8831 44.5236 46.8934 44.5127C46.9023 44.5023 46.9319 44.4823 47.029 44.4823H47.0941V44.2637H45.7003L45.7018 44.4823Z" fill="#D1986D"/>
<path d="M55.1038 44.7465C54.8172 44.564 54.5016 44.4317 54.1707 44.3551C53.4045 44.1811 52.6091 44.1811 51.843 44.3551C51.5119 44.4315 51.1964 44.5639 50.9098 44.7465C50.6545 44.9095 50.4409 45.1301 50.2862 45.3906C50.1394 45.6606 50.0625 45.963 50.0625 46.2704C50.0625 46.5778 50.1394 46.8803 50.2862 47.1502C50.4405 47.4101 50.6542 47.6296 50.9098 47.7906C51.1968 47.9706 51.5128 48.0995 51.8437 48.1716C52.6102 48.336 53.4027 48.336 54.1692 48.1716C54.5005 48.0999 54.8167 47.9709 55.1038 47.7906C55.3592 47.6295 55.5726 47.41 55.7267 47.1502C55.8741 46.8804 55.9513 46.5779 55.9513 46.2704C55.9513 45.9629 55.8741 45.6604 55.7267 45.3906C55.5722 45.1301 55.3589 44.9095 55.1038 44.7465ZM54.4736 47.297C54.0247 47.5466 53.5196 47.6776 53.0061 47.6776C52.4926 47.6776 51.9875 47.5466 51.5386 47.297C51.3819 47.1748 51.2552 47.0184 51.1681 46.8398C51.0809 46.6612 51.0356 46.4651 51.0356 46.2663C51.0356 46.0676 51.0809 45.8714 51.1681 45.6928C51.2552 45.5142 51.3819 45.3579 51.5386 45.2357C51.9876 44.9863 52.4926 44.8555 53.0061 44.8555C53.5196 44.8555 54.0246 44.9863 54.4736 45.2357C54.6307 45.3575 54.7579 45.5138 54.8454 45.6924C54.9329 45.8711 54.9784 46.0674 54.9784 46.2663C54.9784 46.4653 54.9329 46.6616 54.8454 46.8402C54.7579 47.0189 54.6307 47.1751 54.4736 47.297Z" fill="#D1986D"/>
<path d="M63.2246 44.4879H63.2875C63.3875 44.4879 63.4164 44.5109 63.4238 44.5183C63.4335 44.5295 63.4408 44.5426 63.4454 44.5567C63.45 44.5709 63.4517 44.5858 63.4504 44.6006V47.1074L60.5384 44.5509C60.5197 44.5373 60.5025 44.5217 60.4873 44.5042C60.5243 44.4923 60.5633 44.4878 60.6021 44.4909H60.668V44.2722H58.918V44.4909H58.9839C59.0802 44.4909 59.1098 44.5124 59.1179 44.5213C59.1285 44.532 59.1366 44.545 59.1417 44.5592C59.1469 44.5734 59.1488 44.5885 59.1476 44.6036V47.9456C59.1487 47.9605 59.1467 47.9754 59.1417 47.9895C59.1367 48.0035 59.1289 48.0164 59.1187 48.0272C59.1098 48.0368 59.0794 48.0568 58.9831 48.0568H58.918V48.2792H60.1962V48.0568H60.1318C60.0355 48.0568 60.0044 48.0368 59.9963 48.0294C59.9863 48.018 59.9786 48.0047 59.9738 47.9904C59.969 47.976 59.967 47.9608 59.9681 47.9456V45.0861L63.2571 47.9657C63.2768 47.9877 63.2984 48.0081 63.3216 48.0264C63.3268 48.0317 63.3313 48.0377 63.3349 48.0442C63.2945 48.0542 63.2528 48.0582 63.2112 48.0561H63.146V48.2785H64.5006V48.0561H64.4362C64.3391 48.0561 64.3088 48.0361 64.3006 48.0264C64.2901 48.0158 64.2821 48.003 64.2771 47.9889C64.2721 47.9748 64.2703 47.9598 64.2718 47.9449V44.6028C64.27 44.5877 64.2718 44.5725 64.277 44.5582C64.2821 44.5439 64.2904 44.5311 64.3014 44.5206C64.3088 44.5102 64.3391 44.4902 64.4362 44.4902H64.5006V44.2715H63.2216L63.2246 44.4879Z" fill="#D1986D"/>
<path d="M70.7951 46.0436V45.9792H70.5499V46.9791H70.7951V46.9131C70.7951 46.8286 70.9639 46.816 71.0639 46.816H72.0993V47.2681C71.8558 47.3978 71.5964 47.4948 71.3276 47.5565C70.9637 47.6428 70.5906 47.6841 70.2167 47.6795C69.9737 47.6802 69.7318 47.6478 69.4975 47.5832C69.2808 47.5247 69.0752 47.431 68.8888 47.3059C68.7186 47.1894 68.5754 47.0378 68.4689 46.8612C68.3607 46.6791 68.3058 46.4704 68.3104 46.2586C68.3101 46.0759 68.3488 45.8953 68.4237 45.7286C68.5055 45.5546 68.627 45.4023 68.7784 45.2839C68.9656 45.1429 69.177 45.0372 69.402 44.9719C69.6974 44.8878 70.0037 44.8481 70.3107 44.854C70.5569 44.8526 70.8026 44.8747 71.0446 44.92C71.2447 44.9558 71.4412 45.0092 71.6319 45.0793C71.7663 45.1269 71.8951 45.1888 72.0163 45.2639C72.1252 45.338 72.1304 45.3706 72.1304 45.3706C72.1304 45.3973 72.1215 45.4055 72.1185 45.4077L72.0363 45.4707L72.2874 45.6004L73.0472 44.7399L72.8102 44.6183L72.7762 44.6606C72.7616 44.6792 72.7447 44.6959 72.7258 44.7102C72.7258 44.7102 72.7088 44.7213 72.6569 44.7213C72.5843 44.7149 72.5141 44.6918 72.4518 44.6539C72.3146 44.5852 72.1728 44.526 72.0274 44.4767C71.8009 44.4003 71.5689 44.3411 71.3335 44.2996C70.9907 44.2443 70.6438 44.2195 70.2967 44.2255C69.9087 44.2223 69.5223 44.2752 69.1495 44.3826C68.8225 44.4768 68.5137 44.6257 68.2363 44.8229C67.988 45 67.7796 45.2272 67.6246 45.49C67.4769 45.7431 67.4002 46.0314 67.4024 46.3246C67.4001 46.6127 67.48 46.8956 67.6327 47.1399C67.7944 47.3935 68.0104 47.608 68.2652 47.7677C68.5568 47.9511 68.8769 48.0846 69.2124 48.1628C69.6006 48.2551 69.9984 48.3001 70.3974 48.2969C70.8485 48.2909 71.2977 48.2362 71.7371 48.1339C72.2432 48.015 72.7267 47.8147 73.1687 47.5409L73.199 47.5209V47.3393L73.1443 47.3304C73.1088 47.329 73.0744 47.3177 73.045 47.2978C73.045 47.2978 73.0272 47.2785 73.0272 47.1814V46.5418C73.0236 46.5039 73.0281 46.4657 73.0406 46.4298C73.0697 46.4163 73.102 46.4111 73.1339 46.415H73.199V46.1926H71.0624C70.7951 46.1986 70.7951 46.0903 70.7951 46.0436Z" fill="#D1986D"/>
<path d="M80.815 47.4953C80.815 47.5369 80.815 47.6502 80.5461 47.6502H77.3971V44.6232C77.3934 44.5842 77.4045 44.5453 77.4282 44.5142C77.4371 44.5053 77.4667 44.4823 77.5623 44.4823H77.6274V44.2637H76.2351V44.4823H76.3003C76.3966 44.4823 76.4262 44.5023 76.4358 44.5127C76.4459 44.5238 76.4535 44.5368 76.4584 44.5509C76.4632 44.5651 76.4651 44.5801 76.464 44.595V47.9371C76.4648 47.9523 76.4626 47.9676 76.4576 47.982C76.4525 47.9963 76.4446 48.0096 76.4343 48.0208C76.4254 48.0283 76.3958 48.0483 76.2996 48.0483H76.2344V48.2706H80.5461C80.712 48.2706 80.815 48.2995 80.815 48.3448V48.4093H81.0601V47.4316H80.815V47.4953Z" fill="#D1986D"/>
<path d="M88.3201 44.7465C88.0329 44.5642 87.7169 44.4319 87.3855 44.3551C86.6193 44.1811 85.824 44.1811 85.0578 44.3551C84.7271 44.4317 84.4118 44.564 84.1254 44.7465C83.87 44.9096 83.6562 45.1302 83.5011 45.3906C83.3543 45.6606 83.2773 45.963 83.2773 46.2704C83.2773 46.5778 83.3543 46.8803 83.5011 47.1502C83.6558 47.41 83.8697 47.6295 84.1254 47.7906C84.4121 47.9712 84.7281 48.1002 85.0593 48.1716C85.8255 48.336 86.6178 48.336 87.384 48.1716C87.7154 48.0995 88.0319 47.9706 88.3194 47.7906C88.5745 47.6292 88.7879 47.4098 88.9422 47.1502C89.0896 46.8804 89.1669 46.5779 89.1669 46.2704C89.1669 45.9629 89.0896 45.6604 88.9422 45.3906C88.7876 45.1305 88.5746 44.91 88.3201 44.7465ZM87.6884 47.297C87.2396 47.5465 86.7347 47.6775 86.2213 47.6775C85.7079 47.6775 85.203 47.5465 84.7542 47.297C84.5975 47.1748 84.4708 47.0184 84.3836 46.8398C84.2965 46.6612 84.2512 46.4651 84.2512 46.2663C84.2512 46.0676 84.2965 45.8714 84.3836 45.6928C84.4708 45.5142 84.5975 45.3579 84.7542 45.2357C85.203 44.9864 85.7079 44.8556 86.2213 44.8556C86.7346 44.8556 87.2395 44.9864 87.6884 45.2357C87.8455 45.3575 87.9727 45.5138 88.0603 45.6924C88.1478 45.8711 88.1933 46.0674 88.1933 46.2663C88.1933 46.4653 88.1478 46.6616 88.0603 46.8402C87.9727 47.0189 87.8455 47.1751 87.6884 47.297Z" fill="#D1986D"/>
<path d="M97.3304 48.0497C97.2715 48.0547 97.2123 48.0453 97.1578 48.0222C97.1024 47.9821 97.0526 47.9347 97.0097 47.8814L95.9662 46.5391C96.3087 46.5151 96.6373 46.3946 96.9142 46.1914C97.0258 46.0942 97.1142 45.9732 97.1728 45.8372C97.2314 45.7012 97.2587 45.5537 97.2526 45.4058C97.2601 45.2374 97.2234 45.07 97.1461 44.9203C97.0687 44.7706 96.9536 44.6438 96.812 44.5526C96.3835 44.3271 95.9 44.2276 95.4174 44.2658H92.1484V44.4844H92.2136C92.3099 44.4844 92.341 44.5059 92.3491 44.5148C92.3591 44.5259 92.3667 44.539 92.3714 44.5531C92.3761 44.5673 92.3779 44.5822 92.3766 44.5971V47.9392C92.3778 47.9539 92.376 47.9688 92.3713 47.9828C92.3666 47.9968 92.359 48.0098 92.3491 48.0207C92.3402 48.0304 92.3092 48.0504 92.2136 48.0504H92.1484V48.2728H93.5423V48.0504H93.4763C93.3801 48.0504 93.349 48.0304 93.3408 48.023C93.3207 47.9998 93.3104 47.9698 93.3119 47.9392V46.5909H94.9724L96.0832 48.0415C96.0398 48.0495 95.9956 48.0525 95.9514 48.0504H95.8862V48.2728H97.3948V48.0504L97.3304 48.0497ZM93.3097 45.958V44.898H95.2915C95.4723 44.8955 95.6529 44.9059 95.8322 44.9292C95.9423 44.9433 96.0493 44.9754 96.1492 45.024C96.2128 45.0568 96.2646 45.1086 96.2973 45.1723C96.3265 45.2427 96.3404 45.3185 96.338 45.3947C96.3409 45.4755 96.3229 45.5558 96.2858 45.6277C96.2487 45.6996 96.1937 45.7608 96.1262 45.8053C95.8854 45.9307 95.6139 45.9849 95.3434 45.9617L93.3097 45.958Z" fill="#D1986D"/>
</svg>
