<svg width="26" height="25" viewBox="0 0 26 25" fill="none" xmlns="http://www.w3.org/2000/svg">
<path d="M3.60742 6.25H5.69076H22.3574" stroke="#1D1C1C" stroke-linecap="round" stroke-linejoin="round"/>
<path d="M8.81574 6.2487V4.16536C8.81574 3.61283 9.03523 3.08293 9.42593 2.69223C9.81663 2.30152 10.3465 2.08203 10.8991 2.08203H15.0657C15.6183 2.08203 16.1482 2.30152 16.5389 2.69223C16.9296 3.08293 17.1491 3.61283 17.1491 4.16536V6.2487M20.2741 6.2487V20.832C20.2741 21.3846 20.0546 21.9145 19.6639 22.3052C19.2732 22.6959 18.7433 22.9154 18.1907 22.9154H7.77407C7.22153 22.9154 6.69163 22.6959 6.30093 22.3052C5.91023 21.9145 5.69073 21.3846 5.69073 20.832V6.2487H20.2741Z" stroke="#1D1C1C" stroke-linecap="round" stroke-linejoin="round"/>
<path d="M10.8991 11.457V17.707" stroke="#1D1C1C" stroke-linecap="round" stroke-linejoin="round"/>
<path d="M15.0657 11.457V17.707" stroke="#1D1C1C" stroke-linecap="round" stroke-linejoin="round"/>
</svg>
