<svg width="26" height="25" viewBox="0 0 26 25" fill="none" xmlns="http://www.w3.org/2000/svg">
<path d="M3.60938 6.25H5.69271H22.3594" stroke="#1D1C1C" stroke-linecap="round" stroke-linejoin="round"/>
<path d="M8.82031 6.2487V4.16536C8.82031 3.61283 9.03981 3.08293 9.43051 2.69223C9.82121 2.30152 10.3511 2.08203 10.9036 2.08203H15.0703C15.6228 2.08203 16.1528 2.30152 16.5435 2.69223C16.9342 3.08293 17.1536 3.61283 17.1536 4.16536V6.2487M20.2787 6.2487V20.832C20.2787 21.3846 20.0592 21.9145 19.6685 22.3052C19.2778 22.6959 18.7479 22.9154 18.1953 22.9154H7.77865C7.22611 22.9154 6.69621 22.6959 6.30551 22.3052C5.91481 21.9145 5.69531 21.3846 5.69531 20.832V6.2487H20.2787Z" stroke="#1D1C1C" stroke-linecap="round" stroke-linejoin="round"/>
<path d="M10.8984 11.457V17.707" stroke="#1D1C1C" stroke-linecap="round" stroke-linejoin="round"/>
<path d="M15.0703 11.457V17.707" stroke="#1D1C1C" stroke-linecap="round" stroke-linejoin="round"/>
</svg>
