<svg width="27" height="27" viewBox="0 0 27 27" fill="none" xmlns="http://www.w3.org/2000/svg">
<path d="M12.9375 3.375C15.772 3.375 18.4904 4.501 20.4947 6.5053C22.499 8.50959 23.625 11.228 23.625 14.0625C23.625 16.897 22.499 19.6154 20.4947 21.6197C18.4904 23.624 15.772 24.75 12.9375 24.75C10.103 24.75 7.38459 23.624 5.3803 21.6197C3.376 19.6154 2.25 16.897 2.25 14.0625C2.25 11.228 3.376 8.50959 5.3803 6.5053C7.38459 4.501 10.103 3.375 12.9375 3.375ZM12.9375 4.5C10.4014 4.5 7.96911 5.50747 6.17579 7.30079C4.38247 9.09411 3.375 11.5264 3.375 14.0625C3.375 16.5986 4.38247 19.0309 6.17579 20.8242C7.96911 22.6175 10.4014 23.625 12.9375 23.625C15.4736 23.625 17.9059 22.6175 19.6992 20.8242C21.4925 19.0309 22.5 16.5986 22.5 14.0625C22.5 11.5264 21.4925 9.09411 19.6992 7.30079C17.9059 5.50747 15.4736 4.5 12.9375 4.5ZM12.375 9V11.25H13.5V9H12.375ZM12.375 13.5V19.125H13.5V13.5H12.375Z" fill="#222222"/>
</svg>
