<svg width="19" height="17" viewBox="0 0 19 17" fill="none" xmlns="http://www.w3.org/2000/svg">
<path d="M5.87763 10.8164H2.81738L3.96053 14.969C4.04308 15.2771 4.22518 15.5493 4.47848 15.7432C4.73179 15.9371 5.0421 16.0418 5.3611 16.041C5.59049 16.0434 5.81724 15.9919 6.02313 15.8907C6.22902 15.7895 6.40831 15.6415 6.54658 15.4584C6.6862 15.2838 6.78045 15.0774 6.82093 14.8576C6.86142 14.6377 6.84687 14.4113 6.77859 14.1984L5.87763 10.8164Z" stroke="#F5F4EC" stroke-miterlimit="10"/>
<path d="M15.9728 5.45312H15.8271V9.65143H15.9728C16.8805 9.65143 17.6155 8.71151 17.6155 7.55312C17.6155 6.39474 16.8856 5.45312 15.9728 5.45312Z" stroke="#F5F4EC" stroke-miterlimit="10"/>
<path d="M1.37109 5.96582V9.2784C1.38343 9.69099 1.55604 10.0825 1.8523 10.3699C2.14857 10.6574 2.54518 10.818 2.95795 10.8178H7.20368V4.51953H2.95795C2.11795 4.51953 1.37109 5.12582 1.37109 5.96582Z" stroke="#F5F4EC" stroke-miterlimit="10"/>
<path d="M7.2002 10.9115L15.8322 14.3646V0.878906L7.2002 4.33205V10.9115Z" stroke="#F5F4EC" stroke-miterlimit="10"/>
</svg>
