<svg width="35" height="42" viewBox="0 0 35 42" fill="none" xmlns="http://www.w3.org/2000/svg">
<path d="M16.0083 41.1085C14.4352 41.1066 12.9268 40.4804 11.8135 39.3676C10.7021 38.2547 10.0751 36.746 10.0732 35.172C10.0732 34.8572 10.1987 34.555 10.4209 34.3323C10.6432 34.1096 10.9453 33.9844 11.2606 33.9844C11.576 33.9844 11.8781 34.1096 12.1004 34.3323C12.3226 34.555 12.448 34.8572 12.448 35.172C12.448 36.1169 12.8242 37.0229 13.491 37.6908C14.1597 38.359 15.064 38.7343 16.0101 38.7343C16.9543 38.7343 17.8605 38.359 18.5274 37.6908C19.1961 37.0229 19.5704 36.1169 19.5704 35.172C19.5704 34.8572 19.6957 34.555 19.918 34.3323C20.1403 34.1096 20.4424 33.9844 20.7578 33.9844C21.0731 33.9844 21.3752 34.1096 21.5974 34.3323C21.8197 34.555 21.9451 34.8572 21.9451 35.172C21.9432 36.7462 21.3163 38.2554 20.2049 39.3682C19.0916 40.4812 17.5813 41.107 16.0083 41.1085Z" fill="#D8AA81"/>
<path d="M29.5001 32.9587H3.39306C2.82692 32.9585 2.27596 32.7849 1.81051 32.4612C1.34696 32.1376 0.9936 31.6797 0.796021 31.1487C0.600341 30.6178 0.571845 30.0395 0.71433 29.4919C0.856816 28.944 1.16269 28.453 1.59205 28.0845C1.63194 28.05 1.67561 28.0182 1.71931 27.9895C2.86679 26.9908 3.78632 25.7573 4.41705 24.3726C5.04589 22.988 5.37263 21.4844 5.37263 19.9628V15.5466C5.36313 13.0565 6.19715 10.6363 7.73979 8.6815C9.28243 6.72669 11.4406 5.35261 13.8647 4.78348C14.1687 4.71944 14.4841 4.77626 14.7462 4.94234C15.0084 5.10824 15.1946 5.37009 15.2668 5.67186C15.3371 5.97343 15.2877 6.29115 15.1281 6.557C14.9685 6.82285 14.712 7.01553 14.4119 7.0942C12.5083 7.54058 10.8118 8.61955 9.60162 10.155C8.38954 11.6902 7.73602 13.591 7.74362 15.5466V19.9628C7.74362 21.8519 7.33325 23.7181 6.53914 25.4323C5.74692 27.1466 4.58995 28.6675 3.1499 29.8898C3.1252 29.9088 3.10617 29.9259 3.07957 29.943C3.02448 30.0129 2.99597 30.0994 2.99597 30.1881C2.99787 30.2927 3.03969 30.3922 3.11378 30.4662C3.18787 30.5399 3.28665 30.5821 3.39114 30.5834H29.5001C29.6046 30.5821 29.7034 30.5399 29.7775 30.4662C29.8516 30.3922 29.8933 30.2927 29.8952 30.1881C29.8971 30.099 29.8668 30.0122 29.8098 29.943L29.7414 29.8898C28.3355 28.6978 27.2032 27.2184 26.4167 25.5515C26.2818 25.267 26.2667 24.9407 26.3731 24.6445C26.4776 24.3481 26.6979 24.1061 26.9829 23.9714C27.2659 23.8369 27.5927 23.8209 27.8891 23.927C28.1854 24.033 28.4267 24.2523 28.5616 24.5367C29.1866 25.8572 30.0758 27.0343 31.1776 27.9933C31.2194 28.0211 31.2593 28.0507 31.2973 28.0826C31.7286 28.4502 32.0363 28.9412 32.1807 29.4892C32.3232 30.0373 32.2947 30.6163 32.099 31.1478C31.9033 31.6795 31.55 32.138 31.0845 32.462C30.6191 32.7858 30.0663 32.9593 29.5001 32.9587Z" fill="#D8AA81"/>
<path d="M26.7054 16.2159C30.942 16.2159 34.3758 12.7817 34.3758 8.54545C34.3758 4.30919 30.942 0.875 26.7054 0.875C22.4687 0.875 19.0349 4.30919 19.0349 8.54545C19.0349 12.7817 22.4687 16.2159 26.7054 16.2159Z" fill="#F51B1B"/>
</svg>
