<svg width="36" height="36" viewBox="0 0 36 36" fill="none" xmlns="http://www.w3.org/2000/svg">
<path d="M2.95 28.5783V28.5784V29.9384C2.95 30.2302 3.0659 30.51 3.27219 30.7163C3.47848 30.9225 3.75826 31.0384 4.05 31.0384H31.85C32.1417 31.0384 32.4215 30.9225 32.6278 30.7163C32.8341 30.51 32.95 30.2302 32.95 29.9384V28.5784V28.5783C32.9498 28.4221 32.9164 28.2678 32.8519 28.1255C32.7874 27.9833 32.6934 27.8565 32.5762 27.7535C31.62 26.901 30.7827 25.9239 30.0867 24.8484C29.329 23.3651 28.8745 21.7457 28.75 20.0847V15.1487C28.7567 12.4899 27.7922 9.92024 26.0379 7.92243C24.3029 5.94668 21.9135 4.66475 19.31 4.31076V3.10844C19.31 2.72785 19.1588 2.36285 18.8897 2.09374C18.6206 1.82462 18.2556 1.67344 17.875 1.67344C17.4944 1.67344 17.1294 1.82462 16.8603 2.09374C16.5912 2.36285 16.44 2.72785 16.44 3.10844V4.33166C13.8599 4.70926 11.4993 5.99876 9.78707 7.96793C8.05576 9.95903 7.10468 12.5101 7.11 15.1486V20.0847C6.98547 21.7458 6.53098 23.3654 5.77312 24.8487C5.08942 25.9218 4.26556 26.8988 3.32336 27.7539C3.20633 27.8569 3.11251 27.9835 3.04814 28.1255C2.98366 28.2678 2.9502 28.4221 2.95 28.5783ZM28.2554 25.9918C28.9064 27.0233 29.6712 27.9782 30.5352 28.8384H5.37478C6.23881 27.9782 7.00359 27.0233 7.65457 25.9918L7.6548 25.9919L7.65824 25.9855C8.62962 24.1643 9.19639 22.1548 9.31982 20.0944L9.32 20.0944V20.0884V15.1484H9.32006L9.31995 15.1451C9.28074 13.9865 9.47507 12.8319 9.89138 11.75C10.3077 10.6681 10.9374 9.68108 11.7431 8.84764C12.5489 8.01421 13.514 7.35143 14.5812 6.89877C15.6484 6.44612 16.7958 6.21284 17.955 6.21284C19.1142 6.21284 20.2616 6.44612 21.3288 6.89877C22.396 7.35143 23.3612 8.01421 24.1669 8.84764C24.9726 9.68108 25.6023 10.6681 26.0186 11.75C26.4349 12.8319 26.6293 13.9865 26.5901 15.1451L26.59 15.1451V15.1484V20.0884H26.5898L26.5902 20.0944C26.7136 22.1548 27.2804 24.1643 28.2518 25.9855L28.2515 25.9856L28.2554 25.9918Z" fill="#706F6C" stroke="#706F6C" stroke-width="0.2"/>
<path d="M18 34.28C18.6299 34.2655 19.2345 34.0287 19.7066 33.6114C20.1788 33.1942 20.4881 32.6234 20.58 32H15.32C15.4145 32.6403 15.7383 33.2245 16.2313 33.6439C16.7243 34.0633 17.3528 34.2894 18 34.28Z" fill="#706F6C"/>
</svg>
