<svg width="36" height="36" viewBox="0 0 36 36" fill="none" xmlns="http://www.w3.org/2000/svg">
<path d="M16.8408 35.1282C17.4892 35.1133 18.1115 34.8695 18.5975 34.44C19.0835 34.0105 19.402 33.4229 19.4966 32.7812H14.082C14.1793 33.4404 14.5126 34.0417 15.0201 34.4735C15.5276 34.9052 16.1746 35.1379 16.8408 35.1282Z" fill="#706F6C"/>
<path d="M31.7772 28.4904C30.7846 27.6055 29.9155 26.591 29.1935 25.4743C28.4052 23.9329 27.9327 22.2495 27.8038 20.523V15.4379C27.7996 14.8202 27.7445 14.2039 27.6391 13.5953C26.8289 13.4333 26.0502 13.1413 25.3333 12.7306C25.6066 13.6106 25.7454 14.5268 25.745 15.4482V20.5333C25.8712 22.6395 26.4506 24.6935 27.4435 26.5552C28.1542 27.6813 28.9975 28.7181 29.9552 29.6433H3.59277C4.55052 28.7181 5.39377 27.6813 6.10446 26.5552C7.09741 24.6935 7.67677 22.6395 7.80294 20.5333V15.4379C7.79752 14.2466 8.02715 13.0659 8.47867 11.9634C8.93019 10.861 9.59474 9.85843 10.4343 9.01317C11.2738 8.16791 12.2718 7.49655 13.3711 7.03754C14.4705 6.57852 15.6496 6.34086 16.8409 6.33816C18.5844 6.33956 20.2888 6.85517 21.7408 7.82047C21.5807 7.23268 21.4908 6.62799 21.4731 6.01905V5.37054C20.3983 4.84181 19.2436 4.49402 18.0556 4.34116V3.04414C18.0556 2.67968 17.9108 2.33014 17.6531 2.07242C17.3954 1.81471 17.0458 1.66992 16.6813 1.66992C16.3169 1.66992 15.9673 1.81471 15.7096 2.07242C15.4519 2.33014 15.3071 2.67968 15.3071 3.04414V4.39263C12.6469 4.7679 10.2123 6.09291 8.4527 8.12304C6.69313 10.1532 5.72743 12.7513 5.73388 15.4379V20.523C5.60496 22.2495 5.1325 23.9329 4.34422 25.4743C3.63486 26.5885 2.77976 27.6028 1.80165 28.4904C1.69185 28.5869 1.60385 28.7056 1.5435 28.8387C1.48315 28.9719 1.45185 29.1163 1.45166 29.2625V30.6624C1.45166 30.9354 1.56011 31.1973 1.75316 31.3903C1.9462 31.5833 2.20803 31.6918 2.48104 31.6918H31.0978C31.3708 31.6918 31.6327 31.5833 31.8257 31.3903C32.0187 31.1973 32.1272 30.9354 32.1272 30.6624V29.2625C32.127 29.1163 32.0957 28.9719 32.0354 28.8387C31.975 28.7056 31.887 28.5869 31.7772 28.4904Z" fill="#706F6C"/>
<path d="M29.1933 11.1649C32.0358 11.1649 34.3402 8.86055 34.3402 6.018C34.3402 3.17544 32.0358 0.871094 29.1933 0.871094C26.3507 0.871094 24.0464 3.17544 24.0464 6.018C24.0464 8.86055 26.3507 11.1649 29.1933 11.1649Z" fill="#F51B1B"/>
</svg>
