<svg width="17" height="17" viewBox="0 0 17 17" fill="none" xmlns="http://www.w3.org/2000/svg">
<path d="M8.18826 16.2221H0.878906V9.15322C0.881302 9.09427 0.895301 9.03636 0.920098 8.98283C0.944895 8.92929 0.980003 8.88117 1.02342 8.84122C1.06683 8.80126 1.1177 8.77026 1.17311 8.74999C1.22851 8.72971 1.28738 8.72056 1.34633 8.72306H8.18826" stroke="#F5F4EC" stroke-miterlimit="10"/>
<path d="M8.00699 16.19V16.2205H16.0988V1.51368C16.1008 1.41026 16.0824 1.30745 16.0447 1.21113C16.007 1.11481 15.9507 1.02687 15.8789 0.952326C15.8072 0.87778 15.7215 0.818094 15.6267 0.776676C15.532 0.735258 15.4299 0.71292 15.3265 0.710938H8.75385C8.65376 0.712919 8.55505 0.734601 8.46334 0.774743C8.37164 0.814884 8.28874 0.872699 8.21938 0.944886C8.15003 1.01707 8.09557 1.10222 8.05913 1.19545C8.02269 1.28869 8.00497 1.38819 8.00699 1.48828V7.21078" stroke="#F5F4EC" stroke-miterlimit="10"/>
<path d="M3.21101 10.6836H6.62182C6.69773 10.6836 6.77053 10.7137 6.8242 10.7674C6.87788 10.8211 6.90803 10.8939 6.90803 10.9698V16.2198H2.9248V10.9698C2.9248 10.8939 2.95496 10.8211 3.00863 10.7674C3.06231 10.7137 3.13511 10.6836 3.21101 10.6836Z" stroke="#F5F4EC" stroke-linecap="round" stroke-linejoin="round"/>
<path d="M11.086 3.30078H10.1817C10.0937 3.30078 10.0225 3.37206 10.0225 3.45998V4.36433C10.0225 4.45225 10.0937 4.52352 10.1817 4.52352H11.086C11.1739 4.52352 11.2452 4.45225 11.2452 4.36433V3.45998C11.2452 3.37206 11.1739 3.30078 11.086 3.30078Z" fill="#F5F4EC"/>
<path d="M13.9366 3.30078H13.0322C12.9443 3.30078 12.873 3.37206 12.873 3.45998V4.36433C12.873 4.45225 12.9443 4.52352 13.0322 4.52352H13.9366C14.0245 4.52352 14.0958 4.45225 14.0958 4.36433V3.45998C14.0958 3.37206 14.0245 3.30078 13.9366 3.30078Z" fill="#F5F4EC"/>
<path d="M11.086 7.39062H10.1817C10.0937 7.39062 10.0225 7.4619 10.0225 7.54982V8.45417C10.0225 8.5421 10.0937 8.61337 10.1817 8.61337H11.086C11.1739 8.61337 11.2452 8.5421 11.2452 8.45417V7.54982C11.2452 7.4619 11.1739 7.39062 11.086 7.39062Z" fill="#F5F4EC"/>
<path d="M13.9366 7.39062H13.0322C12.9443 7.39062 12.873 7.4619 12.873 7.54982V8.45417C12.873 8.5421 12.9443 8.61337 13.0322 8.61337H13.9366C14.0245 8.61337 14.0958 8.5421 14.0958 8.45417V7.54982C14.0958 7.4619 14.0245 7.39062 13.9366 7.39062Z" fill="#F5F4EC"/>
<path d="M11.086 11.7031H10.1817C10.0937 11.7031 10.0225 11.7744 10.0225 11.8623V12.7667C10.0225 12.8546 10.0937 12.9259 10.1817 12.9259H11.086C11.1739 12.9259 11.2452 12.8546 11.2452 12.7667V11.8623C11.2452 11.7744 11.1739 11.7031 11.086 11.7031Z" fill="#F5F4EC"/>
<path d="M13.9366 11.7031H13.0322C12.9443 11.7031 12.873 11.7744 12.873 11.8623V12.7667C12.873 12.8546 12.9443 12.9259 13.0322 12.9259H13.9366C14.0245 12.9259 14.0958 12.8546 14.0958 12.7667V11.8623C14.0958 11.7744 14.0245 11.7031 13.9366 11.7031Z" fill="#F5F4EC"/>
<path d="M8.00586 8.96928V6.58984" stroke="#F5F4EC" stroke-miterlimit="10"/>
</svg>
