<svg width="20" height="20" viewBox="0 0 20 20" fill="none" xmlns="http://www.w3.org/2000/svg">
<path d="M12.3722 13.2824C11.8265 12.9625 11.114 13.0598 10.6779 13.5138C10.1913 14.0201 9.73468 14.2708 9.28187 14.2801C8.85481 14.2901 8.40842 14.0729 7.95288 13.6381L6.66718 12.4109C6.21159 11.9761 5.98527 11.5493 5.99444 11.1424C6.00422 10.7102 6.26688 10.2743 6.79737 9.81001C7.27293 9.39376 7.37488 8.71364 7.03985 8.19287C6.08816 6.71369 4.86082 5.80932 3.9988 5.31116C3.46704 5.00378 2.78788 5.08319 2.34714 5.50397L1.06165 6.73088C0.34209 7.41767 -0.0149497 8.22849 0.000479442 9.14079C0.0369855 11.3039 2.17894 13.2743 2.32844 13.4091L3.3617 14.3953C3.52156 14.5478 3.78062 14.5478 3.94052 14.3953C4.10034 14.2428 4.10034 13.9955 3.94052 13.8429L2.90288 12.8525C2.89993 12.8497 2.8967 12.8468 2.89359 12.844C2.87317 12.8256 0.848714 10.9872 0.818838 9.12603C0.807584 8.42447 1.0763 7.82166 1.64043 7.28326L2.92592 6.05635C3.09957 5.89057 3.36641 5.85893 3.5748 5.9794C4.2171 6.35065 5.43076 7.18494 6.34231 8.60173C6.47266 8.80435 6.43136 9.07032 6.24413 9.23423C5.5501 9.84176 5.19077 10.4781 5.17608 11.1255C5.16184 11.7537 5.46878 12.372 6.08832 12.9634L7.37402 14.1905C7.99356 14.7819 8.64019 15.0756 9.29951 15.0612C9.97786 15.0472 10.6445 14.7042 11.2811 14.0418C11.4528 13.8631 11.7315 13.8236 11.9438 13.9481C13.4281 14.8181 14.3022 15.9765 14.6912 16.5895C14.8174 16.7885 14.7842 17.0432 14.6106 17.2089L13.3251 18.4358C12.761 18.9742 12.1289 19.2291 11.3944 19.22C9.44443 19.1915 7.51832 17.2592 7.49929 17.2399C7.4963 17.2369 7.49328 17.2339 7.49012 17.2309L6.48346 16.2701C6.32361 16.1176 6.06454 16.1176 5.90465 16.2701C5.74483 16.4226 5.74483 16.67 5.90465 16.8226L6.90693 17.7792C7.0482 17.9218 9.11264 19.9662 11.3789 20.0011C11.3987 20.0014 11.4184 20.0016 11.4381 20.0016C12.3698 20.0016 13.1992 19.6608 13.9038 18.9883L15.1893 17.7614C15.6301 17.3406 15.7132 16.6923 15.3913 16.1849C14.8694 15.3621 13.9218 14.1907 12.3722 13.2824V13.2824Z" fill="#F5F4EC"/>
<path d="M14.5658 0C11.5695 0 9.13184 2.32667 9.13184 5.18646C9.13184 6.32669 9.50946 7.40258 10.2253 8.30695V10.6388C10.2253 10.9072 10.516 11.0995 10.7797 11.0041L13.0727 10.1745C13.5567 10.3063 14.0582 10.373 14.5658 10.373C17.5621 10.373 19.9997 8.04633 19.9997 5.1865C19.9998 2.32667 17.5621 0 14.5658 0V0ZM14.5658 9.59175C14.0931 9.59175 13.6269 9.52378 13.18 9.38964C13.0924 9.36343 12.9981 9.36597 12.9122 9.39703L11.0439 10.073V8.18805C11.0475 8.09531 11.0164 8.00359 10.9549 7.93008C10.2977 7.14329 9.95036 6.19458 9.95036 5.1865C9.95036 2.75745 12.0209 0.781246 14.5658 0.781246C17.1107 0.781246 19.1812 2.75745 19.1812 5.18646C19.1812 7.61555 17.1107 9.59175 14.5658 9.59175V9.59175Z" fill="#F5F4EC"/>
<path d="M14.6202 2.39453C14.3942 2.39453 14.211 2.56945 14.211 2.78515L14.2109 5.74139C14.2109 5.95709 14.3942 6.13201 14.6202 6.13201C14.8462 6.13201 15.0295 5.95709 15.0295 5.74139L15.0295 2.78515C15.0295 2.56941 14.8463 2.39453 14.6202 2.39453V2.39453Z" fill="#F5F4EC"/>
<path d="M14.9982 7.38481C14.9124 7.18821 14.6698 7.09219 14.4636 7.17348C14.2574 7.25477 14.1572 7.48711 14.2422 7.68364C14.3273 7.88031 14.5708 7.97664 14.7767 7.89496C14.9831 7.81309 15.0829 7.58188 14.9982 7.38481Z" fill="#F5F4EC"/>
<path d="M5.28836 15.1701C5.20258 14.9737 4.96025 14.8771 4.75382 14.9588C4.54805 15.0402 4.44684 15.2723 4.53245 15.4689C4.61799 15.6654 4.86085 15.7619 5.06695 15.6803C5.2726 15.5987 5.3741 15.3667 5.28836 15.1701V15.1701Z" fill="#F5F4EC"/>
</svg>
