<svg width="27" height="27" viewBox="0 0 27 27" fill="none" xmlns="http://www.w3.org/2000/svg">
<path d="M13.5 26.5C20.6797 26.5 26.5 20.6797 26.5 13.5C26.5 6.3203 20.6797 0.5 13.5 0.5C6.3203 0.5 0.5 6.3203 0.5 13.5C0.5 20.6797 6.3203 26.5 13.5 26.5Z" stroke="#18152D"/>
<path d="M7.16665 7.16675H19.8333C20.7041 7.16675 21.4166 7.87925 21.4166 8.75008V18.2501C21.4166 19.1209 20.7041 19.8334 19.8333 19.8334H7.16665C6.29581 19.8334 5.58331 19.1209 5.58331 18.2501V8.75008C5.58331 7.87925 6.29581 7.16675 7.16665 7.16675Z" stroke="#18152D" stroke-linecap="round" stroke-linejoin="round"/>
<path d="M21.4166 8.75L13.5 14.2917L5.58331 8.75" stroke="#18152D" stroke-linecap="round" stroke-linejoin="round"/>
</svg>
