<svg width="20" height="19" viewBox="0 0 20 19" fill="none" xmlns="http://www.w3.org/2000/svg">
<path d="M18.7441 8.14341V3.5149C18.6403 2.91052 18.3257 2.36331 17.8568 1.97043C17.388 1.57817 16.7954 1.36605 16.1851 1.3722L3.54492 1.41031C3.54492 1.41031 1 1.45766 1 3.68522V15.4286C1 15.4286 1.08506 17.6574 2.87672 17.6574H9.01906" stroke="white" stroke-width="1.3" stroke-miterlimit="10"/>
<path d="M4.96631 0.0849609H4.96569C4.75379 0.0849609 4.58203 0.257739 4.58203 0.470474V2.52833C4.58203 2.74106 4.75379 2.91384 4.96569 2.91384H4.96631C5.17821 2.91384 5.34997 2.74106 5.34997 2.52833V0.470474C5.34997 0.257739 5.17821 0.0849609 4.96631 0.0849609Z" fill="white"/>
<path d="M9.82959 0.0849609H9.82898C9.61707 0.0849609 9.44531 0.257739 9.44531 0.470474V2.52833C9.44531 2.74106 9.61707 2.91384 9.82898 2.91384H9.82959C10.0415 2.91384 10.2133 2.74106 10.2133 2.52833V0.470474C10.2133 0.257739 10.0415 0.0849609 9.82959 0.0849609Z" fill="white"/>
<path d="M14.7788 0H14.7782C14.5664 0 14.3945 0.172778 14.3945 0.385513V2.44337C14.3945 2.6561 14.5664 2.82888 14.7782 2.82888H14.7788C14.9907 2.82888 15.1625 2.6561 15.1625 2.44337V0.385513C15.1625 0.172778 14.9907 0 14.7788 0Z" fill="white"/>
<path d="M4.92447 7.79977C5.30128 7.79977 5.60674 7.49297 5.60674 7.11424C5.60674 6.7355 5.30128 6.42871 4.92447 6.42871C4.54765 6.42871 4.24219 6.7355 4.24219 7.11424C4.24219 7.49297 4.54765 7.79977 4.92447 7.79977Z" fill="white"/>
<path d="M4.92447 11.0566C5.30128 11.0566 5.60674 10.7498 5.60674 10.3711C5.60674 9.99235 5.30128 9.68555 4.92447 9.68555C4.54765 9.68555 4.24219 9.99235 4.24219 10.3711C4.24219 10.7498 4.54765 11.0566 4.92447 11.0566Z" fill="white"/>
<path d="M4.92447 14.3144C5.30128 14.3144 5.60674 14.0076 5.60674 13.6289C5.60674 13.2502 5.30128 12.9434 4.92447 12.9434C4.54765 12.9434 4.24219 13.2502 4.24219 13.6289C4.24219 14.0076 4.54765 14.3144 4.92447 14.3144Z" fill="white"/>
<path d="M8.1647 14.3144C8.54151 14.3144 8.84697 14.0076 8.84697 13.6289C8.84697 13.2502 8.54151 12.9434 8.1647 12.9434C7.78788 12.9434 7.48242 13.2502 7.48242 13.6289C7.48242 14.0076 7.78788 14.3144 8.1647 14.3144Z" fill="white"/>
<path d="M8.1647 11.0566C8.54151 11.0566 8.84697 10.7498 8.84697 10.3711C8.84697 9.99235 8.54151 9.68555 8.1647 9.68555C7.78788 9.68555 7.48242 9.99235 7.48242 10.3711C7.48242 10.7498 7.78788 11.0566 8.1647 11.0566Z" fill="white"/>
<path d="M8.25063 7.79977C8.62745 7.79977 8.93291 7.49297 8.93291 7.11424C8.93291 6.7355 8.62745 6.42871 8.25063 6.42871C7.87382 6.42871 7.56836 6.7355 7.56836 7.11424C7.56836 7.49297 7.87382 7.79977 8.25063 7.79977Z" fill="white"/>
<path d="M11.4928 7.79977C11.8696 7.79977 12.1751 7.49297 12.1751 7.11424C12.1751 6.7355 11.8696 6.42871 11.4928 6.42871C11.116 6.42871 10.8105 6.7355 10.8105 7.11424C10.8105 7.49297 11.116 7.79977 11.4928 7.79977Z" fill="white"/>
<path d="M14.6491 7.79977C15.0259 7.79977 15.3313 7.49297 15.3313 7.11424C15.3313 6.7355 15.0259 6.42871 14.6491 6.42871C14.2723 6.42871 13.9668 6.7355 13.9668 7.11424C13.9668 7.49297 14.2723 7.79977 14.6491 7.79977Z" fill="white"/>
<path d="M14.8206 18.0005C17.1291 18.0005 19.0005 16.1203 19.0005 13.8005C19.0005 11.4808 17.1291 9.60059 14.8206 9.60059C12.5121 9.60059 10.6406 11.4808 10.6406 13.8005C10.6406 16.1203 12.5121 18.0005 14.8206 18.0005Z" stroke="white" stroke-width="1.3" stroke-miterlimit="10"/>
<path d="M14.666 12.6924V14.3211H16.2869" stroke="white" stroke-width="1.3" stroke-linecap="round" stroke-linejoin="round"/>
</svg>
