<svg width="20" height="16" viewBox="0 0 20 16" fill="none" xmlns="http://www.w3.org/2000/svg">
<path d="M2.91699 3.87048C2.91699 1.98447 4.35789 0.5 6.06748 0.5C7.77711 0.5 9.218 1.98447 9.218 3.87048C9.218 5.75648 7.77707 7.24096 6.06748 7.24096C4.35789 7.24096 2.91699 5.75649 2.91699 3.87048Z" stroke="white"/>
<path d="M12.4884 1.89722L12.4884 1.89725C11.999 2.43048 11.7292 3.13743 11.7355 3.89303L12.4884 1.89722ZM12.4884 1.89722C12.9855 1.35553 13.6436 1.06086 14.3448 1.05476L14.3666 1.05469C15.783 1.05469 16.9898 2.27752 17.0028 3.84956C17.0091 4.60522 16.7393 5.31218 16.2499 5.84541L16.2499 5.84543M12.4884 1.89722L16.2499 5.84543M16.2499 5.84543C15.7528 6.38709 15.0947 6.68178 14.3936 6.6879C14.3932 6.6879 14.3928 6.68791 14.3924 6.68791L14.3713 6.68797C13.6777 6.68797 13.0225 6.40463 12.5212 5.87617M16.2499 5.84543L12.5212 5.87617M12.5212 5.87617C12.0231 5.35103 11.7417 4.64863 11.7355 3.89305L12.5212 5.87617Z" stroke="white"/>
<path d="M14.218 8.32031H14.5211C17.266 8.32031 19.4999 10.5542 19.4999 13.2987V13.9655H13.7572C13.6755 13.2528 13.4932 12.5589 13.2121 11.8945C12.8315 10.9944 12.2865 10.1859 11.5935 9.4929C11.5083 9.4077 11.4213 9.3247 11.3326 9.24395C12.1476 8.66232 13.1433 8.32031 14.218 8.32031Z" stroke="white"/>
<path d="M11.6238 14.4981L11.6238 14.4989C11.631 14.6108 11.6346 14.724 11.6346 14.8382V15.0366H0.5V14.8382C0.5 11.864 2.91086 9.45316 5.88506 9.45312H6.24989C7.4554 9.45312 8.56687 9.8486 9.46353 10.5169L9.46358 10.5169C10.6975 11.4364 11.5227 12.8697 11.6238 14.4981Z" stroke="white"/>
</svg>
