<svg width="167" height="62" viewBox="0 0 167 62" fill="none" xmlns="http://www.w3.org/2000/svg">
<path d="M21.5598 36.386C21.7326 36.3671 21.9064 36.4106 22.0498 36.5088C22.0932 36.5516 22.1271 36.6031 22.1493 36.66C22.1714 36.7168 22.1813 36.7777 22.1782 36.8386V40.3772H13.0656V36.8386C13.0623 36.7776 13.0721 36.7167 13.0942 36.6598C13.1164 36.603 13.1504 36.5515 13.194 36.5088C13.3369 36.4103 13.5105 36.3667 13.683 36.386V36.1602H10.2842V36.386C10.4564 36.3668 10.6297 36.4104 10.7723 36.5088C10.8161 36.5514 10.8504 36.6028 10.8728 36.6597C10.8953 36.7165 10.9054 36.7775 10.9026 36.8386V45.3842C10.9056 45.4452 10.8955 45.5061 10.873 45.5628C10.8506 45.6195 10.8162 45.6707 10.7723 45.7131C10.63 45.8123 10.4564 45.856 10.2842 45.8359V46.0608H13.683V45.8359C13.5105 45.8561 13.3365 45.8124 13.194 45.7131C13.1502 45.6707 13.1161 45.6194 13.094 45.5627C13.0718 45.5059 13.0621 45.4451 13.0656 45.3842V41.6188H22.1782V45.3842C22.1814 45.445 22.1715 45.5058 22.1494 45.5625C22.1273 45.6192 22.0933 45.6705 22.0498 45.7131C21.9068 45.8121 21.7327 45.8558 21.5598 45.8359V46.0608H24.9587V45.8359C24.7864 45.8557 24.6129 45.812 24.4705 45.7131C24.427 45.6705 24.3931 45.6192 24.3709 45.5625C24.3488 45.5058 24.339 45.445 24.3422 45.3842V36.8386C24.3391 36.7777 24.349 36.7168 24.3711 36.66C24.3933 36.6031 24.4271 36.5516 24.4705 36.5088C24.6133 36.4106 24.7865 36.367 24.9587 36.386V36.1602H21.5598V36.386Z" fill="#D1986D"/>
<path d="M44.3654 36.0752C44.0888 36.1502 43.8016 36.1787 43.5157 36.1593H32.731V36.3851C32.9037 36.3661 33.0776 36.4097 33.221 36.508C33.2643 36.5509 33.2981 36.6024 33.3202 36.6592C33.3423 36.716 33.3523 36.7769 33.3494 36.8378V45.3834C33.3524 45.4442 33.3425 45.5049 33.3204 45.5616C33.2982 45.6183 33.2644 45.6696 33.221 45.7122C33.078 45.8114 32.9038 45.8551 32.731 45.8351V46.0638H43.6441C44.2452 46.0638 44.5454 46.1834 44.5448 46.4228H44.8535V44.1825H44.5485C44.5578 44.2816 44.5385 44.3813 44.4928 44.4698C44.4471 44.5582 44.377 44.6316 44.2908 44.6814C44.0392 44.7901 43.7656 44.8381 43.4921 44.8212H35.5142V41.6208H40.7909C41.0531 41.6051 41.3157 41.6437 41.5623 41.7342C41.6365 41.7687 41.6984 41.825 41.7399 41.8955C41.7814 41.9661 41.8004 42.0476 41.7945 42.1292H42.1033V39.8529H41.7945C41.798 39.9451 41.7707 40.0357 41.717 40.1106C41.6634 40.1855 41.5864 40.2405 41.4981 40.2668C41.2549 40.3485 40.9992 40.3866 40.7428 40.3793H35.5171V37.4057H43.5421C43.8158 37.3806 44.0913 37.4292 44.3399 37.5464C44.4048 37.5873 44.4579 37.6443 44.4941 37.7119C44.5304 37.7795 44.5485 37.8553 44.5467 37.932H44.8554V35.7852H44.5485C44.5517 35.8465 44.5357 35.9073 44.503 35.9593C44.4702 36.0112 44.4221 36.0517 44.3654 36.0752Z" fill="#D1986D"/>
<path d="M65.1571 45.3449L62.3823 41.6749C63.3741 41.6486 64.3379 41.3409 65.1618 40.7876C65.4401 40.562 65.6618 40.2744 65.8093 39.9477C65.9568 39.6211 66.0261 39.2645 66.0115 38.9063C66.0275 38.4977 65.9332 38.0924 65.7385 37.7329C65.5438 37.3734 65.2558 37.073 64.905 36.8635C63.7715 36.3059 62.5097 36.0619 61.2503 36.1567H52.6257V36.3825C52.7985 36.3631 52.9725 36.4067 53.1157 36.5053C53.1592 36.5482 53.193 36.5997 53.2151 36.6565C53.2373 36.7133 53.2472 36.7742 53.2441 36.8351V45.3808C53.2473 45.4416 53.2374 45.5023 53.2153 45.559C53.1932 45.6157 53.1592 45.667 53.1157 45.7096C52.9729 45.8091 52.7986 45.8528 52.6257 45.8324V46.0573H56.0246V45.8324C55.852 45.8527 55.6781 45.809 55.5355 45.7096C55.4918 45.6672 55.4577 45.6159 55.4355 45.5592C55.4134 45.5024 55.4037 45.4416 55.4071 45.3808V41.7675H60.1419L62.8383 45.4526C62.8752 45.4741 62.9063 45.5043 62.929 45.5405C62.9517 45.5767 62.9653 45.6179 62.9686 45.6605C62.9698 45.6899 62.9612 45.7189 62.9441 45.7428C62.927 45.7668 62.9024 45.7844 62.8742 45.7928C62.7353 45.8271 62.592 45.8398 62.4493 45.8306V46.0554H66.1559V45.8306C65.9666 45.8436 65.777 45.8112 65.6027 45.7361C65.4365 45.6273 65.2865 45.4956 65.1571 45.3449ZM55.4071 40.4881V37.4389H60.9161C61.4105 37.4329 61.9048 37.4607 62.3955 37.5221C62.7131 37.5582 63.0224 37.6477 63.3104 37.7866C63.5081 37.8807 63.6705 38.0357 63.7739 38.2288C63.8649 38.4291 63.9088 38.6477 63.9023 38.8676C63.9081 39.1046 63.8515 39.339 63.7383 39.5472C63.6252 39.7555 63.4594 39.9304 63.2575 40.0544C62.574 40.4008 61.808 40.551 61.0445 40.4881H55.4071Z" fill="#D1986D"/>
<path d="M73.6809 36.386C73.8537 36.3667 74.0276 36.4103 74.1709 36.5088C74.2143 36.5517 74.2481 36.6032 74.2702 36.66C74.2924 36.7168 74.3023 36.7777 74.2993 36.8386V45.3842C74.3024 45.445 74.2926 45.5058 74.2705 45.5625C74.2483 45.6192 74.2144 45.6705 74.1709 45.7131C74.028 45.8123 73.8537 45.856 73.6809 45.8359V46.0608H77.0798V45.8359C76.9073 45.8555 76.7335 45.8119 76.5907 45.7131C76.5473 45.6704 76.5134 45.6191 76.4913 45.5624C76.4692 45.5057 76.4593 45.445 76.4623 45.3842V36.8386C76.4595 36.7777 76.4694 36.7169 76.4915 36.6601C76.5136 36.6033 76.5474 36.5517 76.5907 36.5088C76.7339 36.4108 76.9073 36.3672 77.0798 36.386V36.1602H73.6809V36.386Z" fill="#D1986D"/>
<path d="M95.5084 36.1594H84.6972C84.0968 36.1594 83.7966 35.9969 83.7966 35.6719H83.4888V37.8914H83.7966C83.7888 37.814 83.8042 37.736 83.8408 37.6673C83.8775 37.5987 83.9337 37.5425 84.0024 37.5059C84.2242 37.4232 84.461 37.3884 84.6972 37.4039H89.0223V45.3845C89.0254 45.4454 89.0154 45.5064 88.9929 45.5631C88.9704 45.6199 88.936 45.6711 88.892 45.7133C88.7497 45.8125 88.5761 45.8562 88.4039 45.8362V46.061H91.8027V45.8399C91.6296 45.8598 91.4552 45.8161 91.3118 45.7171C91.2683 45.6745 91.2343 45.6232 91.2122 45.5665C91.1901 45.5098 91.1802 45.449 91.1834 45.3883V37.4077H95.5093C95.7455 37.3921 95.9824 37.4269 96.2042 37.5097C96.2729 37.5463 96.3291 37.6024 96.3658 37.6711C96.4024 37.7398 96.4178 37.8178 96.41 37.8952H96.7187V35.6757H96.41C96.4094 35.9988 96.1089 36.1601 95.5084 36.1594Z" fill="#D1986D"/>
<path d="M116.342 45.7026C116.248 45.62 116.166 45.5246 116.098 45.4191C116.011 45.2934 115.892 45.1186 115.738 44.8909L110.796 37.4007C110.659 37.1862 110.548 37.0227 110.462 36.8999C110.391 36.8177 110.347 36.7164 110.334 36.6089C110.334 36.4586 110.47 36.3821 110.746 36.3821V36.1562H106.988V36.3821C107.296 36.3821 107.452 36.4586 107.452 36.6089C107.44 36.7012 107.405 36.7889 107.348 36.863L107.04 37.3421L102.381 44.9485C102.242 45.1479 102.132 45.3076 102.047 45.4276C101.979 45.526 101.901 45.6175 101.815 45.7007C101.754 45.7591 101.678 45.7988 101.596 45.815C101.506 45.8274 101.416 45.8334 101.326 45.8329V46.0578H104.491V45.8329C104.199 45.8329 104.055 45.764 104.055 45.626C104.07 45.5102 104.114 45.4 104.183 45.3057C104.269 45.1678 104.346 45.0421 104.415 44.9277L105.289 43.4216H112.575L113.553 44.9277C113.689 45.1526 113.78 45.301 113.823 45.37C113.862 45.429 113.884 45.4976 113.887 45.5684C113.889 45.6075 113.88 45.6464 113.862 45.6811C113.844 45.7158 113.817 45.7451 113.783 45.7659C113.653 45.8208 113.512 45.8432 113.371 45.8311V46.0559H116.949V45.8311C116.829 45.8324 116.708 45.8264 116.588 45.8131C116.498 45.7987 116.413 45.7606 116.342 45.7026ZM106.111 42.1838L108.788 37.7427L111.697 42.1838H106.111Z" fill="#D1986D"/>
<path d="M130.434 40.5282H130.125V42.7516H130.434C130.434 42.475 130.734 42.3365 131.335 42.3358H134.295V43.7532C133.597 44.1201 132.852 44.3906 132.082 44.5573C131.085 44.7801 130.065 44.887 129.044 44.8757C128.374 44.8776 127.708 44.7922 127.061 44.6215C126.464 44.4684 125.895 44.2212 125.376 43.8893C124.901 43.5841 124.498 43.1807 124.193 42.7062C123.887 42.2205 123.73 41.6559 123.741 41.082C123.736 40.5713 123.854 40.0669 124.084 39.611C124.314 39.1552 124.65 38.7611 125.063 38.4617C125.588 38.0838 126.177 37.804 126.801 37.6359C127.614 37.415 128.455 37.311 129.297 37.3269C129.971 37.3225 130.643 37.3791 131.306 37.4961C131.851 37.5907 132.388 37.7291 132.911 37.9099C133.283 38.0359 133.64 38.2002 133.978 38.4003C134.236 38.5628 134.364 38.7018 134.364 38.8142C134.367 38.8574 134.359 38.9006 134.341 38.94C134.323 38.9794 134.296 39.0138 134.262 39.04L134.57 39.1912L136.374 37.2514L136.063 37.102C136.014 37.1622 135.958 37.2159 135.896 37.2617C135.806 37.3129 135.703 37.336 135.6 37.3279C135.378 37.3082 135.163 37.2405 134.97 37.1294C134.607 36.9584 134.233 36.8107 133.851 36.6872C133.249 36.4944 132.634 36.3466 132.01 36.245C131.095 36.1012 130.17 36.0355 129.244 36.0485C128.218 36.0381 127.195 36.1711 126.205 36.4435C125.348 36.6743 124.535 37.0463 123.8 37.5443C123.159 37.9757 122.615 38.5367 122.203 39.1912C121.821 39.8066 121.62 40.5178 121.624 41.2426C121.618 41.9521 121.825 42.647 122.217 43.2382C122.644 43.8717 123.206 44.4023 123.863 44.7916C124.637 45.2534 125.48 45.5871 126.36 45.78C127.391 46.0135 128.444 46.1273 129.5 46.1192C130.7 46.1056 131.896 45.9662 133.066 45.7034C134.402 45.4111 135.684 44.9091 136.863 44.2162V43.9894C136.733 43.9808 136.608 43.9352 136.503 43.8581C136.416 43.7391 136.379 43.5911 136.399 43.4452V41.8076C136.381 41.6656 136.415 41.5217 136.494 41.4023C136.605 41.3301 136.739 41.2996 136.871 41.3163V41.0923H131.337C130.735 41.0936 130.434 40.9056 130.434 40.5282Z" fill="#D1986D"/>
<path d="M154.784 37.4018C155.058 37.3768 155.333 37.4254 155.582 37.5426C155.646 37.5835 155.699 37.6405 155.735 37.7081C155.772 37.7757 155.789 37.8515 155.787 37.9281H156.098V35.7812H155.787C155.791 35.8428 155.776 35.904 155.744 35.9564C155.712 36.0089 155.664 36.05 155.607 36.0742C155.33 36.1492 155.043 36.1776 154.757 36.1583H143.974V36.3841C144.146 36.3651 144.32 36.4087 144.464 36.5069C144.507 36.5499 144.541 36.6014 144.563 36.6582C144.585 36.715 144.595 36.7758 144.592 36.8367V45.3824C144.595 45.4431 144.585 45.5039 144.563 45.5605C144.541 45.6172 144.507 45.6686 144.464 45.7112C144.321 45.8103 144.146 45.854 143.974 45.834V46.0627H154.888C155.487 46.0627 155.787 46.1824 155.787 46.4218H156.098V44.1814H155.787C155.797 44.2805 155.777 44.3803 155.732 44.4687C155.686 44.5571 155.616 44.6306 155.53 44.6803C155.278 44.789 155.005 44.8369 154.732 44.8202H146.753V41.6198H152.03C152.293 41.6042 152.556 41.6428 152.803 41.7332C152.877 41.7681 152.938 41.8245 152.98 41.8949C153.021 41.9654 153.04 42.0467 153.034 42.1281H153.342V39.8519H153.034C153.038 39.944 153.011 40.0348 152.957 40.1097C152.903 40.1847 152.826 40.2395 152.738 40.2657C152.495 40.3473 152.239 40.3854 151.983 40.3782H146.758V37.4046L154.784 37.4018Z" fill="#D1986D"/>
<path d="M75.5175 0.00390625C74.7163 0.866283 73.8568 1.75229 72.9391 2.66191C72.0214 3.57153 71.0616 4.47675 70.0596 5.37755C69.0594 6.27773 68.0596 7.15962 67.0601 8.02326C66.0606 8.8869 65.1007 9.67715 64.1805 10.394C62.1003 8.57288 60.1306 6.82167 58.2713 5.14038C56.412 3.45909 54.5826 1.74788 52.7831 0.0067466C52.7831 0.0067466 48.137 0.145647 46.1855 0.0067466C46.5846 0.328642 47.1643 0.804236 47.9246 1.43354C48.685 2.06284 49.5347 2.77309 50.4738 3.56429C51.4141 4.35611 52.4042 5.18699 53.444 6.05693C54.4838 6.92687 55.4735 7.7568 56.4132 8.54673C57.351 9.3373 58.2108 10.0579 58.9926 10.7087C59.7743 11.3594 60.3644 11.8542 60.7628 12.1931C60.7411 13.5075 60.2822 20.6273 60.2822 20.6273C61.2012 20.5869 62.1809 20.5674 63.2213 20.5687C64.2617 20.5699 65.2414 20.5895 66.1603 20.6273C66.1603 20.6273 65.7553 15.1024 65.6883 12.726C65.6883 12.434 65.6826 12.1421 65.6826 11.8633C66.3215 11.2429 67.0815 10.5474 67.9627 9.77699C68.8438 9.00658 69.8635 8.14106 71.0216 7.18041C72.181 6.22039 73.5207 5.14951 75.0407 3.96776C76.5608 2.78601 78.2803 1.46472 80.1994 0.00390625C78.6401 0.0953537 77.0768 0.0953537 75.5175 0.00390625Z" fill="#D1986D"/>
<path d="M35.8691 0.00390625C35.3498 0.0445369 34.8485 0.0804425 34.3698 0.109734C33.8911 0.139026 33.4087 0.156982 32.93 0.156982C32.4513 0.156982 31.9708 0.139971 31.4893 0.109734C31.0078 0.0794976 30.5121 0.0454818 29.991 0.00390625C29.991 0.0492614 29.9976 0.09179 30.0023 0.133365C30.0023 0.259037 30.0967 3.86666 30.1467 8.07996H30.1741V8.69509H30.1467C30.1467 8.94455 30.1524 9.19493 30.1562 9.451L24.2016 9.50864C22.3379 9.5266 20.4044 9.53605 18.4189 9.53794H17.9345H17.4502C15.4675 9.53794 13.5302 9.5266 11.6675 9.50864L6.07542 9.45478H5.71478H5.71005L5.71478 8.83871L5.72705 7.65381V7.61034C5.78087 3.60586 5.86301 0.260923 5.86584 0.140921C5.86584 0.099345 5.87339 0.0568308 5.87811 0.0114757C5.35696 0.0521063 4.85939 0.088012 4.37884 0.117304C3.89828 0.146596 3.41868 0.164537 2.94001 0.164537C2.46134 0.164537 1.97982 0.147541 1.50115 0.117304C1.02248 0.0870671 0.519267 0.0530512 0 0.0114757C0.0113295 0.121084 0.0198321 0.228803 0.0292733 0.337467C0.510465 6.17607 0.582392 12.0412 0.24453 17.8899C0.167112 18.814 0.0878033 19.7324 0 20.6301C0.920204 20.5898 1.90051 20.5702 2.94093 20.5715C3.98135 20.5728 4.96104 20.5923 5.87999 20.6301C5.85638 20.392 5.83468 20.1491 5.81297 19.9091C5.68646 18.0014 5.66944 14.4731 5.69588 10.9118V10.8542H5.70345C5.85168 10.8542 5.99519 10.8542 6.14342 10.8542C8.03166 10.8391 9.8859 10.8249 11.6712 10.8164C13.6885 10.8057 15.7775 10.8006 17.9383 10.8013C20.0991 10.8019 22.1881 10.8069 24.2054 10.8164C26.0408 10.8258 27.9422 10.8391 29.8928 10.857C29.9872 10.857 30.0816 10.857 30.176 10.857C30.176 11.0299 30.176 11.2019 30.1807 11.3748V10.7767C30.2072 14.3834 30.1921 17.9759 30.0646 19.9082C30.0429 20.1482 30.0212 20.3901 29.9976 20.6291C30.9181 20.5895 31.8953 20.5706 32.9366 20.5706C33.978 20.5706 34.9561 20.5895 35.8757 20.6291C35.7898 19.7287 35.7076 18.8112 35.6321 17.8889C35.2949 12.0403 35.3668 6.17515 35.8474 0.336515C35.8511 0.225017 35.8596 0.113514 35.8691 0.00390625Z" fill="#D1986D"/>
<path d="M167 18.9182C166.039 19.0177 164.91 19.0924 163.611 19.1421C162.313 19.1919 160.933 19.2319 159.472 19.2621C158.013 19.293 156.524 19.3078 155.004 19.3065H144.787C144.637 18.0782 144.599 15.338 144.607 12.3663V12.3455C144.607 11.873 144.614 11.4006 144.617 10.9215C149.564 10.9329 158.999 11.034 163.186 11.0803C163.955 11.1114 164.667 11.1436 165.308 11.1804H165.317C165.313 11.1587 165.308 11.1322 165.304 11.1058C165.271 10.5257 165.274 9.94403 165.314 9.36432C165.313 9.3593 165.313 9.35422 165.314 9.34921C164.432 9.38889 163.502 9.42354 162.524 9.45315C161.545 9.48275 160.475 9.51424 159.314 9.54763C158.418 9.56968 157.451 9.58984 156.413 9.60811C155.564 9.61756 154.688 9.627 153.812 9.63173C152.86 9.63645 151.641 9.64024 150.394 9.64307C148.204 9.64307 146.112 9.60811 144.624 9.53629L144.631 9.07424H144.623C144.631 8.57156 144.637 8.07454 144.646 7.5917C144.698 4.31479 144.77 1.62655 144.777 1.42434C146.753 1.42434 154.555 1.43946 155.953 1.4697C157.35 1.49993 158.642 1.53395 159.823 1.57364C161.005 1.61332 162.122 1.65395 163.183 1.69364C164.244 1.73332 165.412 1.7749 166.691 1.81364C166.676 1.75694 166.665 1.69363 166.653 1.63222C166.633 1.09179 166.645 0.550596 166.691 0.0117188C164.892 0.0526643 163.112 0.0879401 161.352 0.117547C159.592 0.147154 157.813 0.162905 156.013 0.164795C154.219 0.164795 146.275 0.147784 144.495 0.117547C142.714 0.0873102 140.926 0.0532943 139.126 0.0117188C139.532 5.2612 139.662 10.5284 139.516 15.7915C139.497 16.1307 139.482 16.4728 139.456 16.8101C139.355 18.0807 139.245 19.356 139.126 20.636C139.126 20.636 159.341 20.5642 165.373 20.6086C165.912 20.6181 166.452 20.6256 166.992 20.636C166.986 20.6086 166.981 20.5765 166.973 20.5472C166.941 20.0104 166.947 19.4721 166.991 18.9361L167 18.9182Z" fill="#D1986D"/>
<path d="M122.5 2.66228C120.645 1.70336 118.651 1.03995 116.592 0.695948C113.728 0.19656 110.824 -0.0350035 107.917 0.00427298C107.301 0.00427298 106.69 0.0127821 106.072 0.0212862C106.072 0.0212862 100.207 0.0713698 95.5603 0.0666453C94.8485 0.0666453 92.0671 0.0316755 90.8237 0.0165571C90.7179 0.0165571 90.6141 0.0118445 90.5074 0.00806492H90.2175C90.2175 0.00806492 90.7283 4.19017 90.8614 7.97922C90.9275 10.846 90.9332 14.1125 90.7793 17.1324C90.6784 18.3053 90.5174 19.4722 90.2968 20.6286H90.5064C90.5064 20.6286 101.175 20.5955 102.863 20.6106H102.834C103.862 20.6238 104.9 20.6314 105.949 20.6314C108.332 20.6236 110.71 20.4487 113.068 20.1079C115.399 19.7957 117.682 19.1956 119.866 18.3211C121.769 17.5815 123.497 16.4518 124.939 15.0045C125.589 14.3365 126.1 13.5451 126.44 12.6768C126.781 11.8085 126.944 10.8809 126.921 9.94839C126.943 8.4922 126.575 7.05676 125.855 5.79084C125.044 4.45992 123.884 3.37764 122.5 2.66228ZM119.706 14.7882C118.591 16.0808 117.189 17.0938 115.612 17.7457C113.799 18.5038 111.888 18.9989 109.936 19.2159C107.832 19.4751 105.715 19.6051 103.596 19.6052C102.134 19.6052 100.713 19.5804 99.3311 19.5306C97.9496 19.4808 96.8544 19.4056 96.0456 19.3048C96.0069 18.9599 95.9767 18.6122 95.9455 18.2654C95.7227 14.1948 95.9569 4.15144 96.0135 1.86856C96.0239 1.77407 96.0343 1.66446 96.0447 1.56619C97.2349 1.48682 98.5793 1.4169 100.078 1.35642C101.577 1.29595 103.191 1.26446 104.92 1.26194C107.116 1.25197 109.31 1.3782 111.49 1.63989C113.267 1.8314 115.005 2.28713 116.648 2.99204C117.993 3.56617 119.164 4.48135 120.047 5.64721C120.915 6.90569 121.351 8.41279 121.288 9.94083C121.364 11.6949 120.802 13.4172 119.706 14.7882Z" fill="#D1986D"/>
<path d="M48.9592 56.2716C48.9592 56.3122 48.9592 56.4322 48.6164 56.4322H43.4956C43.1528 56.4322 43.1528 56.3122 43.1528 56.2716V56.1875H42.8403V57.4641H43.1538V57.379C43.1538 57.2997 43.1812 57.2741 43.2067 57.2609C43.2992 57.2264 43.398 57.2122 43.4965 57.2193H45.4612V61.1152C45.4627 61.134 45.4602 61.153 45.4541 61.1709C45.4479 61.1887 45.4381 61.2052 45.4253 61.2191C45.414 61.2314 45.3753 61.2569 45.2526 61.2569H45.1695V61.5404H46.9463V61.2569H46.8623C46.7386 61.2569 46.6999 61.2314 46.6895 61.2191C46.6761 61.2055 46.6658 61.1892 46.6593 61.1713C46.6527 61.1533 46.6502 61.1342 46.6517 61.1152V57.2193H48.6164C48.7152 57.2122 48.8144 57.2263 48.9073 57.2609C48.9318 57.2741 48.9592 57.2987 48.9592 57.379V57.4641H49.2736V56.1875H48.9592V56.2716Z" fill="#D1986D"/>
<path d="M58.2623 56.7124H58.3445C58.4691 56.7124 58.5078 56.7397 58.5191 56.7511C58.5317 56.7653 58.5414 56.782 58.5475 56.8C58.5537 56.818 58.5562 56.837 58.555 56.856V58.535H54.4009V56.856C54.3992 56.8369 54.4016 56.8178 54.4077 56.7997C54.4139 56.7817 54.4238 56.7651 54.4367 56.7511C54.4481 56.7397 54.4868 56.7124 54.6095 56.7124H54.6926V56.4336H52.9158V56.7124H52.9998C53.1216 56.7124 53.1603 56.7397 53.1726 56.7511C53.1853 56.7653 53.195 56.7818 53.2012 56.7999C53.2074 56.8179 53.2098 56.837 53.2084 56.856V61.1165C53.2097 61.1354 53.2072 61.1543 53.2011 61.1721C53.1949 61.19 53.1852 61.2064 53.1726 61.2205C53.1603 61.2327 53.1216 61.2583 52.9998 61.2583H52.9158V61.5417H54.6926V61.2583H54.6095C54.4868 61.2583 54.4471 61.2327 54.4367 61.2205C54.4235 61.2068 54.4134 61.1904 54.4072 61.1725C54.401 61.1545 54.3989 61.1354 54.4009 61.1165V59.3212H58.555V61.1165C58.5562 61.1355 58.5534 61.1545 58.5469 61.1724C58.5404 61.1903 58.5303 61.2066 58.5172 61.2205C58.5068 61.2327 58.4681 61.2583 58.3435 61.2583H58.2614V61.5417H60.0382V61.2583H59.9551C59.8305 61.2583 59.7928 61.2327 59.7805 61.2205C59.7677 61.2065 59.758 61.1901 59.752 61.1722C59.746 61.1543 59.7438 61.1353 59.7456 61.1165V56.856C59.7436 56.8369 59.7458 56.8177 59.752 56.7996C59.7582 56.7815 59.7682 56.7649 59.7814 56.7511C59.7928 56.7378 59.8305 56.7124 59.9542 56.7124H60.0373V56.4336H58.2605L58.2623 56.7124Z" fill="#D1986D"/>
<path d="M70.2478 57.0403C69.8824 56.8077 69.4801 56.639 69.0582 56.5414C68.0815 56.3195 67.0675 56.3195 66.0908 56.5414C65.6688 56.6388 65.2665 56.8075 64.9012 57.0403C64.5758 57.2481 64.3035 57.5293 64.1063 57.8614C63.9191 58.2056 63.821 58.5912 63.821 58.983C63.821 59.3748 63.9191 59.7604 64.1063 60.1046C64.3029 60.4359 64.5754 60.7157 64.9012 60.921C65.2671 61.1504 65.6699 61.3148 66.0917 61.4067C67.0688 61.6162 68.0792 61.6162 69.0563 61.4067C69.4786 61.3152 69.8818 61.1509 70.2478 60.921C70.5733 60.7156 70.8454 60.4358 71.0418 60.1046C71.2297 59.7607 71.3282 59.375 71.3282 58.983C71.3282 58.591 71.2297 58.2053 71.0418 57.8614C70.8449 57.5294 70.5729 57.2481 70.2478 57.0403ZM69.4443 60.2917C68.8721 60.6099 68.2282 60.7769 67.5736 60.7769C66.9189 60.7769 66.275 60.6099 65.7028 60.2917C65.5031 60.1359 65.3415 59.9366 65.2304 59.7089C65.1193 59.4812 65.0616 59.2312 65.0616 58.9778C65.0616 58.7244 65.1193 58.4744 65.2304 58.2467C65.3415 58.019 65.5031 57.8197 65.7028 57.6639C66.2752 57.3461 66.919 57.1793 67.5736 57.1793C68.2281 57.1793 68.8719 57.3461 69.4443 57.6639C69.6446 57.8193 69.8068 58.0184 69.9184 58.2462C70.0299 58.4739 70.0879 58.7242 70.0879 58.9778C70.0879 59.2314 70.0299 59.4817 69.9184 59.7094C69.8068 59.9372 69.6446 60.1364 69.4443 60.2917Z" fill="#D1986D"/>
<path d="M80.5975 56.7134H80.6777C80.8052 56.7134 80.842 56.7427 80.8515 56.7522C80.8638 56.7665 80.8732 56.7831 80.8791 56.8012C80.8849 56.8192 80.8871 56.8382 80.8855 56.857V60.0527L77.1732 56.7937C77.1493 56.7764 77.1274 56.7565 77.108 56.7342C77.1552 56.719 77.2049 56.7132 77.2543 56.7172H77.3384V56.4385H75.1074V56.7172H75.1914C75.3142 56.7172 75.3519 56.7446 75.3623 56.7559C75.3758 56.7697 75.3862 56.7861 75.3927 56.8042C75.3992 56.8223 75.4017 56.8417 75.4001 56.8608V61.1214C75.4015 61.1403 75.399 61.1593 75.3927 61.1772C75.3863 61.1951 75.3763 61.2115 75.3633 61.2253C75.3519 61.2376 75.3132 61.2631 75.1905 61.2631H75.1074V61.5466H76.737V61.2631H76.6548C76.5321 61.2631 76.4924 61.2376 76.4821 61.2281C76.4693 61.2136 76.4596 61.1967 76.4534 61.1784C76.4472 61.16 76.4448 61.1407 76.4462 61.1214V57.4759L80.639 61.1469C80.6642 61.175 80.6916 61.2009 80.7212 61.2244C80.7279 61.2311 80.7336 61.2387 80.7382 61.2471C80.6866 61.2598 80.6335 61.2649 80.5805 61.2622H80.4974V61.5456H82.2242V61.2622H82.1421C82.0184 61.2622 81.9797 61.2366 81.9693 61.2244C81.9559 61.2108 81.9457 61.1945 81.9393 61.1765C81.9329 61.1586 81.9306 61.1394 81.9325 61.1204V56.8599C81.9303 56.8407 81.9326 56.8212 81.9391 56.803C81.9457 56.7848 81.9563 56.7684 81.9702 56.755C81.9797 56.7418 82.0184 56.7163 82.1421 56.7163H82.2242V56.4375H80.5937L80.5975 56.7134Z" fill="#D1986D"/>
<path d="M90.2501 58.6939V58.6117H89.9376V59.8864H90.2501V59.8023C90.2501 59.6946 90.4654 59.6785 90.5928 59.6785H91.9127V60.2549C91.6024 60.4203 91.2716 60.5439 90.929 60.6225C90.4651 60.7325 89.9895 60.7852 89.5128 60.7793C89.2031 60.7802 88.8946 60.7389 88.596 60.6565C88.3198 60.582 88.0576 60.4626 87.82 60.3031C87.6031 60.1546 87.4205 59.9613 87.2846 59.7362C87.1468 59.5041 87.0768 59.2379 87.0826 58.968C87.0823 58.7351 87.1315 58.5048 87.227 58.2924C87.3313 58.0705 87.4862 57.8763 87.6793 57.7254C87.918 57.5456 88.1873 57.4108 88.4742 57.3276C88.8508 57.2205 89.2412 57.1699 89.6327 57.1774C89.9465 57.1756 90.2598 57.2038 90.5683 57.2615C90.8233 57.3072 91.0738 57.3752 91.317 57.4646C91.4882 57.5253 91.6525 57.6042 91.807 57.6999C91.9458 57.7944 91.9524 57.836 91.9524 57.836C91.9524 57.87 91.9411 57.8804 91.9373 57.8832L91.8325 57.9635L92.1525 58.1289L93.1212 57.0319L92.8191 56.8769L92.7757 56.9308C92.7571 56.9545 92.7355 56.9758 92.7115 56.9941C92.7115 56.9941 92.6897 57.0082 92.6236 57.0082C92.531 57 92.4416 56.9706 92.3621 56.9222C92.1872 56.8346 92.0065 56.7592 91.8212 56.6964C91.5324 56.599 91.2366 56.5235 90.9365 56.4706C90.4996 56.4001 90.0573 56.3685 89.6148 56.3761C89.1202 56.3721 88.6276 56.4396 88.1523 56.5764C87.7354 56.6965 87.3418 56.8863 86.9882 57.1377C86.6716 57.3634 86.406 57.6531 86.2084 57.9881C86.0201 58.3108 85.9223 58.6784 85.9251 59.052C85.9222 59.4194 86.0241 59.78 86.2187 60.0914C86.4248 60.4148 86.7002 60.6882 87.025 60.8918C87.3968 61.1256 87.8049 61.2958 88.2325 61.3954C88.7274 61.5131 89.2346 61.5705 89.7431 61.5664C90.3183 61.5587 90.8909 61.489 91.451 61.3586C92.0962 61.207 92.7126 60.9517 93.276 60.6026L93.3147 60.5771V60.3456L93.2449 60.3343C93.1997 60.3325 93.1559 60.3181 93.1184 60.2927C93.1184 60.2927 93.0957 60.2681 93.0957 60.1444V59.3289C93.091 59.2807 93.0968 59.232 93.1127 59.1862C93.1498 59.1689 93.191 59.1624 93.2317 59.1673H93.3147V58.8839H90.591C90.2501 58.8914 90.2501 58.7535 90.2501 58.6939Z" fill="#D1986D"/>
<path d="M103.02 60.5534C103.02 60.6063 103.02 60.7508 102.677 60.7508H98.6625V56.8919C98.6577 56.8422 98.6718 56.7926 98.7021 56.753C98.7134 56.7416 98.7512 56.7124 98.873 56.7124H98.9561V56.4336H97.1811V56.7124H97.2642C97.3869 56.7124 97.4247 56.7378 97.437 56.7511C97.4498 56.7652 97.4596 56.7818 97.4657 56.7998C97.4719 56.8178 97.4743 56.8369 97.4729 56.856V61.1165C97.474 61.1359 97.4712 61.1554 97.4647 61.1737C97.4582 61.192 97.4481 61.2089 97.4351 61.2233C97.4237 61.2327 97.386 61.2583 97.2633 61.2583H97.1802V61.5417H102.677C102.888 61.5417 103.02 61.5786 103.02 61.6362V61.7184H103.332V60.4721H103.02V60.5534Z" fill="#D1986D"/>
<path d="M112.592 57.0403C112.226 56.8079 111.823 56.6393 111.4 56.5414C110.424 56.3195 109.41 56.3195 108.433 56.5414C108.011 56.639 107.609 56.8077 107.244 57.0403C106.919 57.2482 106.646 57.5294 106.449 57.8614C106.261 58.2056 106.163 58.5912 106.163 58.983C106.163 59.3748 106.261 59.7604 106.449 60.1046C106.646 60.4358 106.918 60.7155 107.244 60.921C107.61 61.1512 108.013 61.3156 108.435 61.4067C109.412 61.6163 110.422 61.6163 111.399 61.4067C111.821 61.3148 112.224 61.1505 112.591 60.921C112.916 60.7152 113.188 60.4355 113.385 60.1046C113.573 59.7607 113.671 59.375 113.671 58.983C113.671 58.591 113.573 58.2053 113.385 57.8614C113.188 57.5298 112.916 57.2487 112.592 57.0403ZM111.787 60.2917C111.214 60.6098 110.571 60.7767 109.916 60.7767C109.262 60.7767 108.618 60.6098 108.046 60.2917C107.846 60.1359 107.685 59.9366 107.574 59.7089C107.463 59.4812 107.405 59.2312 107.405 58.9778C107.405 58.7244 107.463 58.4744 107.574 58.2467C107.685 58.019 107.846 57.8197 108.046 57.6639C108.618 57.3462 109.262 57.1794 109.916 57.1794C110.571 57.1794 111.214 57.3462 111.787 57.6639C111.987 57.8193 112.149 58.0184 112.261 58.2462C112.372 58.4739 112.43 58.7242 112.43 58.9778C112.43 59.2314 112.372 59.4817 112.261 59.7094C112.149 59.9372 111.987 60.1364 111.787 60.2917Z" fill="#D1986D"/>
<path d="M124.076 61.2597C124.001 61.2661 123.925 61.2541 123.856 61.2247C123.785 61.1735 123.722 61.1132 123.667 61.0452L122.337 59.3339C122.773 59.3034 123.192 59.1497 123.545 58.8908C123.688 58.7669 123.8 58.6125 123.875 58.4392C123.95 58.2658 123.985 58.0778 123.977 57.8892C123.986 57.6746 123.94 57.4612 123.841 57.2704C123.742 57.0795 123.596 56.9179 123.415 56.8016C122.869 56.5141 122.253 56.3873 121.637 56.4359H117.47V56.7147H117.553C117.676 56.7147 117.715 56.7421 117.726 56.7534C117.739 56.7676 117.748 56.7842 117.754 56.8023C117.76 56.8203 117.762 56.8394 117.761 56.8583V61.1189C117.762 61.1377 117.76 61.1566 117.754 61.1745C117.748 61.1923 117.738 61.2088 117.726 61.2228C117.714 61.2351 117.675 61.2606 117.553 61.2606H117.47V61.5441H119.247V61.2606H119.163C119.04 61.2606 119 61.2351 118.99 61.2256C118.964 61.1961 118.951 61.1579 118.953 61.1189V59.4001H121.07L122.486 61.2493C122.431 61.2595 122.374 61.2633 122.318 61.2606H122.235V61.5441H124.158V61.2606L124.076 61.2597ZM118.95 58.5931V57.2419H121.477C121.707 57.2387 121.938 57.2519 122.166 57.2816C122.306 57.2997 122.443 57.3406 122.57 57.4026C122.651 57.4443 122.717 57.5104 122.759 57.5916C122.796 57.6813 122.814 57.7779 122.811 57.875C122.815 57.9782 122.792 58.0805 122.744 58.1721C122.697 58.2638 122.627 58.3418 122.541 58.3985C122.234 58.5584 121.888 58.6275 121.543 58.5979L118.95 58.5931Z" fill="#D1986D"/>
</svg>
