<svg width="21" height="21" viewBox="0 0 21 21" fill="none" xmlns="http://www.w3.org/2000/svg">
<path d="M10.5021 9.09993C10.9865 9.09993 11.4604 8.95609 11.8631 8.68662C12.2666 8.4179 12.5807 8.03489 12.7662 7.58754C12.9516 7.13942 13.0001 6.64665 12.9055 6.17129C12.8108 5.69668 12.5777 5.25994 12.2348 4.91704C11.8919 4.57415 11.4551 4.34099 10.9805 4.24638C10.5051 4.15176 10.0123 4.20019 9.56418 4.38565C9.11681 4.5711 8.73378 4.88525 8.46506 5.2887C8.19558 5.6914 8.05176 6.16522 8.05176 6.64967C8.05176 7.29913 8.30988 7.92285 8.76937 8.38232C9.22885 8.84179 9.8526 9.09993 10.5021 9.09993ZM10.5021 4.89962C10.848 4.89962 11.1864 5.00256 11.474 5.19482C11.7624 5.38709 11.9865 5.66036 12.119 5.97979C12.2514 6.29998 12.2863 6.65195 12.2189 6.99107C12.1508 7.33018 11.9842 7.64203 11.7397 7.88728C11.4945 8.13178 11.1833 8.2983 10.8435 8.36643C10.5043 8.43379 10.1524 8.39898 9.83215 8.26652C9.51271 8.13405 9.23945 7.91 9.04718 7.62161C8.85491 7.33397 8.75195 6.99559 8.75195 6.64967C8.75195 6.18566 8.93666 5.7406 9.26518 5.41284C9.59295 5.08433 10.0381 4.90039 10.5021 4.90039V4.89962Z" fill="#F5F4EC"/>
<path d="M10.4397 19.1644L15.8089 11.4095C16.7801 9.99399 17.2472 8.29236 17.1344 6.57939C17.0208 4.86641 16.3342 3.24124 15.1851 1.96578C13.9263 0.706979 12.2193 0 10.4397 0C8.66004 0 6.95305 0.706979 5.6942 1.96578C4.54663 3.23973 3.86081 4.86263 3.74651 6.57334C3.6322 8.28404 4.09623 9.98339 5.0644 11.3989L10.4397 19.1644ZM6.18852 2.46008C6.74641 1.90146 7.40952 1.45863 8.13924 1.15661C8.86821 0.854584 9.65016 0.699406 10.4397 0.699406C11.2292 0.699406 12.0112 0.854584 12.7401 1.15661C13.4699 1.45863 14.1322 1.90146 14.6909 2.46008C15.7287 3.61443 16.3471 5.08517 16.447 6.63464C16.547 8.18412 16.1223 9.72148 15.2412 11L10.4397 17.9344L5.62987 10.9894C4.75253 9.71163 4.33013 8.17504 4.43157 6.62859C4.533 5.08139 5.15146 3.61366 6.18852 2.46082V2.46008Z" fill="#F5F4EC"/>
<path d="M14.7421 15.0531C14.6497 15.0425 14.5574 15.0683 14.4847 15.1258C14.4113 15.1833 14.3644 15.2673 14.3538 15.3597C14.3432 15.452 14.3689 15.5444 14.4264 15.617C14.484 15.6897 14.568 15.7374 14.6603 15.748C18.3415 16.181 20.3013 17.3489 20.3013 18.0257C20.3013 18.9756 16.5732 20.3003 10.5008 20.3003C4.42831 20.3003 0.700216 18.9749 0.700216 18.0257C0.700216 17.3489 2.66002 16.1817 6.34119 15.748C6.43354 15.7374 6.51756 15.6897 6.57509 15.617C6.63262 15.5444 6.65836 15.452 6.64776 15.3597C6.63717 15.2673 6.59023 15.1833 6.5168 15.1258C6.44413 15.0683 6.35179 15.0425 6.25943 15.0531C2.57448 15.4868 0 16.7093 0 18.0257C0 19.504 3.60699 21.0005 10.5 21.0005C17.393 21.0005 21 19.504 21 18.0257C21.0015 16.7093 18.427 15.4876 14.7421 15.0531Z" fill="#F5F4EC"/>
</svg>
