<svg width="23" height="23" viewBox="0 0 23 23" fill="none" xmlns="http://www.w3.org/2000/svg">
<path d="M19.742 12.8231C19.7422 14.6767 19.1927 16.4887 18.163 18.03C17.1333 19.5712 15.6696 20.7725 13.9571 21.4818C12.2446 22.1911 10.3603 22.3767 8.54232 22.015C6.72438 21.6533 5.05454 20.7605 3.744 19.4497C2.43346 18.1389 1.5411 16.4689 1.17977 14.6508C0.81845 12.8328 1.00439 10.9485 1.71409 9.23615C2.42379 7.52382 3.62537 6.06042 5.16683 5.03104C6.7083 4.00165 8.52042 3.45253 10.374 3.45313V12.8231H19.742Z" stroke="white" stroke-miterlimit="10"/>
<path d="M12.8555 1V10.443H22.1795C22.1795 10.443 22.5405 2.366 12.8555 1Z" stroke="white"/>
</svg>
