<svg width="30" height="30" viewBox="0 0 30 30" fill="none" xmlns="http://www.w3.org/2000/svg">
<path d="M24.1086 8.92118L24.002 8.81462C23.9406 8.75436 23.8579 8.72061 23.7718 8.72061C23.6857 8.72061 23.6031 8.75436 23.5416 8.81462L21.2208 11.1325C20.9134 11.4399 20.4965 11.6126 20.0618 11.6126C19.6271 11.6126 19.2101 11.4399 18.9027 11.1325L18.4423 10.6688C18.1349 10.3614 17.9622 9.94455 17.9622 9.50986C17.9622 9.07518 18.1349 8.65829 18.4423 8.35091L20.7571 6.03299C20.7847 6.00506 20.807 5.97228 20.8229 5.9363C20.8229 5.93235 20.8288 5.92906 20.8308 5.92446C20.8391 5.89867 20.8442 5.87193 20.8459 5.84487C20.8497 5.83039 20.8526 5.81567 20.8544 5.8008C20.8528 5.78881 20.8504 5.77695 20.8472 5.76528C20.8414 5.6912 20.81 5.62144 20.7584 5.56796L20.6597 5.4693C20.3065 5.11816 19.8489 4.89105 19.3556 4.82202C18.8623 4.753 18.36 4.8458 17.9239 5.08648L15.2045 6.50789C15.1889 6.51589 15.174 6.52512 15.1598 6.53551C13.5863 7.71157 13.4317 9.82427 13.9757 11.4483L13.7185 12.0455C13.44 12.6963 13.0394 13.2877 12.5384 13.7879L5.4578 20.8673C5.03364 21.2989 4.79716 21.8806 4.79983 22.4858C4.80249 23.0909 5.04408 23.6705 5.47202 24.0984C5.89996 24.5263 6.4796 24.7679 7.08479 24.7705C7.68999 24.7732 8.27173 24.5367 8.70342 24.1126L15.7814 17.0345C16.282 16.5335 16.874 16.133 17.5253 15.8545L18.1173 15.6013C18.677 15.7908 19.2636 15.889 19.8546 15.892C20.4649 15.9168 21.0725 15.7965 21.6273 15.5409C22.1821 15.2854 22.6684 14.9019 23.0463 14.422C23.0569 14.4078 23.0663 14.3929 23.0745 14.3772L24.4869 11.664C24.7299 11.2277 24.8244 10.7241 24.7562 10.2294C24.688 9.73461 24.4607 9.27546 24.1086 8.92118ZM17.2674 15.2514C16.5394 15.5628 15.8778 16.0106 15.3183 16.5708L8.23967 23.6496C7.93036 23.9468 7.51683 24.111 7.08783 24.1069C6.65883 24.1027 6.24856 23.9306 5.94506 23.6273C5.64157 23.3241 5.46905 22.914 5.46453 22.4851C5.46002 22.0561 5.62386 21.6425 5.9209 21.333L13.0022 14.2529C13.562 13.694 14.0097 13.0332 14.3211 12.306L14.3303 12.2843C14.5504 12.7011 14.8308 13.0832 15.1624 13.4182L16.1656 14.4193C16.4964 14.7472 16.8731 15.0253 17.2839 15.2448L17.2674 15.2514ZM23.9113 11.3522L22.5055 14.049C21.4971 15.3698 19.577 15.4402 18.2107 14.9436C17.6168 14.7333 17.076 14.3959 16.6261 13.955L15.6242 12.9552C15.18 12.5008 14.8413 11.9542 14.6322 11.3542C14.1402 9.99529 14.2132 8.08254 15.5315 7.07881L18.2344 5.66596C18.5181 5.50919 18.8417 5.43972 19.1647 5.46629C19.4877 5.49285 19.7957 5.61426 20.0499 5.81527L17.9752 7.88851C17.5448 8.31888 17.3031 8.90257 17.3031 9.51118C17.3031 10.1198 17.5448 10.7035 17.9752 11.1339L18.4357 11.5943C18.8661 12.0246 19.4498 12.2664 20.0585 12.2664C20.6672 12.2664 21.2509 12.0246 21.6813 11.5943L23.7573 9.51842C23.9628 9.77396 24.0872 10.0851 24.1145 10.4119C24.1419 10.7386 24.0708 11.0661 23.9106 11.3522H23.9113Z" fill="#B8B8B8"/>
<path d="M7.13551 21.4531C6.94022 21.4525 6.74912 21.5098 6.58643 21.6178C6.42373 21.7258 6.29675 21.8797 6.22156 22.0599C6.14638 22.2401 6.12637 22.4386 6.16407 22.6302C6.20177 22.8218 6.29548 22.9979 6.43335 23.1362C6.57121 23.2746 6.74701 23.3688 6.93851 23.4072C7.13 23.4455 7.32856 23.4262 7.50905 23.3516C7.68954 23.277 7.84384 23.1506 7.95241 22.9882C8.06098 22.8259 8.11893 22.635 8.11893 22.4398C8.11893 22.1787 8.01543 21.9282 7.83109 21.7433C7.64676 21.5583 7.39663 21.454 7.13551 21.4531ZM7.36706 22.668C7.32132 22.7147 7.26273 22.7466 7.19876 22.7599C7.13478 22.7731 7.06831 22.767 7.00783 22.7423C6.94734 22.7176 6.89559 22.6754 6.85916 22.6212C6.82272 22.567 6.80327 22.5031 6.80327 22.4378C6.80327 22.3725 6.82272 22.3086 6.85916 22.2544C6.89559 22.2002 6.94734 22.158 7.00783 22.1333C7.06831 22.1086 7.13478 22.1025 7.19876 22.1157C7.26273 22.1289 7.32132 22.1609 7.36706 22.2076C7.42706 22.2693 7.46046 22.3521 7.46009 22.4382C7.45972 22.5243 7.42561 22.6068 7.36508 22.668H7.36706Z" fill="#B8B8B8"/>
</svg>
