<svg width="19" height="19" viewBox="0 0 19 19" fill="none" xmlns="http://www.w3.org/2000/svg">
<path d="M16.4789 11.5445C16.8959 10.3177 17.1074 9.0379 17.1074 7.73573V3.34487C17.1074 3.16467 16.9779 3.01048 16.8005 2.97935L16.7763 2.97511C14.0325 2.49403 11.4375 1.51152 9.06319 0.0547922C8.94388 -0.0184246 8.79351 -0.018239 8.67435 0.0552004C6.31665 1.50877 3.73784 2.48835 1.00967 2.96673L0.937828 2.97931C0.760334 3.01044 0.630859 3.16463 0.630859 3.34487V7.73573C0.630859 10.2416 1.40637 12.64 2.87356 14.6715C4.34076 16.703 6.37365 18.1933 8.75247 18.9812C8.79036 18.9937 8.82977 19 8.86914 19C8.90863 19 8.94811 18.9937 8.98611 18.9811L8.99082 18.9795C9.86408 18.6898 10.7001 18.2996 11.4803 17.8186C12.2112 18.5483 13.2195 19 14.3314 19C16.5578 19 18.3691 17.1887 18.3691 14.9623C18.3691 13.5245 17.6136 12.2601 16.4789 11.5445ZM8.8691 18.2373C4.38002 16.6959 1.37305 12.4914 1.37305 7.73573V3.65529C4.03282 3.16025 6.55251 2.20239 8.86962 0.805441C11.1887 2.19704 13.7081 3.15469 16.3652 3.65474V7.73573C16.3652 8.9207 16.178 10.0857 15.8096 11.2047C15.4911 11.079 15.1528 10.9929 14.801 10.952C15.1495 9.91746 15.3261 8.83791 15.3261 7.73573V4.79555C15.3261 4.62377 15.2082 4.47444 15.0412 4.43459C12.9493 3.93547 10.9339 3.15324 9.05105 2.10958C8.93894 2.04742 8.80268 2.04757 8.69072 2.10987C6.80805 3.15751 4.79167 3.94048 2.69755 4.43696C2.53023 4.47663 2.41207 4.62607 2.41207 4.79804V7.73573C2.41207 9.76257 3.01131 11.7172 4.14504 13.3885C5.27458 15.0535 6.86045 16.3294 8.73117 17.0779C8.7754 17.0956 8.82223 17.1045 8.86903 17.1045C8.91582 17.1045 8.96266 17.0956 9.00693 17.0779C9.53421 16.8669 10.0435 16.6107 10.5269 16.3147C10.6449 16.6458 10.805 16.957 11.0006 17.242C10.3289 17.6473 9.614 17.9814 8.8691 18.2373ZM10.2937 14.9623C10.2937 15.1644 10.3088 15.3632 10.3376 15.5575C9.87328 15.8581 9.38077 16.1181 8.86903 16.3324C5.39236 14.8778 3.1543 11.5197 3.1543 7.73573V5.08961C5.14611 4.59167 7.06707 3.8418 8.87152 2.85763C10.6754 3.8378 12.595 4.58677 14.584 5.08668V7.73573C14.584 8.8358 14.3944 9.91134 14.0202 10.9364C11.9386 11.0958 10.2937 12.8406 10.2937 14.9623ZM14.3314 18.2578C12.5142 18.2578 11.0358 16.7795 11.0358 14.9623C11.0358 13.1451 12.5142 11.6667 14.3314 11.6667C16.1486 11.6667 17.627 13.1451 17.627 14.9623C17.627 16.7794 16.1486 18.2578 14.3314 18.2578Z" fill="#F5F4EC"/>
</svg>
