<svg width="21" height="23" viewBox="0 0 21 23" fill="none" xmlns="http://www.w3.org/2000/svg">
<path d="M8.32422 13.9244C8.32422 12.5601 9.36483 11.5 10.5824 11.5C11.8 11.5 12.8406 12.5601 12.8406 13.9244C12.8406 15.2887 11.8 16.3488 10.5824 16.3488C9.36483 16.3488 8.32422 15.2887 8.32422 13.9244Z" stroke="#E02A31"/>
<path d="M14.6606 21.9608L14.6606 21.9616C14.6658 22.0436 14.6685 22.1265 14.6685 22.2102V22.2379H6.5V22.2102C6.5 20.0305 8.26684 18.2637 10.4465 18.2637H10.7222C11.6058 18.2637 12.4202 18.5534 13.0773 19.0432L13.0773 19.0432C13.982 19.7173 14.5865 20.7677 14.6606 21.9608Z" stroke="#E02A31"/>
<path d="M1.69531 9.91378C1.69531 9.10669 2.30833 8.5 3.00032 8.5C3.69232 8.5 4.30534 9.1067 4.30534 9.91378C4.30534 10.7209 3.6923 11.3276 3.00032 11.3276C2.30833 11.3276 1.69531 10.7209 1.69531 9.91378Z" stroke="#E02A31"/>
<path d="M5.49503 15.181H0.504882C0.58461 13.9221 1.63084 12.9258 2.9099 12.9258C2.9099 12.9258 2.9099 12.9258 2.9099 12.9258H3.09029C3.63011 12.9258 4.12705 13.1026 4.52824 13.4017L4.52829 13.4017C5.08059 13.8132 5.44924 14.4538 5.49503 15.181Z" stroke="#E02A31"/>
<path d="M16.6953 7.91378C16.6953 7.10669 17.3083 6.5 18.0003 6.5C18.6923 6.5 19.3053 7.1067 19.3053 7.91378C19.3053 8.72086 18.6923 9.32756 18.0003 9.32756C17.3083 9.32756 16.6953 8.72087 16.6953 7.91378Z" stroke="#E02A31"/>
<path d="M20.495 13.181H15.5049C15.5846 11.9221 16.6308 10.9258 17.9099 10.9258C17.9099 10.9258 17.9099 10.9258 17.9099 10.9258H18.0903C18.6301 10.9258 19.127 11.1026 19.5282 11.4017L19.5283 11.4017C20.0806 11.8132 20.4492 12.4538 20.495 13.181Z" stroke="#E02A31"/>
<path d="M7.69531 1.91378C7.69531 1.10669 8.30833 0.5 9.00032 0.5C9.69232 0.5 10.3053 1.1067 10.3053 1.91378C10.3053 2.72086 9.6923 3.32756 9.00032 3.32756C8.30833 3.32756 7.69531 2.72087 7.69531 1.91378Z" stroke="#E02A31"/>
<path d="M11.495 7.18102H6.50488C6.58461 5.9221 7.63084 4.9258 8.9099 4.92578C8.9099 4.92578 8.9099 4.92578 8.9099 4.92578H9.09029C9.63011 4.92578 10.127 5.10265 10.5282 5.40167L10.5283 5.4017C11.0806 5.81324 11.4492 6.45378 11.495 7.18102Z" stroke="#E02A31"/>
</svg>
