<svg width="78" height="78" viewBox="0 0 78 78" fill="none" xmlns="http://www.w3.org/2000/svg">
<circle cx="39" cy="39" r="39" fill="white"/>
<path d="M17.4121 43.509C17.478 43.5018 17.5443 43.5184 17.5991 43.5559C17.6156 43.5722 17.6286 43.5919 17.637 43.6136C17.6454 43.6353 17.6492 43.6585 17.6481 43.6817V45.0321H14.1707V43.6817C14.1695 43.6585 14.1732 43.6352 14.1817 43.6135C14.1901 43.5918 14.2031 43.5722 14.2197 43.5559C14.2743 43.5183 14.3405 43.5017 14.4063 43.509V43.4229H13.1094V43.509C13.1751 43.5017 13.2412 43.5183 13.2956 43.5559C13.3123 43.5722 13.3254 43.5918 13.334 43.6135C13.3426 43.6352 13.3464 43.6584 13.3454 43.6817V46.9427C13.3465 46.9659 13.3427 46.9892 13.3341 47.0108C13.3255 47.0325 13.3124 47.052 13.2956 47.0682C13.2413 47.106 13.1751 47.1227 13.1094 47.115V47.2009H14.4063V47.115C14.3405 47.1228 14.2741 47.1061 14.2197 47.0682C14.203 47.052 14.19 47.0324 14.1816 47.0108C14.1731 46.9891 14.1694 46.9659 14.1707 46.9427V45.5058H17.6481V46.9427C17.6493 46.9659 17.6455 46.9891 17.6371 47.0107C17.6286 47.0323 17.6156 47.0519 17.5991 47.0682C17.5445 47.106 17.478 47.1226 17.4121 47.115V47.2009H18.709V47.115C18.6433 47.1226 18.5771 47.1059 18.5228 47.0682C18.5062 47.0519 18.4932 47.0324 18.4848 47.0107C18.4763 46.9891 18.4726 46.9659 18.4738 46.9427V43.6817C18.4726 43.6585 18.4764 43.6353 18.4849 43.6136C18.4933 43.5919 18.5062 43.5722 18.5228 43.5559C18.5772 43.5184 18.6433 43.5018 18.709 43.509V43.4229H17.4121V43.509Z" fill="#D1986D"/>
<path d="M26.1154 43.3919C26.0098 43.4206 25.9003 43.4314 25.7911 43.424H21.6758V43.5102C21.7417 43.5029 21.8081 43.5196 21.8628 43.5571C21.8793 43.5734 21.8922 43.5931 21.9006 43.6148C21.9091 43.6365 21.9129 43.6597 21.9118 43.6829V46.9439C21.9129 46.9671 21.9091 46.9902 21.9007 47.0119C21.8923 47.0335 21.8793 47.0531 21.8628 47.0694C21.8082 47.1072 21.7417 47.1239 21.6758 47.1162V47.2035H25.8401C26.0695 47.2035 26.1841 47.2492 26.1838 47.3405H26.3016V46.4856H26.1853C26.1888 46.5234 26.1815 46.5615 26.164 46.5952C26.1466 46.629 26.1198 46.657 26.0869 46.676C25.9909 46.7175 25.8865 46.7358 25.7821 46.7293H22.7379V45.5081H24.7514C24.8515 45.5021 24.9517 45.5168 25.0457 45.5514C25.0741 45.5645 25.0977 45.586 25.1135 45.6129C25.1293 45.6398 25.1366 45.6709 25.1344 45.7021H25.2522V44.8335H25.1344C25.1357 44.8686 25.1253 44.9032 25.1048 44.9318C25.0843 44.9604 25.0549 44.9814 25.0213 44.9914C24.9285 45.0226 24.8309 45.0371 24.733 45.0343H22.7389V43.8996H25.8012C25.9057 43.8901 26.0108 43.9086 26.1057 43.9533C26.1304 43.9689 26.1507 43.9907 26.1645 44.0165C26.1783 44.0423 26.1853 44.0712 26.1846 44.1005H26.3024V43.2812H26.1853C26.1865 43.3047 26.1804 43.3279 26.1679 43.3477C26.1554 43.3675 26.137 43.383 26.1154 43.3919Z" fill="#D1986D"/>
<path d="M34.0475 46.9288L32.9887 45.5284C33.3671 45.5183 33.7349 45.4009 34.0493 45.1898C34.1555 45.1037 34.2401 44.9939 34.2964 44.8693C34.3527 44.7447 34.3791 44.6086 34.3735 44.4719C34.3796 44.316 34.3436 44.1613 34.2693 44.0241C34.195 43.8869 34.0852 43.7723 33.9513 43.6924C33.5188 43.4796 33.0373 43.3865 32.5567 43.4227H29.2656V43.5088C29.3316 43.5014 29.398 43.5181 29.4526 43.5557C29.4692 43.572 29.4821 43.5917 29.4905 43.6134C29.499 43.6351 29.5028 43.6583 29.5016 43.6815V46.9425C29.5028 46.9657 29.499 46.9889 29.4906 47.0105C29.4821 47.0322 29.4692 47.0517 29.4526 47.068C29.3981 47.106 29.3316 47.1226 29.2656 47.1149V47.2007H30.5626V47.1149C30.4968 47.1226 30.4304 47.1059 30.376 47.068C30.3593 47.0518 30.3463 47.0322 30.3378 47.0106C30.3294 46.9889 30.3257 46.9657 30.327 46.9425V45.5637H32.1337L33.1627 46.9699C33.1767 46.9781 33.1886 46.9896 33.1973 47.0035C33.2059 47.0173 33.2111 47.033 33.2124 47.0492C33.2128 47.0605 33.2096 47.0715 33.203 47.0807C33.1965 47.0898 33.1871 47.0965 33.1764 47.0997C33.1234 47.1128 33.0687 47.1177 33.0142 47.1141V47.1999H34.4286V47.1141C34.3564 47.1191 34.284 47.1067 34.2175 47.0781C34.1541 47.0366 34.0969 46.9863 34.0475 46.9288ZM30.327 45.0755V43.9119H32.4292C32.6178 43.9096 32.8065 43.9202 32.9937 43.9437C33.1149 43.9575 33.2329 43.9916 33.3428 44.0446C33.4183 44.0805 33.4802 44.1397 33.5197 44.2134C33.5544 44.2898 33.5712 44.3732 33.5687 44.4571C33.5709 44.5476 33.5493 44.637 33.5061 44.7165C33.4629 44.7959 33.3997 44.8627 33.3226 44.91C33.0618 45.0422 32.7695 45.0995 32.4781 45.0755H30.327Z" fill="#D1986D"/>
<path d="M37.3008 43.509C37.3667 43.5017 37.4331 43.5183 37.4878 43.5559C37.5043 43.5722 37.5172 43.5919 37.5257 43.6136C37.5341 43.6353 37.5379 43.6585 37.5368 43.6817V46.9427C37.538 46.9659 37.5342 46.9891 37.5258 47.0107C37.5173 47.0323 37.5044 47.0519 37.4878 47.0682C37.4332 47.106 37.3667 47.1227 37.3008 47.115V47.2009H38.5978V47.115C38.5319 47.1225 38.4656 47.1059 38.4111 47.0682C38.3946 47.0519 38.3816 47.0323 38.3732 47.0107C38.3648 46.9891 38.361 46.9659 38.3621 46.9427V43.6817C38.3611 43.6585 38.3649 43.6353 38.3733 43.6136C38.3817 43.5919 38.3946 43.5723 38.4111 43.5559C38.4658 43.5185 38.532 43.5019 38.5978 43.509V43.4229H37.3008V43.509Z" fill="#D1986D"/>
<path d="M45.6296 43.4234H41.5041C41.275 43.4234 41.1604 43.3613 41.1604 43.2373H41.043V44.0843H41.1604C41.1574 44.0547 41.1633 44.025 41.1773 43.9988C41.1913 43.9726 41.2128 43.9511 41.239 43.9372C41.3236 43.9056 41.414 43.8923 41.5041 43.8982H43.1545V46.9436C43.1557 46.9668 43.1519 46.9901 43.1433 47.0117C43.1347 47.0334 43.1216 47.0529 43.1048 47.069C43.0505 47.1069 42.9842 47.1235 42.9185 47.1159V47.2017H44.2155V47.1174C44.1494 47.1249 44.0829 47.1083 44.0282 47.0705C44.0116 47.0542 43.9986 47.0347 43.9902 47.013C43.9817 46.9914 43.978 46.9682 43.9792 46.945V43.8997H45.6299C45.7201 43.8937 45.8104 43.907 45.8951 43.9386C45.9213 43.9526 45.9427 43.974 45.9567 44.0002C45.9707 44.0264 45.9766 44.0562 45.9736 44.0857H46.0914V43.2387H45.9736C45.9734 43.3621 45.8587 43.4236 45.6296 43.4234Z" fill="#D1986D"/>
<path d="M53.5817 47.0656C53.5458 47.0341 53.5145 46.9977 53.4887 46.9575C53.4556 46.9095 53.4098 46.8428 53.3511 46.7559L51.4654 43.8977C51.4132 43.8159 51.3707 43.7535 51.3379 43.7066C51.3109 43.6753 51.2939 43.6366 51.2889 43.5956C51.2889 43.5382 51.3411 43.509 51.4463 43.509V43.4229H50.0121V43.509C50.1299 43.509 50.1894 43.5382 50.1894 43.5956C50.1849 43.6308 50.1712 43.6643 50.1497 43.6926L50.0319 43.8754L48.2543 46.7779C48.2014 46.854 48.1592 46.9149 48.1268 46.9607C48.1007 46.9983 48.0711 47.0332 48.0382 47.0649C48.0151 47.0872 47.9861 47.1024 47.9546 47.1086C47.9205 47.1133 47.886 47.1156 47.8516 47.1154V47.2012H49.0595V47.1154C48.9479 47.1154 48.8931 47.0891 48.8931 47.0364C48.8988 46.9923 48.9155 46.9502 48.9417 46.9142C48.9745 46.8616 49.0041 46.8136 49.0304 46.77L49.364 46.1952H52.1442L52.5174 46.77C52.5693 46.8558 52.6039 46.9124 52.6205 46.9387C52.6353 46.9613 52.6438 46.9875 52.645 47.0144C52.6456 47.0294 52.6422 47.0442 52.6353 47.0575C52.6283 47.0707 52.618 47.0819 52.6053 47.0898C52.5556 47.1108 52.5016 47.1193 52.4479 47.1147V47.2005H53.8133V47.1147C53.7673 47.1152 53.7214 47.1129 53.6757 47.1078C53.6412 47.1024 53.6087 47.0878 53.5817 47.0656ZM49.6774 45.7229L50.6991 44.0282L51.8091 45.7229H49.6774Z" fill="#D1986D"/>
<path d="M58.9597 45.0899H58.8419V45.9384H58.9597C58.9597 45.8328 59.0743 45.7799 59.3034 45.7797H60.4329V46.3205C60.1666 46.4606 59.8825 46.5638 59.5884 46.6274C59.2079 46.7124 58.8189 46.7532 58.4291 46.7489C58.1737 46.7496 57.9194 46.717 57.6725 46.6519C57.4447 46.5935 57.2276 46.4991 57.0294 46.3725C56.8484 46.256 56.6945 46.1021 56.578 45.921C56.4614 45.7357 56.4015 45.5202 56.4058 45.3012C56.4039 45.1064 56.4488 44.9139 56.5365 44.7399C56.6243 44.566 56.7524 44.4156 56.9102 44.3014C57.1105 44.1572 57.3352 44.0504 57.5734 43.9862C57.8838 43.902 58.2045 43.8623 58.526 43.8683C58.7828 43.8667 59.0393 43.8883 59.2923 43.9329C59.5003 43.969 59.7051 44.0218 59.9047 44.0908C60.0467 44.1389 60.1832 44.2016 60.3122 44.2779C60.4105 44.34 60.4592 44.393 60.4592 44.4359C60.4604 44.4523 60.4574 44.4688 60.4506 44.4839C60.4438 44.4989 60.4334 44.512 60.4203 44.522L60.5381 44.5797L61.2262 43.8395L61.1077 43.7825C61.0891 43.8055 61.0677 43.826 61.0439 43.8435C61.0097 43.863 60.9704 43.8718 60.9311 43.8687C60.8464 43.8612 60.7643 43.8353 60.6905 43.793C60.5519 43.7277 60.4093 43.6714 60.2636 43.6242C60.0339 43.5506 59.7991 43.4942 59.561 43.4555C59.2119 43.4006 58.8588 43.3755 58.5054 43.3805C58.1139 43.3765 57.7237 43.4273 57.3461 43.5312C57.0189 43.6193 56.7087 43.7613 56.4281 43.9513C56.1834 44.1159 55.9759 44.33 55.8189 44.5797C55.6729 44.8146 55.5962 45.0859 55.5977 45.3625C55.5956 45.6333 55.6744 45.8985 55.824 46.124C55.9869 46.3658 56.2015 46.5683 56.4523 46.7168C56.7476 46.893 57.0693 47.0204 57.4052 47.094C57.7983 47.1831 58.2004 47.2265 58.6034 47.2234C59.0613 47.2182 59.5174 47.165 59.9642 47.0648C60.4739 46.9532 60.9629 46.7616 61.4128 46.4972V46.4107C61.3632 46.4074 61.3156 46.39 61.2756 46.3606C61.2424 46.3152 61.2282 46.2587 61.2359 46.203V45.5781C61.229 45.5239 61.2418 45.469 61.272 45.4235C61.3146 45.3959 61.3657 45.3843 61.4161 45.3906V45.3052H59.3042C59.0745 45.3057 58.9597 45.2339 58.9597 45.0899Z" fill="#D1986D"/>
<path d="M68.2462 43.8977C68.3506 43.8881 68.4557 43.9067 68.5506 43.9514C68.5753 43.967 68.5955 43.9888 68.6093 44.0146C68.6231 44.0403 68.6299 44.0693 68.6291 44.0985H68.7477V43.2793H68.6291C68.6306 43.3028 68.6248 43.3261 68.6125 43.3461C68.6002 43.3662 68.582 43.3819 68.5603 43.3911C68.4548 43.4197 68.3452 43.4305 68.2361 43.4232H64.1211V43.5093C64.187 43.5021 64.2533 43.5187 64.3081 43.5562C64.3246 43.5726 64.3375 43.5923 64.3459 43.6139C64.3544 43.6356 64.3582 43.6588 64.3571 43.6821V46.943C64.3582 46.9662 64.3544 46.9894 64.346 47.011C64.3376 47.0326 64.3246 47.0522 64.3081 47.0685C64.2535 47.1063 64.187 47.123 64.1211 47.1154V47.2026H68.2858C68.5145 47.2026 68.6289 47.2483 68.6291 47.3396H68.7477V46.4847H68.6291C68.6327 46.5226 68.6253 46.5606 68.6079 46.5944C68.5904 46.6281 68.5637 46.6561 68.5308 46.6751C68.4349 46.7166 68.3306 46.7349 68.2264 46.7285H65.1817V45.5072H67.1953C67.2956 45.5013 67.396 45.516 67.4903 45.5505C67.5185 45.5638 67.542 45.5854 67.5577 45.6122C67.5734 45.6391 67.5807 45.6701 67.5786 45.7012H67.6961V44.8326H67.5786C67.58 44.8678 67.5696 44.9024 67.5491 44.931C67.5286 44.9596 67.4992 44.9806 67.4655 44.9905C67.3727 45.0217 67.2751 45.0362 67.1773 45.0335H65.1835V43.8988L68.2462 43.8977Z" fill="#D1986D"/>
<path d="M38.0015 29.627C37.6957 29.956 37.3677 30.2941 37.0176 30.6412C36.6674 30.9883 36.3011 31.3338 35.9187 31.6775C35.5371 32.021 35.1556 32.3575 34.7742 32.6871C34.3928 33.0166 34.0265 33.3182 33.6753 33.5917C32.8815 32.8968 32.1299 32.2286 31.4204 31.587C30.7109 30.9454 30.0128 30.2924 29.3262 29.628C29.3262 29.628 27.5533 29.681 26.8086 29.628C26.9609 29.7509 27.1821 29.9324 27.4722 30.1725C27.7624 30.4126 28.0866 30.6837 28.4449 30.9856C28.8038 31.2877 29.1816 31.6048 29.5784 31.9367C29.9751 32.2687 30.3528 32.5854 30.7114 32.8868C31.0693 33.1885 31.3973 33.4635 31.6957 33.7118C31.994 33.9601 32.2191 34.1489 32.3712 34.2783C32.3629 34.7798 32.1878 37.4967 32.1878 37.4967C32.5384 37.4813 32.9123 37.4738 33.3093 37.4743C33.7063 37.4748 34.0802 37.4822 34.4308 37.4967C34.4308 37.4967 34.2763 35.3884 34.2507 34.4816C34.2507 34.3702 34.2485 34.2588 34.2485 34.1524C34.4923 33.9156 34.7823 33.6503 35.1186 33.3563C35.4548 33.0623 35.8439 32.732 36.2858 32.3655C36.7283 31.9991 37.2395 31.5905 37.8195 31.1395C38.3996 30.6886 39.0557 30.1844 39.788 29.627C39.193 29.6618 38.5965 29.6618 38.0015 29.627Z" fill="#D1986D"/>
<path d="M22.871 29.6279C22.6728 29.6434 22.4815 29.6571 22.2988 29.6683C22.1162 29.6795 21.9321 29.6863 21.7494 29.6863C21.5668 29.6863 21.3834 29.6799 21.1997 29.6683C21.0159 29.6568 20.8268 29.6438 20.6279 29.6279C20.6279 29.6452 20.6304 29.6615 20.6322 29.6773C20.6322 29.7253 20.6683 31.1019 20.6874 32.7097H20.6978V32.9444H20.6874C20.6874 33.0396 20.6895 33.1352 20.691 33.2329L18.4187 33.2549C17.7076 33.2617 16.9697 33.2653 16.2121 33.266H16.0273H15.8425C15.0859 33.266 14.3466 33.2617 13.6358 33.2549L11.5019 33.2343H11.3643H11.3625L11.3643 32.9992L11.369 32.5471V32.5305C11.3895 31.0024 11.4209 29.726 11.422 29.6802C11.422 29.6643 11.4248 29.6481 11.4266 29.6308C11.2278 29.6463 11.0379 29.66 10.8545 29.6712C10.6711 29.6824 10.4881 29.6892 10.3055 29.6892C10.1228 29.6892 9.93908 29.6827 9.75642 29.6712C9.57376 29.6597 9.38174 29.6467 9.18359 29.6308C9.18792 29.6726 9.19116 29.7137 9.19476 29.7552C9.37838 31.9832 9.40583 34.2213 9.2769 36.4531C9.24736 36.8057 9.2171 37.1562 9.18359 37.4987C9.53474 37.4833 9.90881 37.4759 10.3058 37.4764C10.7028 37.4768 11.0767 37.4843 11.4274 37.4987C11.4183 37.4079 11.4101 37.3152 11.4018 37.2236C11.3535 36.4956 11.347 35.1493 11.3571 33.7903V33.7683H11.36C11.4166 33.7683 11.4713 33.7683 11.5279 33.7683C12.2484 33.7625 12.956 33.7571 13.6372 33.7539C14.407 33.7498 15.2042 33.7479 16.0287 33.7481C16.8533 33.7484 17.6504 33.7503 18.4202 33.7539C19.1206 33.7575 19.8461 33.7625 20.5905 33.7694C20.6265 33.7694 20.6625 33.7694 20.6985 33.7694C20.6985 33.8354 20.6985 33.901 20.7003 33.967V33.7387C20.7104 35.115 20.7047 36.4859 20.656 37.2233C20.6477 37.3148 20.6395 37.4071 20.6304 37.4984C20.9817 37.4832 21.3546 37.476 21.752 37.476C22.1493 37.476 22.5226 37.4832 22.8735 37.4984C22.8407 37.1547 22.8094 36.8046 22.7805 36.4527C22.6519 34.2209 22.6793 31.9828 22.8627 29.7549C22.8641 29.7123 22.8674 29.6698 22.871 29.6279Z" fill="#D1986D"/>
<path d="M72.9097 36.8435C72.5432 36.8815 72.1122 36.9099 71.6167 36.9289C71.1212 36.9479 70.5947 36.9632 70.0373 36.9747C69.4805 36.9865 68.9121 36.9921 68.3321 36.9917H64.4336C64.3763 36.5229 64.3616 35.4773 64.3648 34.3433V34.3354C64.3648 34.1551 64.3673 33.9748 64.3684 33.792C66.2562 33.7963 69.8568 33.8349 71.4542 33.8526C71.7478 33.8645 72.0194 33.8767 72.2641 33.8908H72.2677C72.2659 33.8825 72.2641 33.8724 72.2626 33.8623C72.2499 33.6409 72.2511 33.419 72.2662 33.1978C72.266 33.1959 72.266 33.1939 72.2662 33.192C71.93 33.2072 71.5751 33.2204 71.2016 33.2317C70.8282 33.243 70.4199 33.255 69.9767 33.2677C69.6349 33.2761 69.266 33.2838 68.87 33.2908C68.5457 33.2944 68.2118 33.298 67.8774 33.2998C67.5139 33.3016 67.0488 33.3031 66.5729 33.3042C65.7374 33.3042 64.9391 33.2908 64.3713 33.2634L64.3738 33.0871H64.3709C64.3738 32.8953 64.3763 32.7056 64.3796 32.5214C64.3994 31.2709 64.4271 30.2451 64.4297 30.168C65.1837 30.168 68.161 30.1737 68.6942 30.1853C69.2274 30.1968 69.7206 30.2098 70.1713 30.2249C70.622 30.2401 71.0482 30.2556 71.4531 30.2707C71.8581 30.2859 72.3037 30.3017 72.7919 30.3165C72.7861 30.2949 72.7818 30.2707 72.7775 30.2473C72.7696 30.0411 72.7744 29.8345 72.7919 29.6289C72.1052 29.6445 71.4261 29.658 70.7545 29.6693C70.083 29.6806 69.4039 29.6866 68.7172 29.6873C68.0327 29.6873 65.0014 29.6808 64.3219 29.6693C63.6425 29.6578 62.9601 29.6448 62.2734 29.6289C62.4283 31.6321 62.478 33.642 62.4222 35.6504C62.415 35.7798 62.4093 35.9103 62.3992 36.039C62.3607 36.5239 62.3188 37.0105 62.2734 37.499C62.2734 37.499 69.9872 37.4716 72.2889 37.4885C72.4947 37.4921 72.7007 37.495 72.9068 37.499C72.9043 37.4885 72.9025 37.4763 72.8996 37.4651C72.8873 37.2603 72.8896 37.0548 72.9064 36.8503L72.9097 36.8435Z" fill="#D1986D"/>
<path d="M55.9281 30.6409C55.2201 30.275 54.4594 30.0218 53.6735 29.8906C52.5807 29.7 51.4725 29.6116 50.3634 29.6266C50.1285 29.6266 49.895 29.6299 49.6594 29.6331C49.6594 29.6331 47.4214 29.6522 45.6482 29.6504C45.3765 29.6504 44.3152 29.6371 43.8407 29.6313C43.8003 29.6313 43.7607 29.6295 43.72 29.6281H43.6094C43.6094 29.6281 43.8043 31.2239 43.8551 32.6698C43.8803 33.7638 43.8825 35.0102 43.8237 36.1626C43.7853 36.6102 43.7238 37.0555 43.6396 37.4967H43.7196C43.7196 37.4967 47.7907 37.4841 48.4348 37.4899H48.4237C48.816 37.4949 49.2119 37.4978 49.6126 37.4978C50.5216 37.4948 51.4293 37.4281 52.329 37.298C53.2185 37.1789 54.0898 36.9499 54.9229 36.6162C55.6493 36.334 56.3086 35.9029 56.8586 35.3506C57.1069 35.0957 57.3017 34.7937 57.4316 34.4624C57.5615 34.131 57.624 33.7771 57.6152 33.4212C57.6234 32.8656 57.483 32.3178 57.2085 31.8347C56.8991 31.3269 56.4561 30.9139 55.9281 30.6409ZM54.862 35.2681C54.4365 35.7613 53.9014 36.1479 53.2995 36.3966C52.6079 36.6859 51.8786 36.8748 51.1336 36.9577C50.331 37.0566 49.5231 37.1062 48.7144 37.1062C48.1567 37.1062 47.6143 37.0967 47.0871 37.0777C46.5599 37.0587 46.142 37.03 45.8333 36.9916C45.8185 36.8599 45.807 36.7273 45.7951 36.5949C45.7101 35.0416 45.7995 31.2092 45.8211 30.338C45.825 30.302 45.829 30.2601 45.833 30.2226C46.2871 30.1924 46.8002 30.1657 47.372 30.1426C47.9439 30.1195 48.5598 30.1075 49.2199 30.1065C50.0576 30.1027 50.8948 30.1509 51.7266 30.2508C52.4048 30.3238 53.0682 30.4978 53.6951 30.7667C54.2081 30.9858 54.6552 31.335 54.9921 31.7799C55.3234 32.2602 55.4896 32.8353 55.4655 33.4183C55.4946 34.0877 55.2802 34.7449 54.862 35.2681Z" fill="#D1986D"/>
<path d="M27.8662 51.0975C27.8662 51.113 27.8662 51.1588 27.7354 51.1588H25.7813C25.6505 51.1588 25.6505 51.113 25.6505 51.0975V51.0654H25.5312V51.5526H25.6509V51.5201C25.6509 51.4898 25.6613 51.4801 25.671 51.475C25.7063 51.4619 25.7441 51.4564 25.7816 51.4592H26.5314V52.9458C26.5319 52.953 26.531 52.9602 26.5286 52.967C26.5263 52.9739 26.5225 52.9801 26.5177 52.9854C26.5133 52.9901 26.4986 52.9999 26.4517 52.9999H26.42V53.108H27.0981V52.9999H27.066C27.0188 52.9999 27.004 52.9901 27.0001 52.9854C26.9949 52.9803 26.991 52.974 26.9885 52.9672C26.986 52.9603 26.9851 52.9531 26.9857 52.9458V51.4592H27.7354C27.7731 51.4564 27.8109 51.4618 27.8463 51.475C27.8557 51.4801 27.8662 51.4895 27.8662 51.5201V51.5526H27.9861V51.0654H27.8662V51.0975Z" fill="#D1986D"/>
<path d="M31.4152 51.2665H31.4466C31.4941 51.2665 31.5089 51.277 31.5132 51.2813C31.518 51.2867 31.5217 51.2931 31.524 51.3C31.5264 51.3068 31.5274 51.3141 31.5269 51.3213V51.9621H29.9417V51.3213C29.9411 51.3141 29.942 51.3068 29.9443 51.2999C29.9467 51.293 29.9504 51.2867 29.9554 51.2813C29.9597 51.277 29.9745 51.2665 30.0213 51.2665H30.053V51.1602H29.375V51.2665H29.4071C29.4535 51.2665 29.4683 51.277 29.473 51.2813C29.4778 51.2867 29.4816 51.293 29.4839 51.2999C29.4863 51.3068 29.4872 51.3141 29.4867 51.3213V52.9471C29.4872 52.9543 29.4862 52.9615 29.4839 52.9683C29.4815 52.9752 29.4778 52.9814 29.473 52.9868C29.4683 52.9915 29.4535 53.0012 29.4071 53.0012H29.375V53.1094H30.053V53.0012H30.0213C29.9745 53.0012 29.9594 52.9915 29.9554 52.9868C29.9503 52.9816 29.9465 52.9753 29.9441 52.9685C29.9418 52.9616 29.9409 52.9543 29.9417 52.9471V52.262H31.5269V52.9471C31.5273 52.9544 31.5263 52.9616 31.5238 52.9685C31.5213 52.9753 31.5175 52.9815 31.5125 52.9868C31.5085 52.9915 31.4937 53.0012 31.4462 53.0012H31.4148V53.1094H32.0929V53.0012H32.0612C32.0136 53.0012 31.9992 52.9915 31.9945 52.9868C31.9897 52.9815 31.986 52.9752 31.9837 52.9684C31.9814 52.9615 31.9805 52.9543 31.9812 52.9471V51.3213C31.9804 51.3141 31.9813 51.3067 31.9836 51.2998C31.986 51.2929 31.9898 51.2866 31.9949 51.2813C31.9992 51.2763 32.0136 51.2665 32.0608 51.2665H32.0925V51.1602H31.4145L31.4152 51.2665Z" fill="#D1986D"/>
<path d="M35.9915 51.3925C35.852 51.3038 35.6985 51.2394 35.5375 51.2022C35.1648 51.1175 34.7779 51.1175 34.4052 51.2022C34.2442 51.2393 34.0906 51.3037 33.9512 51.3925C33.8271 51.4718 33.7232 51.5791 33.6479 51.7059C33.5765 51.8372 33.5391 51.9843 33.5391 52.1339C33.5391 52.2834 33.5765 52.4305 33.6479 52.5619C33.7229 52.6883 33.8269 52.795 33.9512 52.8734C34.0909 52.9609 34.2446 53.0237 34.4055 53.0587C34.7784 53.1387 35.1639 53.1387 35.5368 53.0587C35.698 53.0238 35.8518 52.9611 35.9915 52.8734C36.1157 52.795 36.2195 52.6882 36.2944 52.5619C36.3661 52.4306 36.4037 52.2834 36.4037 52.1339C36.4037 51.9843 36.3661 51.8371 36.2944 51.7059C36.2193 51.5792 36.1155 51.4718 35.9915 51.3925ZM35.6849 52.6333C35.4665 52.7547 35.2208 52.8184 34.971 52.8184C34.7212 52.8184 34.4755 52.7547 34.2571 52.6333C34.1809 52.5738 34.1193 52.4978 34.0769 52.4109C34.0345 52.324 34.0124 52.2286 34.0124 52.1319C34.0124 52.0352 34.0345 51.9398 34.0769 51.8529C34.1193 51.766 34.1809 51.69 34.2571 51.6305C34.4755 51.5092 34.7212 51.4456 34.971 51.4456C35.2208 51.4456 35.4664 51.5092 35.6849 51.6305C35.7613 51.6898 35.8232 51.7658 35.8658 51.8527C35.9083 51.9396 35.9305 52.0351 35.9305 52.1319C35.9305 52.2287 35.9083 52.3242 35.8658 52.4111C35.8232 52.498 35.7613 52.574 35.6849 52.6333Z" fill="#D1986D"/>
<path d="M39.9387 51.2654H39.9693C40.018 51.2654 40.032 51.2766 40.0356 51.2802C40.0404 51.2857 40.0439 51.292 40.0462 51.2989C40.0484 51.3058 40.0492 51.313 40.0486 51.3202V52.5397L38.632 51.2961C38.6229 51.2895 38.6146 51.2819 38.6072 51.2734C38.6252 51.2676 38.6441 51.2654 38.663 51.2669H38.6951V51.1605H37.8438V51.2669H37.8758C37.9226 51.2669 37.9371 51.2773 37.941 51.2817C37.9462 51.2869 37.9501 51.2932 37.9526 51.3001C37.9551 51.307 37.9561 51.3144 37.9554 51.3217V52.9475C37.956 52.9547 37.955 52.962 37.9526 52.9688C37.9502 52.9756 37.9464 52.9819 37.9414 52.9871C37.9371 52.9918 37.9223 53.0016 37.8754 53.0016H37.8438V53.1097H38.4656V53.0016H38.4342C38.3874 53.0016 38.3723 52.9918 38.3683 52.9882C38.3634 52.9827 38.3597 52.9762 38.3574 52.9692C38.355 52.9622 38.3541 52.9548 38.3546 52.9475V51.5564L39.9546 52.9572C39.9642 52.968 39.9746 52.9778 39.9859 52.9868C39.9885 52.9893 39.9907 52.9923 39.9924 52.9954C39.9727 53.0003 39.9525 53.0023 39.9322 53.0012H39.9005V53.1094H40.5595V53.0012H40.5281C40.4809 53.0012 40.4662 52.9915 40.4622 52.9868C40.4571 52.9816 40.4532 52.9754 40.4507 52.9685C40.4483 52.9617 40.4474 52.9544 40.4481 52.9471V51.3213C40.4473 51.314 40.4482 51.3066 40.4507 51.2996C40.4532 51.2927 40.4572 51.2864 40.4625 51.2813C40.4662 51.2763 40.4809 51.2665 40.5281 51.2665H40.5595V51.1602H39.9373L39.9387 51.2654Z" fill="#D1986D"/>
<path d="M43.6231 52.0226V51.9912H43.5038V52.4776H43.6231V52.4455C43.6231 52.4044 43.7052 52.3983 43.7539 52.3983H44.2575V52.6182C44.1391 52.6813 44.0129 52.7285 43.8821 52.7585C43.7051 52.8005 43.5236 52.8206 43.3417 52.8184C43.2235 52.8187 43.1058 52.8029 42.9919 52.7715C42.8865 52.7431 42.7864 52.6975 42.6957 52.6366C42.613 52.58 42.5433 52.5062 42.4915 52.4203C42.4389 52.3317 42.4122 52.2302 42.4144 52.1271C42.4143 52.0383 42.433 51.9504 42.4695 51.8693C42.5093 51.7847 42.5684 51.7106 42.6421 51.653C42.7331 51.5844 42.8359 51.533 42.9454 51.5012C43.0891 51.4603 43.2381 51.441 43.3875 51.4439C43.5072 51.4432 43.6268 51.4539 43.7445 51.476C43.8418 51.4934 43.9374 51.5193 44.0302 51.5535C44.0955 51.5766 44.1582 51.6067 44.2172 51.6433C44.2701 51.6793 44.2726 51.6952 44.2726 51.6952C44.2726 51.7082 44.2683 51.7121 44.2669 51.7132L44.2269 51.7439L44.349 51.807L44.7187 51.3883L44.6034 51.3292L44.5868 51.3498C44.5797 51.3588 44.5715 51.367 44.5623 51.3739C44.5623 51.3739 44.554 51.3793 44.5288 51.3793C44.4935 51.3762 44.4593 51.365 44.429 51.3465C44.3622 51.3131 44.2933 51.2843 44.2226 51.2604C44.1124 51.2232 43.9995 51.1944 43.885 51.1742C43.7183 51.1473 43.5495 51.1352 43.3806 51.1381C43.1919 51.1366 43.0039 51.1623 42.8226 51.2146C42.6635 51.2604 42.5133 51.3328 42.3783 51.4287C42.2576 51.5149 42.1562 51.6254 42.0808 51.7532C42.0089 51.8764 41.9716 52.0166 41.9727 52.1592C41.9716 52.2994 42.0104 52.437 42.0847 52.5559C42.1634 52.6792 42.2685 52.7836 42.3924 52.8613C42.5343 52.9505 42.69 53.0154 42.8532 53.0534C43.042 53.0984 43.2355 53.1203 43.4296 53.1187C43.6491 53.1158 43.8676 53.0892 44.0813 53.0394C44.3275 52.9816 44.5627 52.8841 44.7777 52.7509L44.7925 52.7412V52.6529L44.7659 52.6485C44.7486 52.6478 44.7319 52.6423 44.7176 52.6327C44.7176 52.6327 44.7089 52.6233 44.7089 52.5761V52.2649C44.7071 52.2465 44.7094 52.2279 44.7154 52.2104C44.7296 52.2038 44.7453 52.2013 44.7608 52.2032H44.7925V52.0951H43.7531C43.6231 52.0979 43.6231 52.0453 43.6231 52.0226Z" fill="#D1986D"/>
<path d="M48.4939 52.7322C48.4939 52.7524 48.4939 52.8076 48.3631 52.8076H46.8313V51.335C46.8294 51.3161 46.8348 51.2972 46.8464 51.282C46.8507 51.2777 46.8651 51.2665 46.9116 51.2665H46.9433V51.1602H46.266V51.2665H46.2977C46.3445 51.2665 46.3589 51.2763 46.3636 51.2813C46.3685 51.2867 46.3722 51.293 46.3746 51.2999C46.3769 51.3068 46.3779 51.3141 46.3773 51.3213V52.9471C46.3777 52.9545 46.3767 52.962 46.3742 52.9689C46.3717 52.9759 46.3679 52.9824 46.3629 52.9879C46.3586 52.9915 46.3442 53.0012 46.2973 53.0012H46.2656V53.1094H48.3631C48.4438 53.1094 48.4939 53.1234 48.4939 53.1454V53.1768H48.6131V52.7012H48.4939V52.7322Z" fill="#D1986D"/>
<path d="M52.1484 51.3925C52.0087 51.3039 51.8549 51.2395 51.6938 51.2022C51.3211 51.1175 50.9341 51.1175 50.5614 51.2022C50.4005 51.2394 50.2472 51.3038 50.1079 51.3925C49.9836 51.4719 49.8796 51.5792 49.8041 51.7059C49.7327 51.8372 49.6953 51.9843 49.6953 52.1339C49.6953 52.2834 49.7327 52.4305 49.8041 52.5619C49.8794 52.6882 49.9835 52.795 50.1079 52.8734C50.2473 52.9612 50.4011 53.024 50.5622 53.0587C50.9349 53.1387 51.3203 53.1387 51.693 53.0587C51.8543 53.0237 52.0082 52.961 52.1481 52.8734C52.2721 52.7948 52.3759 52.6881 52.451 52.5619C52.5228 52.4306 52.5603 52.2834 52.5603 52.1339C52.5603 51.9843 52.5228 51.8371 52.451 51.7059C52.3758 51.5793 52.2722 51.4721 52.1484 51.3925ZM51.8411 52.6333C51.6228 52.7546 51.3772 52.8183 51.1274 52.8183C50.8777 52.8183 50.632 52.7546 50.4137 52.6333C50.3375 52.5738 50.2759 52.4978 50.2335 52.4109C50.1911 52.324 50.169 52.2286 50.169 52.1319C50.169 52.0352 50.1911 51.9398 50.2335 51.8529C50.2759 51.766 50.3375 51.69 50.4137 51.6305C50.6321 51.5093 50.8777 51.4456 51.1274 51.4456C51.3771 51.4456 51.6227 51.5093 51.8411 51.6305C51.9175 51.6898 51.9794 51.7658 52.022 51.8527C52.0646 51.9396 52.0867 52.0351 52.0867 52.1319C52.0867 52.2287 52.0646 52.3242 52.022 52.4111C51.9794 52.498 51.9175 52.574 51.8411 52.6333Z" fill="#D1986D"/>
<path d="M56.5325 52.9998C56.5039 53.0023 56.4751 52.9977 56.4486 52.9865C56.4216 52.967 56.3974 52.9439 56.3765 52.918L55.8689 52.265C56.0355 52.2533 56.1954 52.1947 56.3301 52.0959C56.3844 52.0486 56.4274 51.9897 56.4559 51.9236C56.4844 51.8574 56.4976 51.7857 56.4947 51.7137C56.4983 51.6318 56.4805 51.5504 56.4429 51.4776C56.4052 51.4047 56.3492 51.3431 56.2803 51.2987C56.0719 51.189 55.8367 51.1406 55.602 51.1592H54.0117V51.2655H54.0434C54.0903 51.2655 54.1054 51.276 54.1094 51.2803C54.1142 51.2857 54.1179 51.292 54.1202 51.2989C54.1225 51.3058 54.1233 51.3131 54.1227 51.3203V52.9461C54.1233 52.9533 54.1224 52.9605 54.1201 52.9673C54.1178 52.9742 54.1142 52.9804 54.1094 52.9858C54.105 52.9905 54.0899 53.0002 54.0434 53.0002H54.0117V53.1084H54.6898V53.0002H54.6577C54.6108 53.0002 54.5957 52.9905 54.5918 52.9869C54.582 52.9756 54.577 52.961 54.5777 52.9461V52.2902H55.3854L55.9258 52.9959C55.9047 52.9998 55.8832 53.0012 55.8617 53.0002H55.83V53.1084H56.5639V53.0002L56.5325 52.9998ZM54.5766 51.9823V51.4667H55.5407C55.6286 51.4655 55.7165 51.4705 55.8037 51.4819C55.8573 51.4888 55.9093 51.5044 55.9579 51.528C55.9888 51.5439 56.014 51.5692 56.03 51.6001C56.0442 51.6344 56.0509 51.6712 56.0498 51.7083C56.0512 51.7476 56.0424 51.7867 56.0244 51.8217C56.0063 51.8567 55.9796 51.8864 55.9467 51.908C55.8296 51.969 55.6975 51.9954 55.5659 51.9841L54.5766 51.9823Z" fill="#D1986D"/>
</svg>
