<svg width="10" height="12" viewBox="0 0 10 12" fill="none" xmlns="http://www.w3.org/2000/svg">
<path d="M2.32422 2.9244C2.32422 1.56006 3.36483 0.5 4.5824 0.5C5.8 0.5 6.84061 1.56006 6.84061 2.9244C6.84061 4.28874 5.79997 5.34881 4.5824 5.34881C3.36483 5.34881 2.32422 4.28875 2.32422 2.9244Z" stroke="#8CD136"/>
<path d="M8.66056 10.9608L8.66061 10.9616C8.66583 11.0436 8.66846 11.1265 8.66846 11.2102V11.2379H0.5V11.2102C0.5 9.03052 2.26684 7.2637 4.44655 7.26367H4.72221C5.60584 7.26367 6.42019 7.55345 7.07729 8.0432L7.07733 8.04323C7.98196 8.7173 8.5865 9.7677 8.66056 10.9608Z" stroke="#8CD136"/>
</svg>
