<svg width="15" height="15" viewBox="0 0 15 15" fill="none" xmlns="http://www.w3.org/2000/svg">
<path d="M2.3125 4.57674C2.3125 3.22425 3.34402 2.17383 4.55041 2.17383C5.75683 2.17383 6.78835 3.22425 6.78835 4.57674C6.78835 5.92922 5.75681 6.97965 4.55041 6.97965C3.34402 6.97965 2.3125 5.92923 2.3125 4.57674Z" stroke="#FFE459"/>
<path d="M9.45767 3.18127L9.45765 3.1813C9.11267 3.55719 8.92145 4.05656 8.92586 4.59261L9.45767 3.18127ZM9.45767 3.18127C9.80802 2.79947 10.2693 2.59394 10.7598 2.58989L10.7743 2.58984C11.7615 2.58984 12.6172 3.44502 12.6265 4.56207C12.6309 5.09816 12.4397 5.59755 12.0947 5.97344L12.0947 5.97346M9.45767 3.18127L12.0947 5.97346M12.0947 5.97346C11.7443 6.35525 11.283 6.56079 10.7926 6.56485L10.7778 6.56489C10.293 6.56489 9.83406 6.36732 9.48087 5.99503L12.0947 5.97346ZM9.48084 5.995C9.12972 5.62481 8.9303 5.12866 8.92586 4.59263L9.48084 5.995Z" stroke="#FFE459"/>
<path d="M10.892 8.03906H10.6646C9.94055 8.03906 9.26597 8.25319 8.69989 8.6221C8.72838 8.64947 8.75662 8.67715 8.78461 8.70514C9.31573 9.23626 9.73355 9.85613 10.0253 10.5461L10.892 8.03906ZM10.892 8.03906C12.8817 8.03906 14.5012 9.65859 14.5012 11.6479V12.023M10.892 8.03906L14.5012 12.023M14.5012 12.023H10.4295C10.3613 11.5156 10.2263 11.021 10.0254 10.5462L14.5012 12.023Z" stroke="#FFE459"/>
<path d="M8.59325 12.5552L8.5933 12.556C8.59847 12.6373 8.60107 12.7195 8.60107 12.8025V12.8264H0.5V12.8025C0.5 10.6409 2.25221 8.8887 4.41387 8.88867H4.6875C5.56383 8.88867 6.37142 9.17605 7.02308 9.66174L7.02312 9.66177C7.92026 10.3303 8.5198 11.372 8.59325 12.5552Z" stroke="#FFE459"/>
</svg>
