<svg width="15" height="14" viewBox="0 0 15 14" fill="none" xmlns="http://www.w3.org/2000/svg">
<path d="M4.41639 9.21235C3.59064 9.25238 2.76652 9.10551 2.00538 8.78269C1.91751 8.73908 1.84045 8.67643 1.77982 8.5993C1.93019 6.67769 2.31332 6.35209 3.07752 5.70503L3.27423 5.53812C3.62879 5.70447 4.01552 5.79099 4.40714 5.79158C4.55708 5.79072 4.70665 5.77658 4.85411 5.74934V4.84778C4.70874 4.88967 4.55841 4.91186 4.40714 4.91372C4.04741 4.91372 3.69575 4.80701 3.39665 4.60707C3.09754 4.40713 2.86442 4.12294 2.72675 3.79046C2.58909 3.45797 2.55307 3.09211 2.62325 2.73914C2.69343 2.38617 2.86665 2.06195 3.12102 1.80747C3.37539 1.553 3.69948 1.37969 4.0523 1.30948C4.40512 1.23927 4.77082 1.27531 5.10316 1.41303C5.43551 1.55076 5.71957 1.78397 5.91943 2.0832C6.11928 2.38244 6.22595 2.73424 6.22595 3.09412C6.22673 3.23329 6.20871 3.37192 6.17239 3.50627H7.06739C7.09099 3.37013 7.10339 3.23229 7.10446 3.09412C7.10449 2.64922 6.99453 2.21121 6.78436 1.81912C6.57419 1.42704 6.27034 1.09304 5.89988 0.846903C5.52942 0.600762 5.10385 0.450115 4.66109 0.40838C4.21834 0.366645 3.77213 0.435119 3.36223 0.607702C2.95234 0.780286 2.59147 1.05162 2.31179 1.39753C2.03211 1.74344 1.8423 2.15319 1.75926 2.59028C1.67623 3.02736 1.70255 3.4782 1.83587 3.90265C1.9692 4.32709 2.20539 4.71195 2.52342 5.02294L2.509 5.03531C1.59856 5.80704 1.07434 6.35003 0.902344 8.56529C0.910846 8.77404 0.977436 8.97628 1.09462 9.14922C1.2118 9.32215 1.37492 9.45893 1.5656 9.54413C2.46239 9.93861 3.43626 10.1266 4.41537 10.0943L4.41639 9.21235Z" fill="#4E4E4E"/>
<path d="M4.41674 2.15676C4.66257 2.15676 4.89834 2.25446 5.07217 2.42837C5.24601 2.60228 5.34365 2.83814 5.34365 3.08409C5.34365 3.11291 5.34933 3.14145 5.36036 3.16807C5.37138 3.1947 5.38754 3.2189 5.40791 3.23928C5.42828 3.25966 5.45246 3.27583 5.47907 3.28685C5.50569 3.29788 5.53421 3.30356 5.56302 3.30356C5.59183 3.30356 5.62036 3.29788 5.64697 3.28685C5.67359 3.27583 5.69778 3.25966 5.71815 3.23928C5.73852 3.2189 5.75468 3.1947 5.7657 3.16807C5.77673 3.14145 5.78241 3.11291 5.78241 3.08409C5.78186 2.72145 5.63754 2.37384 5.38113 2.11751C5.12473 1.86118 4.77716 1.71707 4.41468 1.7168C4.3565 1.7168 4.3007 1.73992 4.25956 1.78108C4.21842 1.82223 4.19531 1.87806 4.19531 1.93626C4.19531 1.99447 4.21842 2.0503 4.25956 2.09146C4.3007 2.13261 4.3565 2.15573 4.41468 2.15573L4.41674 2.15676Z" fill="#4E4E4E"/>
<path d="M9.66068 3.5044C9.57202 3.11885 9.61153 2.71488 9.7732 2.35383C9.93488 1.99278 10.2099 1.69437 10.5565 1.50389C10.9031 1.31341 11.3023 1.24127 11.6937 1.29842C12.085 1.35558 12.4469 1.53891 12.7246 1.82057C13.0023 2.10224 13.1806 2.46686 13.2323 2.85908C13.2841 3.2513 13.2065 3.64971 13.0114 3.99381C12.8162 4.33791 12.5142 4.60891 12.1511 4.76568C11.788 4.92244 11.3837 4.9564 10.9996 4.86241V5.75676C11.5354 5.84617 12.0858 5.76884 12.5764 5.53523L12.7823 5.7073C13.5455 6.35436 13.9286 6.67995 14.078 8.56653C14.078 8.61084 14.009 8.69532 13.8545 8.78393C13.093 9.10677 12.2685 9.25364 11.4424 9.21359V10.0956C12.4218 10.1272 13.3959 9.93924 14.2932 9.54537C14.4883 9.45697 14.6542 9.31472 14.7713 9.13531C14.8884 8.95591 14.952 8.7468 14.9544 8.53253C14.7835 6.35127 14.2603 5.80828 13.3498 5.03654L13.3261 5.01696C13.6569 4.69299 13.8988 4.28937 14.0287 3.84488C14.1585 3.40039 14.172 2.92995 14.0677 2.47877C13.9634 2.02759 13.7448 1.61082 13.4331 1.2685C13.1213 0.92618 12.7268 0.669817 12.2875 0.524031C11.8481 0.378245 11.3787 0.347937 10.9242 0.43602C10.4698 0.524103 10.0456 0.727615 9.69249 1.02701C9.33935 1.3264 9.06909 1.71161 8.90769 2.14564C8.74629 2.57967 8.69917 3.04793 8.77084 3.50543L9.66068 3.5044Z" fill="#4E4E4E"/>
<path d="M12.8098 3.08603C12.8092 2.72339 12.6649 2.37578 12.4085 2.11945C12.1521 1.86313 11.8045 1.71902 11.442 1.71875C11.3838 1.71875 11.328 1.74187 11.2869 1.78303C11.2458 1.82419 11.2227 1.88001 11.2227 1.93821C11.2227 1.99642 11.2458 2.05225 11.2869 2.0934C11.328 2.13456 11.3838 2.15768 11.442 2.15768C11.5638 2.15768 11.6843 2.18166 11.7967 2.22827C11.9092 2.27487 12.0114 2.34318 12.0975 2.42929C12.1835 2.5154 12.2518 2.61762 12.2984 2.73012C12.345 2.84263 12.3689 2.96321 12.3689 3.08499C12.3689 3.1432 12.3921 3.19903 12.4332 3.24018C12.4743 3.28134 12.5301 3.30446 12.5883 3.30446C12.6465 3.30446 12.7023 3.28134 12.7434 3.24018C12.7846 3.19903 12.8077 3.1432 12.8077 3.08499L12.8098 3.08603Z" fill="#4E4E4E"/>
<path d="M12.4898 6.7615C13.1386 7.08606 13.1386 8.14423 13.1386 8.49249C13.1386 8.52132 13.1443 8.54985 13.1553 8.57648C13.1664 8.60311 13.1825 8.6273 13.2029 8.64768C13.2233 8.66806 13.2474 8.68422 13.2741 8.69525C13.3007 8.70628 13.3292 8.71196 13.358 8.71196C13.3868 8.71196 13.4153 8.70628 13.442 8.69525C13.4686 8.68422 13.4928 8.66806 13.5131 8.64768C13.5335 8.6273 13.5497 8.60311 13.5607 8.57648C13.5717 8.54985 13.5774 8.52132 13.5774 8.49249C13.5774 8.08035 13.5774 6.81508 12.6855 6.36893C12.6333 6.34284 12.5729 6.33854 12.5176 6.35699C12.4622 6.37545 12.4165 6.41514 12.3904 6.46733C12.3643 6.51952 12.36 6.57995 12.3785 6.63531C12.3969 6.69067 12.4366 6.73643 12.4888 6.76253L12.4898 6.7615Z" fill="#4E4E4E"/>
<path d="M7.92846 5.67238C8.17429 5.67238 8.41006 5.77008 8.58389 5.94398C8.75772 6.11789 8.85537 6.35375 8.85537 6.59969C8.85537 6.65789 8.87849 6.71372 8.91963 6.75488C8.96077 6.79604 9.01656 6.81916 9.07474 6.81916C9.13292 6.81916 9.18873 6.79604 9.22987 6.75488C9.27101 6.71372 9.29413 6.65789 9.29413 6.59969C9.29358 6.23705 9.14926 5.88945 8.89285 5.63312C8.63644 5.3768 8.28888 5.23269 7.9264 5.23242C7.86822 5.23242 7.81242 5.25554 7.77128 5.2967C7.73013 5.33786 7.70703 5.39368 7.70703 5.45188C7.70703 5.51009 7.73013 5.56592 7.77128 5.60707C7.81242 5.64823 7.86822 5.67135 7.9264 5.67135L7.92846 5.67238Z" fill="#4E4E4E"/>
<path d="M9.1733 9.88266C9.14753 9.86974 9.11948 9.86202 9.09073 9.85994C9.06198 9.85787 9.03311 9.86148 9.00576 9.87057C8.9784 9.87966 8.95311 9.89405 8.93131 9.91292C8.90952 9.93179 8.89166 9.95476 8.87875 9.98054C8.86583 10.0063 8.85811 10.0344 8.85604 10.0632C8.85396 10.0919 8.85758 10.1208 8.86666 10.1482C8.87575 10.1755 8.89012 10.2008 8.90898 10.2226C8.92784 10.2444 8.95081 10.2623 8.97657 10.2752C9.62542 10.6008 9.62543 11.659 9.62543 12.0062C9.62543 12.0644 9.64854 12.1203 9.68969 12.1614C9.73083 12.2026 9.78661 12.2257 9.84479 12.2257C9.90298 12.2257 9.95878 12.2026 9.99992 12.1614C10.0411 12.1203 10.0642 12.0644 10.0642 12.0062C10.0652 11.591 10.0652 10.3288 9.1733 9.88266Z" fill="#4E4E4E"/>
<path d="M9.83449 8.55007L9.81183 8.53049C10.1938 8.15459 10.4553 7.67339 10.5628 7.14825C10.6703 6.62311 10.6191 6.07782 10.4156 5.58193C10.2121 5.08604 9.86563 4.66202 9.4203 4.36392C8.97497 4.06583 8.45099 3.90718 7.91518 3.90821C7.37936 3.90923 6.85598 4.06989 6.4118 4.36968C5.96761 4.66947 5.62274 5.09481 5.42116 5.59148C5.21957 6.08814 5.17042 6.63361 5.27996 7.15834C5.38949 7.68306 5.65275 8.16327 6.03617 8.53771L6.02072 8.55007C5.11028 9.32284 4.58606 9.86583 4.41406 12.0801C4.42256 12.2888 4.48916 12.491 4.60634 12.664C4.72352 12.8369 4.88664 12.9737 5.07732 13.0589C6.9058 13.7975 8.94941 13.7975 10.7779 13.0589C10.973 12.9705 11.1388 12.8282 11.256 12.6488C11.3731 12.4694 11.4366 12.2603 11.4391 12.0461C11.2692 9.86583 10.746 9.32284 9.83449 8.55007ZM9.73871 6.60889C9.73871 6.96877 9.63204 7.32057 9.43218 7.6198C9.23233 7.91903 8.94827 8.15226 8.61592 8.28998C8.28357 8.4277 7.91788 8.46373 7.56506 8.39352C7.21224 8.32331 6.88814 8.15001 6.63377 7.89554C6.37941 7.64106 6.20619 7.31684 6.13601 6.96387C6.06583 6.61091 6.10185 6.24504 6.23951 5.91256C6.37717 5.58007 6.6103 5.29588 6.9094 5.09594C7.20851 4.896 7.56016 4.78929 7.91989 4.78929C8.40211 4.78983 8.8644 4.98171 9.20538 5.32283C9.54636 5.66396 9.73816 6.12647 9.73871 6.60889ZM5.51608 12.2985C5.42826 12.2548 5.35122 12.1922 5.29052 12.1151C5.44088 10.1935 5.82402 9.86789 6.58822 9.22083L6.78492 9.05391C6.822 9.07143 6.85907 9.08894 6.89718 9.1044L7.5347 9.98123L6.76432 11.7473L7.56045 12.7199C6.8572 12.7268 6.16057 12.5835 5.5171 12.2995L5.51608 12.2985ZM10.3392 12.2985C9.69071 12.5854 8.98831 12.7298 8.27933 12.722L9.07545 11.7483L8.30507 9.98226L8.94259 9.10543C8.98482 9.08791 9.02499 9.06833 9.06515 9.04979L9.27113 9.22186C10.0343 9.86892 10.4174 10.1945 10.5668 12.0811C10.5626 12.1202 10.4936 12.2099 10.3402 12.2985H10.3392Z" fill="#4E4E4E"/>
</svg>
