<svg width="24" height="24" viewBox="0 0 24 24" fill="none" xmlns="http://www.w3.org/2000/svg">
<path d="M19.1998 13.5998H13.5998V19.1998L19.1998 13.5998ZM22.3998 13.5998H23.9998H22.3998ZM19.1998 23.1998H12.7998H19.1998ZM17.5998 18.3998H23.1998V23.9998L17.5998 18.3998ZM4.7998 5.5998H6.3998H4.7998ZM17.5998 5.5998H19.1998H17.5998ZM4.7998 18.3998H6.3998H4.7998ZM2.3998 0.799805H8.7998C9.22415 0.799805 9.63112 0.968376 9.93118 1.26843C10.2312 1.56849 10.3998 1.97546 10.3998 2.3998V8.7998C10.3998 9.22415 10.2312 9.63112 9.93118 9.93118C9.63112 10.2312 9.22415 10.3998 8.7998 10.3998H2.3998C1.97546 10.3998 1.56849 10.2312 1.26843 9.93118C0.968376 9.63112 0.799805 9.22415 0.799805 8.7998V2.3998C0.799805 1.97546 0.968376 1.56849 1.26843 1.26843C1.56849 0.968376 1.97546 0.799805 2.3998 0.799805V0.799805ZM15.1998 0.799805H21.5998C22.0242 0.799805 22.4311 0.968376 22.7312 1.26843C23.0312 1.56849 23.1998 1.97546 23.1998 2.3998V8.7998C23.1998 9.22415 23.0312 9.63112 22.7312 9.93118C22.4311 10.2312 22.0242 10.3998 21.5998 10.3998H15.1998C14.7755 10.3998 14.3685 10.2312 14.0684 9.93118C13.7684 9.63112 13.5998 9.22415 13.5998 8.7998V2.3998C13.5998 1.97546 13.7684 1.56849 14.0684 1.26843C14.3685 0.968376 14.7755 0.799805 15.1998 0.799805V0.799805ZM2.3998 13.5998H8.7998C9.22415 13.5998 9.63112 13.7684 9.93118 14.0684C10.2312 14.3685 10.3998 14.7755 10.3998 15.1998V21.5998C10.3998 22.0242 10.2312 22.4311 9.93118 22.7312C9.63112 23.0312 9.22415 23.1998 8.7998 23.1998H2.3998C1.97546 23.1998 1.56849 23.0312 1.26843 22.7312C0.968376 22.4311 0.799805 22.0242 0.799805 21.5998V15.1998C0.799805 14.7755 0.968376 14.3685 1.26843 14.0684C1.56849 13.7684 1.97546 13.5998 2.3998 13.5998V13.5998Z" stroke="black"/>
</svg>
