<svg width="25" height="25" viewBox="0 0 25 25" fill="none" xmlns="http://www.w3.org/2000/svg">
<path d="M3.125 6.25H5.20833H21.875" stroke="#1D1C1C" stroke-linecap="round" stroke-linejoin="round"/>
<path d="M8.33203 6.25016V4.16683C8.33203 3.6143 8.55153 3.08439 8.94223 2.69369C9.33293 2.30299 9.86283 2.0835 10.4154 2.0835H14.582C15.1346 2.0835 15.6645 2.30299 16.0552 2.69369C16.4459 3.08439 16.6654 3.6143 16.6654 4.16683V6.25016M19.7904 6.25016V20.8335C19.7904 21.386 19.5709 21.9159 19.1802 22.3066C18.7895 22.6973 18.2596 22.9168 17.707 22.9168H7.29037C6.73783 22.9168 6.20793 22.6973 5.81723 22.3066C5.42652 21.9159 5.20703 21.386 5.20703 20.8335V6.25016H19.7904Z" stroke="#1D1C1C" stroke-linecap="round" stroke-linejoin="round"/>
<path d="M10.418 11.4585V17.7085" stroke="#1D1C1C" stroke-linecap="round" stroke-linejoin="round"/>
<path d="M14.582 11.4585V17.7085" stroke="#1D1C1C" stroke-linecap="round" stroke-linejoin="round"/>
</svg>
