<svg width="271" height="100" viewBox="0 0 271 100" fill="none" xmlns="http://www.w3.org/2000/svg">
<path d="M34.9337 58.9557C35.2136 58.9251 35.4952 58.9957 35.7276 59.1548C35.7979 59.2241 35.8528 59.3076 35.8887 59.3997C35.9246 59.4918 35.9406 59.5904 35.9357 59.6891V65.4228H21.1703V59.6891C21.165 59.5904 21.1808 59.4916 21.2167 59.3995C21.2526 59.3073 21.3077 59.2239 21.3783 59.1548C21.6099 58.9952 21.8913 58.9245 22.1708 58.9557V58.5898H16.6636V58.9557C16.9426 58.9246 17.2234 58.9953 17.4545 59.1548C17.5254 59.2238 17.581 59.3071 17.6173 59.3992C17.6537 59.4913 17.6702 59.5902 17.6656 59.6891V73.5357C17.6705 73.6345 17.6541 73.7332 17.6177 73.8251C17.5813 73.917 17.5256 74 17.4545 74.0685C17.224 74.2293 16.9426 74.3001 16.6636 74.2676V74.632H22.1708V74.2676C21.8912 74.3004 21.6093 74.2295 21.3783 74.0685C21.3075 73.9999 21.2522 73.9168 21.2163 73.8248C21.1804 73.7329 21.1647 73.6343 21.1703 73.5357V67.4346H35.9357V73.5357C35.9407 73.6342 35.9248 73.7327 35.8889 73.8245C35.8531 73.9164 35.7981 73.9996 35.7276 74.0685C35.4958 74.229 35.2137 74.2997 34.9337 74.2676V74.632H40.4408V74.2676C40.1618 74.2997 39.8806 74.2289 39.6499 74.0685C39.5794 73.9996 39.5244 73.9165 39.4885 73.8246C39.4526 73.7327 39.4367 73.6343 39.4419 73.5357V59.6891C39.437 59.5904 39.453 59.4918 39.4889 59.3997C39.5247 59.3076 39.5796 59.2241 39.6499 59.1548C39.8812 58.9957 40.1619 58.925 40.4408 58.9557V58.5898H34.9337V58.9557Z" fill="#D1986D"/>
<path d="M71.8858 58.4544C71.4376 58.5759 70.9723 58.622 70.509 58.5907H53.0344V58.9565C53.3143 58.9256 53.5961 58.9963 53.8284 59.1556C53.8986 59.2251 53.9534 59.3085 53.9892 59.4006C54.0251 59.4927 54.0411 59.5912 54.0364 59.6899V73.5366C54.0413 73.635 54.0253 73.7334 53.9895 73.8253C53.9536 73.9171 53.8987 74.0003 53.8284 74.0694C53.5967 74.2301 53.3144 74.3008 53.0344 74.2684V74.6389H70.7171C71.6911 74.6389 72.1775 74.8328 72.1765 75.2207H72.6767V71.5906H72.1826C72.1977 71.7513 72.1663 71.9128 72.0923 72.0561C72.0183 72.1995 71.9047 72.3184 71.765 72.399C71.3574 72.5753 70.914 72.6529 70.4708 72.6256H57.5442V67.44H66.0941C66.5189 67.4146 66.9444 67.4771 67.3439 67.6237C67.4641 67.6796 67.5645 67.7707 67.6317 67.8851C67.6989 67.9994 67.7298 68.1314 67.7203 68.2637H68.2205V64.5755H67.7203C67.7258 64.7247 67.6816 64.8716 67.5947 64.993C67.5077 65.1144 67.3829 65.2034 67.2399 65.246C66.8459 65.3784 66.4316 65.4401 66.0161 65.4282H57.5488V60.6101H70.5519C70.9954 60.5695 71.4417 60.6483 71.8445 60.8382C71.9496 60.9044 72.0357 60.9968 72.0944 61.1063C72.1532 61.2158 72.1825 61.3386 72.1796 61.4629H72.6798V57.9844H72.1826C72.1876 58.0838 72.1619 58.1823 72.1087 58.2665C72.0556 58.3506 71.9777 58.4163 71.8858 58.4544Z" fill="#D1986D"/>
<path d="M105.575 73.4787L101.079 67.5322C102.686 67.4895 104.248 66.9909 105.583 66.0945C106.034 65.7289 106.393 65.2629 106.632 64.7336C106.871 64.2044 106.983 63.6266 106.96 63.0463C106.986 62.3842 106.833 61.7273 106.517 61.1449C106.202 60.5624 105.735 60.0757 105.167 59.7361C103.33 58.8327 101.286 58.4373 99.245 58.591H85.2705V58.9568C85.5505 58.9254 85.8324 58.9961 86.0645 59.1559C86.1348 59.2252 86.1897 59.3087 86.2255 59.4008C86.2614 59.4929 86.2774 59.5915 86.2725 59.6902V73.5369C86.2776 73.6354 86.2616 73.7338 86.2258 73.8257C86.1899 73.9175 86.1349 74.0007 86.0645 74.0696C85.833 74.2309 85.5506 74.3017 85.2705 74.2687V74.6331H90.7777V74.2687C90.4981 74.3015 90.2162 74.2307 89.9853 74.0696C89.9144 74.001 89.8591 73.9179 89.8232 73.8259C89.7873 73.734 89.7717 73.6354 89.7772 73.5369V67.6822H97.449L101.818 73.6532C101.878 73.6881 101.928 73.737 101.965 73.7957C102.002 73.8543 102.024 73.921 102.029 73.99C102.031 74.0377 102.017 74.0847 101.989 74.1235C101.962 74.1623 101.922 74.1908 101.876 74.2044C101.651 74.26 101.419 74.2807 101.188 74.2657V74.63H107.194V74.2657C106.887 74.2867 106.58 74.2342 106.297 74.1125C106.028 73.9362 105.785 73.7229 105.575 73.4787ZM89.7772 65.6092V60.6686H98.7034C99.5046 60.6587 100.306 60.7038 101.101 60.8033C101.615 60.8619 102.116 61.0068 102.583 61.232C102.903 61.3844 103.167 61.6355 103.334 61.9485C103.482 62.273 103.553 62.6271 103.542 62.9835C103.551 63.3675 103.46 63.7472 103.276 64.0847C103.093 64.4221 102.824 64.7055 102.497 64.9065C101.39 65.4678 100.149 65.711 98.9115 65.6092H89.7772Z" fill="#D1986D"/>
<path d="M119.386 58.9557C119.666 58.9246 119.948 58.9952 120.18 59.1548C120.25 59.2242 120.305 59.3077 120.341 59.3997C120.376 59.4918 120.393 59.5904 120.388 59.6891V73.5357C120.393 73.6342 120.377 73.7327 120.341 73.8245C120.305 73.9164 120.25 73.9996 120.18 74.0685C119.948 74.2294 119.666 74.3002 119.386 74.2676V74.632H124.893V74.2676C124.613 74.2994 124.332 74.2286 124.101 74.0685C124.03 73.9995 123.975 73.9163 123.939 73.8245C123.904 73.7326 123.888 73.6342 123.892 73.5357V59.6891C123.888 59.5904 123.904 59.4919 123.94 59.3998C123.976 59.3078 124.03 59.2243 124.101 59.1548C124.332 58.9959 124.614 58.9253 124.893 58.9557V58.5898H119.386V58.9557Z" fill="#D1986D"/>
<path d="M154.753 58.5908H137.236C136.263 58.5908 135.777 58.3275 135.777 57.8008H135.278V61.3972H135.777C135.764 61.2717 135.789 61.1453 135.848 61.034C135.908 60.9228 135.999 60.8318 136.11 60.7725C136.469 60.6385 136.853 60.5821 137.236 60.6072H144.244V73.5382C144.249 73.637 144.233 73.7357 144.196 73.8277C144.16 73.9196 144.104 74.0026 144.033 74.0711C143.802 74.2317 143.521 74.3025 143.242 74.2701V74.6344H148.749V74.2762C148.469 74.3083 148.186 74.2376 147.954 74.0772C147.883 74.0082 147.828 73.9251 147.792 73.8332C147.756 73.7413 147.74 73.6428 147.745 73.5443V60.6133H154.755C155.138 60.5881 155.521 60.6444 155.881 60.7786C155.992 60.8379 156.083 60.9289 156.143 61.0402C156.202 61.1514 156.227 61.2778 156.214 61.4033H156.715V57.8069H156.214C156.213 58.3305 155.726 58.5918 154.753 58.5908Z" fill="#D1986D"/>
<path d="M188.51 74.0578C188.358 73.924 188.225 73.7694 188.116 73.5985C187.975 73.3949 187.781 73.1116 187.531 72.7427L179.524 60.6062C179.303 60.2587 179.122 59.9938 178.983 59.7948C178.868 59.6617 178.796 59.4975 178.775 59.3232C178.775 59.0798 178.997 58.9558 179.443 58.9558V58.5898H173.353V58.9558C173.853 58.9558 174.106 59.0798 174.106 59.3232C174.087 59.4729 174.029 59.615 173.938 59.7351L173.437 60.5113L165.89 72.8361C165.665 73.1591 165.486 73.4179 165.348 73.6123C165.237 73.7718 165.111 73.92 164.972 74.0548C164.874 74.1495 164.75 74.2138 164.617 74.2401C164.472 74.2601 164.326 74.2698 164.179 74.2691V74.6335H169.309V74.2691C168.834 74.2691 168.602 74.1574 168.602 73.9338C168.626 73.7462 168.697 73.5677 168.808 73.4148C168.947 73.1913 169.073 72.9876 169.185 72.8024L170.601 70.3619H182.406L183.991 72.8024C184.212 73.1668 184.358 73.4072 184.429 73.5189C184.492 73.6147 184.528 73.7258 184.533 73.8404C184.536 73.9039 184.521 73.9669 184.492 74.0231C184.462 74.0793 184.418 74.1267 184.365 74.1604C184.154 74.2495 183.924 74.2858 183.696 74.2661V74.6304H189.494V74.2661C189.299 74.2682 189.104 74.2585 188.91 74.237C188.763 74.2137 188.625 74.1519 188.51 74.0578ZM171.932 68.3563L176.271 61.1605L180.984 68.3563H171.932Z" fill="#D1986D"/>
<path d="M211.344 65.6675H210.844V69.27H211.344C211.344 68.8219 211.831 68.5973 212.804 68.5963H217.599V70.8929C216.469 71.4874 215.262 71.9257 214.014 72.1958C212.398 72.5569 210.746 72.73 209.091 72.7118C208.007 72.7148 206.927 72.5764 205.878 72.2999C204.911 72.0517 203.989 71.6512 203.148 71.1134C202.379 70.6189 201.725 69.9652 201.231 69.1965C200.736 68.4094 200.482 67.4945 200.5 66.5647C200.492 65.7372 200.682 64.92 201.055 64.1813C201.427 63.4426 201.971 62.8041 202.641 62.3191C203.492 61.7067 204.446 61.2534 205.458 60.981C206.775 60.6231 208.137 60.4545 209.502 60.4803C210.593 60.4732 211.682 60.5649 212.756 60.7544C213.64 60.9077 214.509 61.132 215.357 61.425C215.959 61.629 216.539 61.8953 217.087 62.2196C217.505 62.4829 217.711 62.708 217.711 62.8902C217.716 62.9601 217.704 63.0302 217.675 63.094C217.646 63.1579 217.602 63.2136 217.546 63.2561L218.046 63.501L220.968 60.3579L220.465 60.1159C220.386 60.2134 220.295 60.3004 220.194 60.3747C220.049 60.4577 219.882 60.495 219.715 60.4819C219.355 60.45 219.007 60.3402 218.693 60.1603C218.105 59.8832 217.499 59.6439 216.88 59.4438C215.905 59.1313 214.908 58.8918 213.897 58.7273C212.415 58.4943 210.916 58.3878 209.415 58.4089C207.752 58.3921 206.096 58.6075 204.492 59.0488C203.103 59.4228 201.786 60.0256 200.594 60.8325C199.555 61.5315 198.674 62.4405 198.008 63.501C197.387 64.4981 197.062 65.6505 197.068 66.8249C197.059 67.9745 197.394 69.1006 198.029 70.0585C198.721 71.085 199.632 71.9447 200.697 72.5755C201.951 73.3236 203.317 73.8644 204.743 74.1769C206.412 74.5553 208.12 74.7397 209.831 74.7266C211.775 74.7044 213.712 74.4787 215.609 74.0529C217.774 73.5792 219.85 72.7659 221.76 71.6431V71.2756C221.55 71.2617 221.348 71.1879 221.178 71.0628C221.037 70.8701 220.976 70.6302 221.009 70.3938V67.7405C220.98 67.5103 221.034 67.2772 221.162 67.0837C221.344 66.9667 221.56 66.9174 221.774 66.9443V66.5815H212.807C211.832 66.5835 211.344 66.2789 211.344 65.6675Z" fill="#D1986D"/>
<path d="M250.798 60.6062C251.242 60.5657 251.688 60.6445 252.091 60.8343C252.196 60.9006 252.282 60.993 252.34 61.1025C252.398 61.212 252.427 61.3349 252.424 61.459H252.928V57.9805H252.424C252.431 58.0801 252.406 58.1793 252.354 58.2643C252.301 58.3493 252.224 58.416 252.132 58.4551C251.684 58.5766 251.219 58.6227 250.755 58.5914H233.282V58.9573C233.562 58.9265 233.844 58.9971 234.076 59.1563C234.146 59.2258 234.201 59.3093 234.237 59.4014C234.273 59.4934 234.289 59.592 234.284 59.6906V73.5373C234.289 73.6358 234.273 73.7342 234.237 73.826C234.201 73.9178 234.146 74.001 234.076 74.0701C233.844 74.2307 233.562 74.3014 233.282 74.2691V74.6396H250.966C251.937 74.6396 252.423 74.8336 252.424 75.2214H252.928V71.5913H252.424C252.439 71.752 252.408 71.9135 252.334 72.0569C252.26 72.2002 252.146 72.3192 252.007 72.3997C251.599 72.5758 251.157 72.6534 250.714 72.6263H237.786V67.4407H246.336C246.762 67.4154 247.188 67.4779 247.589 67.6244C247.708 67.6811 247.808 67.7724 247.875 67.8866C247.942 68.0007 247.972 68.1324 247.963 68.2644H248.462V64.5762H247.963C247.969 64.7255 247.925 64.8725 247.838 64.9939C247.751 65.1154 247.626 65.2043 247.483 65.2467C247.089 65.3789 246.675 65.4406 246.259 65.429H237.794V60.6108L250.798 60.6062Z" fill="#D1986D"/>
<path d="M122.362 0.0078125C121.064 1.40513 119.671 2.84073 118.184 4.31461C116.697 5.78848 115.142 7.25522 113.518 8.7148C111.898 10.1734 110.278 11.6023 108.658 13.0017C107.039 14.401 105.483 15.6815 103.992 16.843C100.622 13.8922 97.4302 11.0547 94.4176 8.3305C91.405 5.60629 88.4408 2.83359 85.525 0.0124147C85.525 0.0124147 77.997 0.237476 74.835 0.0124147C75.4815 0.533986 76.4208 1.3046 77.6528 2.32426C78.8848 3.34393 80.2616 4.49476 81.7832 5.77674C83.3069 7.05975 84.9111 8.40603 86.5959 9.8156C88.2807 11.2252 89.8844 12.5699 91.407 13.8499C92.9266 15.1308 94.3197 16.2985 95.5863 17.3529C96.853 18.4072 97.8091 19.209 98.4546 19.7581C98.4195 21.8878 97.676 33.4241 97.676 33.4241C99.165 33.3588 100.752 33.3271 102.438 33.3292C104.124 33.3312 105.711 33.3628 107.2 33.4241C107.2 33.4241 106.544 24.4722 106.435 20.6216C106.435 20.1485 106.426 19.6754 106.426 19.2238C107.461 18.2184 108.693 17.0916 110.121 15.8433C111.548 14.595 113.201 13.1925 115.077 11.636C116.956 10.0805 119.126 8.3453 121.589 6.4305C124.052 4.51569 126.839 2.37479 129.948 0.0078125C127.422 0.155986 124.888 0.155986 122.362 0.0078125Z" fill="#D1986D"/>
<path d="M58.1191 0.0078125C57.2777 0.0736468 56.4654 0.131825 55.6898 0.179287C54.9142 0.226749 54.1325 0.255843 53.3569 0.255843C52.5813 0.255843 51.8027 0.22828 51.0225 0.179287C50.2423 0.130294 49.4392 0.0751778 48.5947 0.0078125C48.5947 0.081302 48.6055 0.150212 48.6131 0.217577C48.6131 0.421204 48.7661 6.26668 48.8471 13.0935H48.8915V14.0903H48.8471C48.8471 14.4944 48.8563 14.9001 48.8625 15.3151L39.2142 15.4085C36.1944 15.4375 33.0614 15.4529 29.8443 15.4559H29.0596H28.2748C25.0623 15.4559 21.9232 15.4375 18.9049 15.4085L9.84408 15.3212H9.25972H9.25207L9.25972 14.323L9.27961 12.403V12.3326C9.36681 5.8441 9.4999 0.424259 9.50449 0.229818C9.50449 0.162453 9.51673 0.0935668 9.52438 0.0200774C8.67995 0.0859117 7.87374 0.14409 7.09508 0.191552C6.31643 0.239014 5.53933 0.268085 4.76373 0.268085C3.98814 0.268085 3.20793 0.240545 2.43233 0.191552C1.65674 0.142559 0.841375 0.0874427 0 0.0200774C0.0183573 0.197677 0.0321342 0.372216 0.0474319 0.548285C0.827113 10.0086 0.943656 19.512 0.396215 28.9887C0.270774 30.486 0.142269 31.9742 0 33.4287C1.49102 33.3634 3.07942 33.3317 4.76522 33.3337C6.45103 33.3358 8.03844 33.3674 9.52742 33.4287C9.48917 33.0429 9.45401 32.6494 9.41883 32.2605C9.21384 29.1694 9.18626 23.4525 9.2291 17.682V17.5886H9.24138C9.48155 17.5886 9.71408 17.5886 9.95426 17.5886C13.0138 17.5641 16.0182 17.5412 18.911 17.5274C22.1797 17.5101 25.5645 17.5019 29.0657 17.5029C32.5668 17.5039 35.9517 17.5121 39.2203 17.5274C42.1942 17.5427 45.2752 17.5641 48.4357 17.5932C48.5886 17.5932 48.7416 17.5932 48.8946 17.5932C48.8946 17.8734 48.8946 18.1521 48.9022 18.4322V17.4631C48.9451 23.307 48.9206 29.128 48.7141 32.259C48.6789 32.6479 48.6437 33.0398 48.6055 33.4271C50.097 33.3628 51.6803 33.3322 53.3677 33.3322C55.055 33.3322 56.6398 33.3628 58.1298 33.4271C57.9906 31.9681 57.8575 30.4815 57.7351 28.9872C57.1888 19.5105 57.3053 10.0072 58.0839 0.546743C58.09 0.366081 58.1038 0.185412 58.1191 0.0078125Z" fill="#D1986D"/>
<path d="M270.592 30.65C269.035 30.8113 267.205 30.9322 265.101 31.0129C262.997 31.0935 260.762 31.1583 258.395 31.2073C256.031 31.2573 253.617 31.2813 251.154 31.2793H234.601C234.358 29.2889 234.295 24.8489 234.309 20.0338V20.0002C234.309 19.2347 234.319 18.4691 234.324 17.6929C242.34 17.7113 257.628 17.8751 264.411 17.9501C265.658 18.0006 266.812 18.0527 267.85 18.1124H267.866C267.858 18.0772 267.85 18.0343 267.844 17.9914C267.79 17.0515 267.795 16.1091 267.859 15.1698C267.858 15.1616 267.858 15.1534 267.859 15.1453C266.432 15.2096 264.925 15.2657 263.339 15.3137C261.753 15.3617 260.019 15.4127 258.138 15.4668C256.687 15.5025 255.12 15.5352 253.438 15.5648C252.062 15.5801 250.643 15.5954 249.224 15.603C247.68 15.6107 245.705 15.6168 243.685 15.6214C240.137 15.6214 236.747 15.5648 234.336 15.4484L234.347 14.6997H234.335C234.347 13.8852 234.357 13.0799 234.371 12.2976C234.455 6.98794 234.573 2.63215 234.584 2.30451C237.786 2.30451 250.428 2.32901 252.692 2.378C254.956 2.427 257.05 2.48211 258.964 2.54642C260.878 2.61072 262.687 2.67655 264.407 2.74086C266.126 2.80516 268.019 2.87252 270.091 2.9353C270.067 2.84343 270.049 2.74085 270.03 2.64134C269.997 1.76567 270.017 0.888774 270.091 0.015625C267.176 0.0819696 264.292 0.139127 261.441 0.1871C258.589 0.235072 255.705 0.260594 252.79 0.263656C249.883 0.263656 237.012 0.236093 234.127 0.1871C231.241 0.138107 228.344 0.0829903 225.428 0.015625C226.086 8.52142 226.297 17.0559 226.06 25.5838C226.029 26.1335 226.005 26.6877 225.962 27.2343C225.799 29.293 225.621 31.3594 225.428 33.4334C225.428 33.4334 258.182 33.3171 267.956 33.389C268.829 33.4043 269.704 33.4166 270.579 33.4334C270.569 33.389 270.561 33.337 270.549 33.2895C270.497 32.4198 270.507 31.5475 270.578 30.6791L270.592 30.65Z" fill="#D1986D"/>
<path d="M198.488 4.31372C195.482 2.75997 192.252 1.68504 188.915 1.12765C184.275 0.318488 179.569 -0.0567166 174.86 0.00692357C173.862 0.00692357 172.871 0.0207111 171.87 0.0344903C171.87 0.0344903 162.367 0.115641 154.838 0.107986C153.684 0.107986 149.178 0.0513242 147.163 0.0268277C146.992 0.0268277 146.823 0.0191918 146.651 0.0130677H146.181C146.181 0.0130677 147.009 6.78939 147.224 12.9288C147.331 17.574 147.34 22.8667 147.091 27.7599C146.928 29.6603 146.667 31.5511 146.309 33.4247H146.649C146.649 33.4247 163.935 33.3711 166.671 33.3956H166.623C168.289 33.4171 169.97 33.4293 171.672 33.4293C175.531 33.4167 179.386 33.1333 183.206 32.5811C186.983 32.0753 190.683 31.1028 194.22 29.686C197.304 28.4876 200.104 26.6571 202.44 24.312C203.494 23.2297 204.321 21.9473 204.873 20.5404C205.424 19.1335 205.689 17.6304 205.652 16.1195C205.687 13.76 205.091 11.4342 203.925 9.38297C202.611 7.22646 200.731 5.47283 198.488 4.31372ZM193.962 23.9614C192.155 26.056 189.883 27.6973 187.327 28.7536C184.391 29.9819 181.294 30.7841 178.13 31.1358C174.722 31.5558 171.292 31.7664 167.858 31.7666C165.49 31.7666 163.186 31.7263 160.948 31.6457C158.709 31.565 156.935 31.4431 155.624 31.2798C155.561 30.7209 155.513 30.1575 155.462 29.5956C155.101 22.9999 155.48 6.72663 155.572 3.02766C155.589 2.87455 155.606 2.69694 155.623 2.53772C157.551 2.40911 159.73 2.29581 162.158 2.19783C164.586 2.09984 167.202 2.04882 170.004 2.04474C173.561 2.02859 177.116 2.23311 180.648 2.65714C183.528 2.96745 186.345 3.70587 189.007 4.84805C191.185 5.77831 193.083 7.26119 194.514 9.15024C195.921 11.1894 196.627 13.6313 196.524 16.1073C196.648 18.9494 195.738 21.74 193.962 23.9614Z" fill="#D1986D"/>
<path d="M79.3292 91.1754C79.3292 91.2412 79.3292 91.4356 78.7739 91.4356H70.4765C69.9211 91.4356 69.9211 91.2412 69.9211 91.1754V91.0391H69.4148V93.1075H69.9227V92.9697C69.9227 92.8411 69.967 92.7998 70.0083 92.7783C70.1582 92.7223 70.3184 92.6993 70.478 92.711H73.6614V99.0234C73.6638 99.054 73.6599 99.0847 73.6499 99.1137C73.6399 99.1426 73.624 99.1692 73.6033 99.1918C73.5849 99.2117 73.5222 99.2531 73.3234 99.2531H73.1887V99.7124H76.0678V99.2531H75.9316C75.7312 99.2531 75.6685 99.2117 75.6517 99.1918C75.6299 99.1698 75.6132 99.1434 75.6026 99.1143C75.5921 99.0852 75.5879 99.0543 75.5905 99.0234V92.711H78.7739C78.934 92.6993 79.0947 92.7223 79.2451 92.7783C79.2849 92.7998 79.3292 92.8396 79.3292 92.9697V93.1075H79.8387V91.0391H79.3292V91.1754Z" fill="#D1986D"/>
<path d="M94.4031 91.8892H94.5362C94.7381 91.8892 94.8008 91.9336 94.8192 91.9519C94.8396 91.975 94.8552 92.002 94.8652 92.0311C94.8751 92.0603 94.8793 92.0911 94.8773 92.1219V94.8425H88.1463V92.1219C88.1436 92.091 88.1474 92.06 88.1574 92.0307C88.1674 92.0015 88.1835 91.9746 88.2044 91.9519C88.2228 91.9336 88.2855 91.8892 88.4844 91.8892H88.619V91.4375H85.74V91.8892H85.8761C86.0735 91.8892 86.1362 91.9336 86.1561 91.9519C86.1767 91.9749 86.1925 92.0018 86.2025 92.031C86.2124 92.0602 86.2164 92.0911 86.2142 92.1219V99.0253C86.2163 99.0558 86.2123 99.0865 86.2023 99.1154C86.1923 99.1443 86.1766 99.171 86.1561 99.1937C86.1362 99.2136 86.0735 99.255 85.8761 99.255H85.74V99.7143H88.619V99.255H88.4844C88.2855 99.255 88.2213 99.2136 88.2044 99.1937C88.183 99.1716 88.1667 99.1451 88.1566 99.116C88.1466 99.0869 88.1431 99.0559 88.1463 99.0253V96.1163H94.8773V99.0253C94.8792 99.056 94.8747 99.0869 94.8642 99.1159C94.8537 99.1448 94.8373 99.1713 94.8161 99.1937C94.7993 99.2136 94.7366 99.255 94.5346 99.255H94.4015V99.7143H97.2806V99.255H97.146C96.944 99.255 96.8829 99.2136 96.863 99.1937C96.8423 99.1712 96.8266 99.1445 96.8168 99.1155C96.8071 99.0865 96.8035 99.0558 96.8064 99.0253V92.1219C96.8032 92.091 96.8068 92.0599 96.8168 92.0305C96.8268 92.0012 96.8431 91.9744 96.8645 91.9519C96.8829 91.9305 96.944 91.8892 97.1444 91.8892H97.2791V91.4375H94.4001L94.4031 91.8892Z" fill="#D1986D"/>
<path d="M113.823 92.4217C113.231 92.0448 112.579 91.7715 111.896 91.6134C110.313 91.2539 108.67 91.2539 107.088 91.6134C106.404 91.7712 105.752 92.0445 105.16 92.4217C104.633 92.7584 104.192 93.2141 103.872 93.7522C103.569 94.3099 103.41 94.9346 103.41 95.5695C103.41 96.2044 103.569 96.8292 103.872 97.3869C104.191 97.9237 104.632 98.377 105.16 98.7097C105.753 99.0815 106.406 99.3477 107.089 99.4966C108.672 99.8362 110.309 99.8362 111.893 99.4966C112.577 99.3485 113.23 99.0821 113.823 98.7097C114.351 98.3769 114.792 97.9235 115.11 97.3869C115.414 96.8296 115.574 96.2047 115.574 95.5695C115.574 94.9344 115.414 94.3095 115.11 93.7522C114.791 93.2142 114.35 92.7585 113.823 92.4217ZM112.521 97.69C111.594 98.2056 110.551 98.4762 109.49 98.4762C108.429 98.4762 107.386 98.2056 106.459 97.69C106.135 97.4376 105.874 97.1147 105.694 96.7457C105.514 96.3768 105.42 95.9717 105.42 95.5611C105.42 95.1505 105.514 94.7454 105.694 94.3765C105.874 94.0076 106.135 93.6846 106.459 93.4322C107.386 92.9172 108.43 92.6469 109.49 92.6469C110.551 92.6469 111.594 92.9172 112.521 93.4322C112.846 93.6839 113.109 94.0066 113.289 94.3756C113.47 94.7447 113.564 95.1501 113.564 95.5611C113.564 95.9721 113.47 96.3776 113.289 96.7466C113.109 97.1156 112.846 97.4383 112.521 97.69Z" fill="#D1986D"/>
<path d="M130.593 91.8885H130.723C130.93 91.8885 130.99 91.9359 131.005 91.9513C131.025 91.9745 131.04 92.0014 131.05 92.0306C131.059 92.0598 131.063 92.0906 131.06 92.1212V97.2992L125.045 92.0186C125.006 91.9906 124.971 91.9582 124.939 91.9222C125.016 91.8975 125.096 91.8881 125.176 91.8946H125.313V91.4429H121.698V91.8946H121.834C122.033 91.8946 122.094 91.939 122.111 91.9574C122.133 91.9796 122.149 92.0063 122.16 92.0356C122.171 92.065 122.175 92.0963 122.172 92.1274V99.0307C122.174 99.0614 122.17 99.0923 122.16 99.1213C122.15 99.1503 122.133 99.1768 122.112 99.1992C122.094 99.2191 122.031 99.2604 121.832 99.2604H121.698V99.7197H124.338V99.2604H124.205C124.006 99.2604 123.942 99.219 123.925 99.2037C123.904 99.1802 123.889 99.1528 123.879 99.1231C123.869 99.0934 123.865 99.062 123.867 99.0307V93.124L130.661 99.0721C130.701 99.1176 130.746 99.1596 130.794 99.1976C130.805 99.2085 130.814 99.2209 130.821 99.2344C130.738 99.2551 130.652 99.2633 130.566 99.2589H130.431V99.7182H133.229V99.2589H133.096C132.896 99.2589 132.833 99.2175 132.816 99.1976C132.794 99.1757 132.778 99.1492 132.768 99.1201C132.757 99.091 132.753 99.06 132.756 99.0292V92.1258C132.753 92.0947 132.757 92.0631 132.767 92.0337C132.778 92.0042 132.795 91.9776 132.818 91.9559C132.833 91.9344 132.896 91.8931 133.096 91.8931H133.229V91.4414H130.587L130.593 91.8885Z" fill="#D1986D"/>
<path d="M146.233 95.1011V94.968H145.727V97.0333H146.233V96.897C146.233 96.7225 146.582 96.6965 146.789 96.6965H148.927V97.6304C148.424 97.8984 147.888 98.0986 147.333 98.226C146.582 98.4043 145.811 98.4896 145.039 98.4801C144.537 98.4815 144.037 98.4146 143.553 98.2811C143.106 98.1604 142.681 97.9669 142.296 97.7085C141.944 97.4679 141.648 97.1547 141.428 96.7899C141.205 96.4138 141.092 95.9825 141.101 95.5452C141.1 95.1678 141.18 94.7946 141.335 94.4505C141.504 94.091 141.755 93.7764 142.068 93.5318C142.454 93.2405 142.891 93.0221 143.356 92.8873C143.966 92.7137 144.599 92.6317 145.233 92.6439C145.741 92.641 146.249 92.6866 146.749 92.7801C147.162 92.8542 147.568 92.9643 147.962 93.1093C148.239 93.2076 148.506 93.3354 148.756 93.4905C148.981 93.6436 148.991 93.711 148.991 93.711C148.991 93.7661 148.973 93.7829 148.967 93.7875L148.797 93.9177L149.316 94.1856L150.885 92.4081L150.396 92.157L150.325 92.2442C150.295 92.2828 150.26 92.3173 150.221 92.3468C150.221 92.3468 150.186 92.3698 150.079 92.3698C149.929 92.3565 149.784 92.3088 149.655 92.2305C149.372 92.0885 149.079 91.9663 148.779 91.8646C148.311 91.7067 147.832 91.5844 147.345 91.4986C146.638 91.3844 145.921 91.3332 145.204 91.3456C144.402 91.3391 143.604 91.4484 142.834 91.6701C142.159 91.8647 141.521 92.1722 140.948 92.5796C140.435 92.9453 140.005 93.4147 139.684 93.9575C139.379 94.4804 139.221 95.0759 139.225 95.6814C139.221 96.2766 139.386 96.8609 139.701 97.3655C140.035 97.8895 140.481 98.3325 141.008 98.6623C141.61 99.0412 142.271 99.317 142.964 99.4784C143.766 99.6691 144.588 99.7621 145.412 99.7555C146.344 99.743 147.271 99.6301 148.179 99.4187C149.225 99.1731 150.223 98.7595 151.136 98.1939L151.199 98.1525V97.7774L151.086 97.759C151.013 97.7561 150.942 97.7327 150.881 97.6917C150.881 97.6917 150.844 97.6518 150.844 97.4513V96.13C150.836 96.0519 150.846 95.973 150.872 95.8988C150.932 95.8708 150.999 95.8602 151.064 95.8682H151.199V95.4089H146.786C146.233 95.4212 146.233 95.1976 146.233 95.1011Z" fill="#D1986D"/>
<path d="M166.924 98.1128C166.924 98.1986 166.924 98.4328 166.369 98.4328H159.864V92.1801C159.856 92.0996 159.879 92.0192 159.928 91.955C159.947 91.9366 160.008 91.8892 160.205 91.8892H160.34V91.4375H157.464V91.8892H157.599C157.797 91.8892 157.859 91.9305 157.879 91.9519C157.899 91.9748 157.915 92.0017 157.925 92.0309C157.935 92.0601 157.939 92.0911 157.937 92.1219V99.0253C157.938 99.0567 157.934 99.0883 157.923 99.118C157.913 99.1477 157.897 99.175 157.875 99.1983C157.857 99.2136 157.796 99.255 157.597 99.255H157.462V99.7143H166.369C166.711 99.7143 166.924 99.774 166.924 99.8674V100.001H167.43V97.9811H166.924V98.1128Z" fill="#D1986D"/>
<path d="M182.435 92.4217C181.841 92.0453 181.189 91.772 180.504 91.6134C178.922 91.2539 177.279 91.2539 175.696 91.6134C175.013 91.7714 174.362 92.0448 173.77 92.4217C173.243 92.7586 172.801 93.2143 172.48 93.7522C172.177 94.3099 172.018 94.9346 172.018 95.5695C172.018 96.2044 172.177 96.8292 172.48 97.3869C172.8 97.9235 173.242 98.3768 173.77 98.7097C174.362 99.0827 175.015 99.3491 175.699 99.4966C177.282 99.8363 178.918 99.8363 180.501 99.4966C181.186 99.3477 181.839 99.0815 182.433 98.7097C182.96 98.3762 183.401 97.923 183.72 97.3869C184.024 96.8296 184.184 96.2047 184.184 95.5695C184.184 94.9344 184.024 94.3095 183.72 93.7522C183.4 93.2149 182.96 92.7594 182.435 92.4217ZM181.13 97.69C180.203 98.2055 179.16 98.476 178.099 98.476C177.039 98.476 175.996 98.2055 175.069 97.69C174.745 97.4376 174.484 97.1147 174.303 96.7457C174.123 96.3768 174.03 95.9717 174.03 95.5611C174.03 95.1505 174.123 94.7454 174.303 94.3765C174.484 94.0076 174.745 93.6846 175.069 93.4322C175.996 92.9173 177.039 92.6472 178.099 92.6472C179.16 92.6472 180.203 92.9173 181.13 93.4322C181.454 93.6839 181.717 94.0066 181.898 94.3757C182.079 94.7447 182.173 95.1502 182.173 95.5611C182.173 95.9721 182.079 96.3776 181.898 96.7466C181.717 97.1156 181.454 97.4383 181.13 97.69Z" fill="#D1986D"/>
<path d="M201.042 99.2543C200.921 99.2647 200.798 99.2453 200.686 99.1976C200.572 99.1147 200.469 99.0169 200.38 98.9067L198.225 96.134C198.932 96.0845 199.611 95.8355 200.183 95.416C200.413 95.2152 200.596 94.9651 200.717 94.6842C200.838 94.4033 200.894 94.0987 200.882 93.7931C200.897 93.4453 200.821 93.0996 200.662 92.7904C200.502 92.4812 200.264 92.2193 199.972 92.0308C199.087 91.5649 198.088 91.3595 197.091 91.4383H190.339V91.89H190.473C190.672 91.89 190.736 91.9344 190.753 91.9528C190.774 91.9757 190.789 92.0026 190.799 92.0319C190.809 92.0611 190.813 92.092 190.81 92.1227V99.0261C190.812 99.0566 190.809 99.0872 190.799 99.1162C190.789 99.1452 190.774 99.1719 190.753 99.1946C190.735 99.2145 190.671 99.2558 190.473 99.2558H190.339V99.7151H193.218V99.2558H193.082C192.883 99.2558 192.818 99.2145 192.802 99.1991C192.76 99.1514 192.739 99.0893 192.742 99.0261V96.2412H196.172L198.466 99.2374C198.377 99.254 198.285 99.2601 198.194 99.2558H198.059V99.7151H201.176V99.2558L201.042 99.2543ZM192.737 94.9337V92.7443H196.831C197.204 92.739 197.577 92.7605 197.948 92.8086C198.175 92.8379 198.396 92.9041 198.602 93.0046C198.734 93.0722 198.841 93.1793 198.908 93.3108C198.969 93.4562 198.997 93.6128 198.993 93.7701C198.999 93.9372 198.961 94.103 198.885 94.2515C198.808 94.4001 198.695 94.5264 198.555 94.6183C198.058 94.8773 197.497 94.9894 196.938 94.9413L192.737 94.9337Z" fill="#D1986D"/>
</svg>
