<svg width="1024" height="1024" viewBox="0 0 1024 1024" fill="none" xmlns="http://www.w3.org/2000/svg">
<path d="M316.68 639.418H151.164L212.992 864.014C217.457 880.68 227.306 895.402 241.006 905.888C254.707 916.375 271.49 922.038 288.743 921.995C301.15 922.124 313.414 919.34 324.55 913.868C335.686 908.395 345.383 900.387 352.861 890.486C360.413 881.044 365.51 869.88 367.7 857.989C369.889 846.098 369.103 833.851 365.41 822.338L316.68 639.418Z" stroke="#D8AA81" stroke-width="45" stroke-miterlimit="10"/>
<path d="M862.737 349.404H854.859V576.474H862.737C911.833 576.474 951.587 525.637 951.587 462.985C951.587 400.332 912.108 349.404 862.737 349.404Z" stroke="#D8AA81" stroke-width="45" stroke-miterlimit="10"/>
<path d="M73 377.181V556.345C73.6671 578.66 83.0028 599.837 99.0267 615.382C115.051 630.927 136.501 639.617 158.827 639.607H388.461V298.957H158.827C113.394 298.957 73 331.749 73 377.181Z" stroke="#D8AA81" stroke-width="45" stroke-miterlimit="10"/>
<path d="M388.305 644.622L855.176 831.389V102L388.305 288.767V644.622Z" stroke="#D8AA81" stroke-width="45" stroke-miterlimit="10"/>
</svg>
