<svg width="1024" height="1024" viewBox="0 0 1024 1024" fill="none" xmlns="http://www.w3.org/2000/svg">
<path d="M755.7 290.497V127.249C755.7 111.934 749.621 97.2455 738.801 86.4152C727.98 75.5848 713.304 69.5 698 69.5H109.2C93.8963 69.5 79.2198 75.5848 68.3992 86.4152C57.5785 97.2455 51.5 111.934 51.5 127.249V716.576V716.602L51.5005 716.627C51.5811 720.555 52.7419 724.385 54.8555 727.697C56.9594 730.993 59.9264 733.648 63.4334 735.373C66.1917 736.866 69.297 737.597 72.431 737.493C77.2088 737.534 81.8433 735.86 85.4939 732.775C85.5015 732.768 85.509 732.762 85.5166 732.756L261.884 590.161H272.3V753.409C272.3 768.724 278.379 783.413 289.199 794.243C300.02 805.073 314.696 811.158 330 811.158H766.116L942.483 953.753C942.491 953.76 942.499 953.766 942.507 953.773C946.157 956.858 950.791 958.531 955.569 958.49C958.704 958.595 961.809 957.863 964.568 956.37C968.074 954.644 971.041 951.99 973.144 948.694C975.258 945.383 976.419 941.553 976.499 937.625L976.5 937.599V937.573V348.247C976.5 332.931 970.421 318.243 959.601 307.413C948.78 296.582 934.104 290.497 918.8 290.497H755.7ZM254.575 548.328C249.782 548.275 245.13 549.95 241.467 553.044C241.459 553.051 241.451 553.058 241.443 553.064L93.3 672.67V127.249C93.3 123.027 94.9757 118.979 97.9578 115.994C100.94 113.009 104.984 111.333 109.2 111.333H698C702.216 111.333 706.26 113.009 709.242 115.994C712.224 118.979 713.9 123.027 713.9 127.249V532.411C713.9 536.633 712.224 540.682 709.242 543.667C706.26 546.651 702.216 548.328 698 548.328H254.575ZM786.556 774.062C786.548 774.055 786.54 774.048 786.532 774.041C782.871 770.948 778.22 769.273 773.427 769.325H330C325.784 769.325 321.74 767.649 318.758 764.664C315.776 761.679 314.1 757.631 314.1 753.409V590.161H698C713.304 590.161 727.98 584.076 738.801 573.245C749.621 562.415 755.7 547.727 755.7 532.411V332.33H918.8C923.016 332.33 927.06 334.007 930.042 336.991C933.024 339.976 934.7 344.025 934.7 348.247V893.667L786.556 774.062Z" fill="#D8AA81" stroke="#D8AA81" stroke-width="5"/>
</svg>
