<svg width="1024" height="1024" viewBox="0 0 1024 1024" fill="none" xmlns="http://www.w3.org/2000/svg">
<path d="M939.691 463.318V241.455C934.688 212.489 919.538 186.247 896.954 167.429C874.37 148.61 845.826 138.444 816.43 138.747L207.583 140.574C207.583 140.574 85 142.842 85 249.618V812.527C85 812.527 89.0974 919.361 175.398 919.361H471.259" stroke="white" stroke-width="40" stroke-miterlimit="10"/>
<path d="M276.076 76.0898H276.047C265.288 76.0898 256.566 84.8107 256.566 95.5685V194.21C256.566 204.968 265.288 213.689 276.047 213.689H276.076C286.835 213.689 295.556 204.968 295.556 194.21V95.5685C295.556 84.8107 286.835 76.0898 276.076 76.0898Z" fill="white" stroke="white" stroke-width="2"/>
<path d="M510.314 76.0898H510.285C499.526 76.0898 490.805 84.8107 490.805 95.5685V194.21C490.805 204.968 499.526 213.689 510.285 213.689H510.314C521.073 213.689 529.795 204.968 529.795 194.21V95.5685C529.795 84.8107 521.073 76.0898 510.314 76.0898Z" fill="white" stroke="white" stroke-width="2"/>
<path d="M748.643 72H748.614C737.855 72 729.133 80.7208 729.133 91.4787V190.12C729.133 200.878 737.855 209.599 748.614 209.599H748.643C759.402 209.599 768.124 200.878 768.124 190.12V91.4787C768.124 80.7208 759.402 72 748.643 72Z" fill="white" stroke="white" stroke-width="2"/>
<path d="M274.023 446.907C292.173 446.907 306.887 432.195 306.887 414.046C306.887 395.898 292.173 381.186 274.023 381.186C255.874 381.186 241.16 395.898 241.16 414.046C241.16 432.195 255.874 446.907 274.023 446.907Z" fill="white"/>
<path d="M274.023 602.995C292.173 602.995 306.887 588.283 306.887 570.134C306.887 551.986 292.173 537.273 274.023 537.273C255.874 537.273 241.16 551.986 241.16 570.134C241.16 588.283 255.874 602.995 274.023 602.995Z" fill="white"/>
<path d="M274.023 759.163C292.173 759.163 306.887 744.451 306.887 726.302C306.887 708.154 292.173 693.441 274.023 693.441C255.874 693.441 241.16 708.154 241.16 726.302C241.16 744.451 255.874 759.163 274.023 759.163Z" fill="white"/>
<path d="M430.149 759.163C448.299 759.163 463.013 744.451 463.013 726.302C463.013 708.154 448.299 693.441 430.149 693.441C411.999 693.441 397.285 708.154 397.285 726.302C397.285 744.451 411.999 759.163 430.149 759.163Z" fill="white"/>
<path d="M430.149 602.995C448.299 602.995 463.013 588.283 463.013 570.134C463.013 551.986 448.299 537.273 430.149 537.273C411.999 537.273 397.285 551.986 397.285 570.134C397.285 588.283 411.999 602.995 430.149 602.995Z" fill="white"/>
<path d="M434.274 446.907C452.424 446.907 467.137 432.195 467.137 414.046C467.137 395.898 452.424 381.186 434.274 381.186C416.124 381.186 401.41 395.898 401.41 414.046C401.41 432.195 416.124 446.907 434.274 446.907Z" fill="white"/>
<path d="M590.383 446.907C608.533 446.907 623.247 432.195 623.247 414.046C623.247 395.898 608.533 381.186 590.383 381.186C572.233 381.186 557.52 395.898 557.52 414.046C557.52 432.195 572.233 446.907 590.383 446.907Z" fill="white"/>
<path d="M742.446 446.907C760.596 446.907 775.309 432.195 775.309 414.046C775.309 395.898 760.596 381.186 742.446 381.186C724.296 381.186 709.582 395.898 709.582 414.046C709.582 432.195 724.296 446.907 742.446 446.907Z" fill="white"/>
<path d="M750.662 935.815C861.857 935.815 951.999 845.681 951.999 734.494C951.999 623.308 861.857 533.174 750.662 533.174C639.466 533.174 549.324 623.308 549.324 734.494C549.324 845.681 639.466 935.815 750.662 935.815Z" stroke="white" stroke-width="40" stroke-miterlimit="10"/>
<path d="M743.32 681.398V759.468H821.396" stroke="white" stroke-width="40" stroke-linecap="round" stroke-linejoin="round"/>
</svg>
