<svg width="1024" height="1024" viewBox="0 0 1024 1024" fill="none" xmlns="http://www.w3.org/2000/svg">
<path d="M497.5 315C497.5 409.662 420.548 486.5 325.5 486.5C230.452 486.5 153.5 409.662 153.5 315C153.5 220.338 230.452 143.5 325.5 143.5C420.548 143.5 497.5 220.338 497.5 315Z" stroke="white" stroke-width="45"/>
<circle cx="708.045" cy="306.442" r="129.225" stroke="white" stroke-width="45"/>
<path d="M586.5 826.5V880.5H72.5V826.5C72.5 684.563 187.563 569.5 329.5 569.5C471.437 569.5 586.5 684.563 586.5 826.5Z" stroke="white" stroke-width="45"/>
<path d="M679.776 769C660.496 651.214 592.559 577.766 561 555.766C689.071 479.95 796.83 515.15 834.701 542.227C936.607 601.798 952.903 718.23 948.313 769H679.776Z" stroke="white" stroke-width="45"/>
</svg>
