<svg width="1024" height="1024" viewBox="0 0 1024 1024" fill="none" xmlns="http://www.w3.org/2000/svg">
<path d="M847.078 564.42C847.086 640.68 824.479 715.229 782.115 778.638C739.751 842.048 679.533 891.47 609.079 920.653C538.624 949.836 461.098 957.47 386.304 942.588C311.511 927.707 242.811 890.979 188.893 837.049C134.975 783.12 98.2617 714.412 83.3962 639.616C68.5307 564.819 76.1807 487.294 105.379 416.846C134.577 346.397 184.012 286.19 247.431 243.84C310.85 201.489 385.403 178.897 461.663 178.922V564.42H847.078Z" stroke="white" stroke-width="45" stroke-miterlimit="10"/>
<path d="M563.758 78V466.501H947.363C947.363 466.501 962.216 134.2 563.758 78Z" stroke="white" stroke-width="45"/>
</svg>
