<svg width="1024" height="1024" viewBox="0 0 1024 1024" fill="none" xmlns="http://www.w3.org/2000/svg">
<path d="M514.242 272.924H512.066C492.974 272.924 474.664 280.506 461.161 294.001C447.659 307.497 440.069 325.801 440.06 344.89L514.242 272.924ZM514.242 272.924C527.722 273.332 540.833 277.518 552.07 285.026C563.912 292.937 573.141 304.182 578.591 317.338C584.041 330.494 585.466 344.97 582.688 358.936C579.91 372.903 573.052 385.732 562.982 395.801C552.911 405.87 540.081 412.727 526.114 415.505C512.146 418.284 497.668 416.858 484.51 411.408C471.353 405.959 460.108 396.731 452.196 384.891C444.284 373.051 440.061 359.131 440.06 344.892L514.242 272.924ZM512.066 454.095C533.666 454.095 554.782 447.69 572.742 435.691C590.702 423.691 604.701 406.636 612.967 386.681C621.233 366.727 623.396 344.769 619.182 323.585C614.968 302.402 604.566 282.943 589.292 267.671C574.018 252.398 554.558 241.998 533.373 237.784C512.187 233.57 490.228 235.733 470.272 243.998C450.315 252.264 433.258 266.261 421.258 284.219C409.257 302.178 402.852 323.291 402.852 344.89C402.852 373.853 414.358 401.63 434.84 422.11C455.322 442.59 483.101 454.095 512.066 454.095Z" fill="#D8AA81" stroke="#D8AA81" stroke-width="7"/>
<path d="M506.508 886.769L509.385 890.926L512.263 886.77L743.906 552.217L743.911 552.211L743.915 552.205C786.274 490.49 806.626 416.315 801.693 341.626C796.759 266.937 766.828 196.083 716.719 140.475L716.658 140.407L716.594 140.343C661.637 85.3946 587.103 54.5254 509.386 54.5254C431.668 54.5254 357.133 85.3946 302.177 140.343L302.113 140.407L302.051 140.475C252.015 196.018 222.104 266.767 217.124 341.356C212.143 415.945 232.383 490.042 274.592 551.744L274.597 551.752L274.603 551.76L506.508 886.769ZM607.306 111.152C638.322 123.998 666.506 142.822 690.252 166.55C734.46 215.77 760.815 278.437 765.069 344.458C769.326 410.51 751.214 476.07 713.653 530.572L509.385 825.565L304.762 530.12C304.76 530.117 304.758 530.114 304.756 530.111C267.346 475.626 249.354 410.141 253.674 344.191C257.994 278.239 284.378 215.656 328.58 166.514L328.802 166.268C352.489 142.673 380.572 123.947 411.465 111.152C442.509 98.2932 475.783 91.6753 509.386 91.6753C542.988 91.6753 576.262 98.2932 607.306 111.152Z" fill="#D8AA81" stroke="#D8AA81" stroke-width="7"/>
<path d="M695.425 703.952L695.424 703.952C690.527 703.376 685.601 704.768 681.731 707.824C677.86 710.879 675.362 715.347 674.786 720.244C674.21 725.141 675.602 730.067 678.658 733.938C681.714 737.808 686.182 740.305 691.079 740.881C770.223 750.19 830.698 767.382 871.283 785.78C891.59 794.985 906.793 804.436 916.857 813.255C927.086 822.219 931.356 829.95 931.356 835.665C931.356 839.608 929.417 844.185 924.826 849.314C920.25 854.426 913.281 859.804 903.875 865.26C885.075 876.165 857.111 887.053 820.788 896.716C748.188 916.03 642.795 930.294 512.032 930.294C381.27 930.294 275.877 916.022 203.277 896.704C166.954 887.038 138.989 876.149 120.189 865.246C110.783 859.791 103.815 854.414 99.2385 849.304C94.6472 844.177 92.7083 839.603 92.7083 835.665C92.7083 829.95 96.9783 822.221 107.207 813.26C117.271 804.443 132.474 794.995 152.781 785.792C193.367 767.399 253.841 750.206 332.985 740.881C337.883 740.305 342.351 737.808 345.407 733.938C348.462 730.067 349.855 725.141 349.279 720.244C348.703 715.347 346.205 710.879 342.334 707.824C338.464 704.768 333.538 703.376 328.64 703.952L329.049 707.428L328.64 703.952C248.912 713.335 180.998 731.269 132.906 754.106C108.867 765.521 89.6197 778.236 76.3332 791.858C63.0434 805.483 55.5 820.256 55.5 835.665C55.5 853.14 66.159 870.038 85.8074 885.381C105.495 900.755 134.671 914.961 172.923 927.085C249.461 951.343 363.099 967.5 512 967.5C660.9 967.5 774.538 951.343 851.076 927.085C889.328 914.961 918.505 900.755 938.192 885.381C957.839 870.039 968.498 853.143 968.5 835.669C968.517 820.259 960.986 805.487 947.705 791.863C934.427 778.244 915.185 765.531 891.151 754.118C843.067 731.286 775.153 713.352 695.425 703.952Z" fill="#D8AA81" stroke="#D8AA81" stroke-width="7"/>
</svg>
