<svg width="1024" height="1024" viewBox="0 0 1024 1024" fill="none" xmlns="http://www.w3.org/2000/svg">
<mask id="path-1-outside-1_3597_12377" maskUnits="userSpaceOnUse" x="107" y="46" width="810" height="932" fill="black">
<rect fill="white" x="107" y="46" width="810" height="932"/>
<path d="M882.702 208.891L600.531 56.2206C586.991 49.4908 571.398 48.1664 556.917 52.5163C542.436 56.8662 530.154 66.5643 522.565 79.6409L357.505 386.346H156.743C150.717 386.276 144.738 387.412 139.157 389.685C133.576 391.959 128.506 395.326 124.245 399.586C119.983 403.847 116.617 408.917 114.343 414.498C112.069 420.078 110.933 426.057 111.003 432.082V928.261C110.933 934.286 112.069 940.265 114.343 945.845C116.617 951.426 119.983 956.495 124.245 960.756C128.506 965.017 133.576 968.384 139.157 970.657C144.738 972.931 150.717 974.067 156.743 973.997H797.947C803.973 974.067 809.952 972.931 815.533 970.657C821.114 968.384 826.184 965.017 830.445 960.756C834.707 956.495 838.073 951.426 840.347 945.845C842.621 940.265 843.757 934.286 843.687 928.261V812.264H862.561C864.912 812.294 867.245 811.854 869.422 810.969C871.6 810.083 873.578 808.771 875.24 807.109C876.903 805.447 878.215 803.468 879.101 801.291C879.986 799.114 880.426 796.781 880.396 794.431V661.705C880.426 659.354 879.986 657.022 879.101 654.844C878.215 652.667 876.903 650.689 875.24 649.027C873.578 647.365 871.6 646.052 869.422 645.167C867.245 644.281 864.912 643.841 862.561 643.872H843.59V513.387C843.439 503.039 839.844 493.036 833.373 484.959C826.901 476.882 817.922 471.192 807.855 468.788L905.995 286.883C913.007 273.405 914.497 257.726 910.149 243.169C905.802 228.611 895.958 216.317 882.702 208.891V208.891ZM681.94 140.871L505.705 467.651H455.515L643.932 120.797L681.94 140.871ZM554.791 96.2722C557.541 91.3293 562.094 87.6401 567.5 85.9754C572.906 84.3108 578.747 84.7994 583.801 87.3394L611.674 102.964L415.362 467.651H354.029L554.791 96.2722ZM145.47 430.848C145.88 428.44 147.098 426.244 148.922 424.62C150.747 422.997 153.069 422.043 155.508 421.915H337.429L312.902 466.514H155.476C152.092 466.329 148.701 466.702 145.438 467.619L145.47 430.848ZM806.881 928.261C806.885 929.58 806.628 930.887 806.125 932.107C805.622 933.327 804.883 934.435 803.95 935.368C803.017 936.301 801.909 937.04 800.689 937.543C799.469 938.046 798.162 938.302 796.843 938.298H155.476C154.157 938.302 152.849 938.046 151.63 937.543C150.41 937.04 149.301 936.301 148.368 935.368C147.435 934.435 146.696 933.327 146.193 932.107C145.69 930.887 145.434 929.58 145.438 928.261V513.387C145.434 512.068 145.69 510.761 146.193 509.541C146.696 508.321 147.435 507.213 148.368 506.28C149.301 505.347 150.41 504.608 151.63 504.105C152.849 503.602 154.157 503.346 155.476 503.35H795.706C797.025 503.346 798.332 503.602 799.552 504.105C800.772 504.608 801.88 505.347 802.813 506.28C803.746 507.213 804.485 508.321 804.988 509.541C805.491 510.761 805.748 512.068 805.744 513.387V643.872H737.718C723.52 643.872 709.902 649.512 699.862 659.551C689.822 669.59 684.182 683.206 684.182 697.404V758.732C684.182 772.929 689.822 786.545 699.862 796.585C709.902 806.624 723.52 812.264 737.718 812.264H806.881V928.261ZM842.615 679.57H843.72V776.597H737.718C735.368 776.628 733.035 776.188 730.857 775.302C728.68 774.417 726.702 773.104 725.039 771.442C723.377 769.78 722.065 767.802 721.179 765.625C720.294 763.447 719.853 761.115 719.884 758.764V697.404C719.853 695.053 720.294 692.721 721.179 690.543C722.065 688.366 723.377 686.388 725.039 684.726C726.702 683.064 728.68 681.751 730.857 680.866C733.035 679.98 735.368 679.54 737.718 679.57H842.615ZM873.834 269.147L766.631 467.651H545.728L713.029 158.737L864.868 241.374C867.385 242.487 869.638 244.12 871.479 246.166C873.32 248.212 874.706 250.625 875.547 253.246C876.388 255.867 876.665 258.636 876.358 261.371C876.051 264.106 875.169 266.745 873.769 269.115L873.834 269.147Z"/>
</mask>
<path d="M882.702 208.891L600.531 56.2206C586.991 49.4908 571.398 48.1664 556.917 52.5163C542.436 56.8662 530.154 66.5643 522.565 79.6409L357.505 386.346H156.743C150.717 386.276 144.738 387.412 139.157 389.685C133.576 391.959 128.506 395.326 124.245 399.586C119.983 403.847 116.617 408.917 114.343 414.498C112.069 420.078 110.933 426.057 111.003 432.082V928.261C110.933 934.286 112.069 940.265 114.343 945.845C116.617 951.426 119.983 956.495 124.245 960.756C128.506 965.017 133.576 968.384 139.157 970.657C144.738 972.931 150.717 974.067 156.743 973.997H797.947C803.973 974.067 809.952 972.931 815.533 970.657C821.114 968.384 826.184 965.017 830.445 960.756C834.707 956.495 838.073 951.426 840.347 945.845C842.621 940.265 843.757 934.286 843.687 928.261V812.264H862.561C864.912 812.294 867.245 811.854 869.422 810.969C871.6 810.083 873.578 808.771 875.24 807.109C876.903 805.447 878.215 803.468 879.101 801.291C879.986 799.114 880.426 796.781 880.396 794.431V661.705C880.426 659.354 879.986 657.022 879.101 654.844C878.215 652.667 876.903 650.689 875.24 649.027C873.578 647.365 871.6 646.052 869.422 645.167C867.245 644.281 864.912 643.841 862.561 643.872H843.59V513.387C843.439 503.039 839.844 493.036 833.373 484.959C826.901 476.882 817.922 471.192 807.855 468.788L905.995 286.883C913.007 273.405 914.497 257.726 910.149 243.169C905.802 228.611 895.958 216.317 882.702 208.891V208.891ZM681.94 140.871L505.705 467.651H455.515L643.932 120.797L681.94 140.871ZM554.791 96.2722C557.541 91.3293 562.094 87.6401 567.5 85.9754C572.906 84.3108 578.747 84.7994 583.801 87.3394L611.674 102.964L415.362 467.651H354.029L554.791 96.2722ZM145.47 430.848C145.88 428.44 147.098 426.244 148.922 424.62C150.747 422.997 153.069 422.043 155.508 421.915H337.429L312.902 466.514H155.476C152.092 466.329 148.701 466.702 145.438 467.619L145.47 430.848ZM806.881 928.261C806.885 929.58 806.628 930.887 806.125 932.107C805.622 933.327 804.883 934.435 803.95 935.368C803.017 936.301 801.909 937.04 800.689 937.543C799.469 938.046 798.162 938.302 796.843 938.298H155.476C154.157 938.302 152.849 938.046 151.63 937.543C150.41 937.04 149.301 936.301 148.368 935.368C147.435 934.435 146.696 933.327 146.193 932.107C145.69 930.887 145.434 929.58 145.438 928.261V513.387C145.434 512.068 145.69 510.761 146.193 509.541C146.696 508.321 147.435 507.213 148.368 506.28C149.301 505.347 150.41 504.608 151.63 504.105C152.849 503.602 154.157 503.346 155.476 503.35H795.706C797.025 503.346 798.332 503.602 799.552 504.105C800.772 504.608 801.88 505.347 802.813 506.28C803.746 507.213 804.485 508.321 804.988 509.541C805.491 510.761 805.748 512.068 805.744 513.387V643.872H737.718C723.52 643.872 709.902 649.512 699.862 659.551C689.822 669.59 684.182 683.206 684.182 697.404V758.732C684.182 772.929 689.822 786.545 699.862 796.585C709.902 806.624 723.52 812.264 737.718 812.264H806.881V928.261ZM842.615 679.57H843.72V776.597H737.718C735.368 776.628 733.035 776.188 730.857 775.302C728.68 774.417 726.702 773.104 725.039 771.442C723.377 769.78 722.065 767.802 721.179 765.625C720.294 763.447 719.853 761.115 719.884 758.764V697.404C719.853 695.053 720.294 692.721 721.179 690.543C722.065 688.366 723.377 686.388 725.039 684.726C726.702 683.064 728.68 681.751 730.857 680.866C733.035 679.98 735.368 679.54 737.718 679.57H842.615ZM873.834 269.147L766.631 467.651H545.728L713.029 158.737L864.868 241.374C867.385 242.487 869.638 244.12 871.479 246.166C873.32 248.212 874.706 250.625 875.547 253.246C876.388 255.867 876.665 258.636 876.358 261.371C876.051 264.106 875.169 266.745 873.769 269.115L873.834 269.147Z" fill="white"/>
<path d="M882.702 208.891L600.531 56.2206C586.991 49.4908 571.398 48.1664 556.917 52.5163C542.436 56.8662 530.154 66.5643 522.565 79.6409L357.505 386.346H156.743C150.717 386.276 144.738 387.412 139.157 389.685C133.576 391.959 128.506 395.326 124.245 399.586C119.983 403.847 116.617 408.917 114.343 414.498C112.069 420.078 110.933 426.057 111.003 432.082V928.261C110.933 934.286 112.069 940.265 114.343 945.845C116.617 951.426 119.983 956.495 124.245 960.756C128.506 965.017 133.576 968.384 139.157 970.657C144.738 972.931 150.717 974.067 156.743 973.997H797.947C803.973 974.067 809.952 972.931 815.533 970.657C821.114 968.384 826.184 965.017 830.445 960.756C834.707 956.495 838.073 951.426 840.347 945.845C842.621 940.265 843.757 934.286 843.687 928.261V812.264H862.561C864.912 812.294 867.245 811.854 869.422 810.969C871.6 810.083 873.578 808.771 875.24 807.109C876.903 805.447 878.215 803.468 879.101 801.291C879.986 799.114 880.426 796.781 880.396 794.431V661.705C880.426 659.354 879.986 657.022 879.101 654.844C878.215 652.667 876.903 650.689 875.24 649.027C873.578 647.365 871.6 646.052 869.422 645.167C867.245 644.281 864.912 643.841 862.561 643.872H843.59V513.387C843.439 503.039 839.844 493.036 833.373 484.959C826.901 476.882 817.922 471.192 807.855 468.788L905.995 286.883C913.007 273.405 914.497 257.726 910.149 243.169C905.802 228.611 895.958 216.317 882.702 208.891V208.891ZM681.94 140.871L505.705 467.651H455.515L643.932 120.797L681.94 140.871ZM554.791 96.2722C557.541 91.3293 562.094 87.6401 567.5 85.9754C572.906 84.3108 578.747 84.7994 583.801 87.3394L611.674 102.964L415.362 467.651H354.029L554.791 96.2722ZM145.47 430.848C145.88 428.44 147.098 426.244 148.922 424.62C150.747 422.997 153.069 422.043 155.508 421.915H337.429L312.902 466.514H155.476C152.092 466.329 148.701 466.702 145.438 467.619L145.47 430.848ZM806.881 928.261C806.885 929.58 806.628 930.887 806.125 932.107C805.622 933.327 804.883 934.435 803.95 935.368C803.017 936.301 801.909 937.04 800.689 937.543C799.469 938.046 798.162 938.302 796.843 938.298H155.476C154.157 938.302 152.849 938.046 151.63 937.543C150.41 937.04 149.301 936.301 148.368 935.368C147.435 934.435 146.696 933.327 146.193 932.107C145.69 930.887 145.434 929.58 145.438 928.261V513.387C145.434 512.068 145.69 510.761 146.193 509.541C146.696 508.321 147.435 507.213 148.368 506.28C149.301 505.347 150.41 504.608 151.63 504.105C152.849 503.602 154.157 503.346 155.476 503.35H795.706C797.025 503.346 798.332 503.602 799.552 504.105C800.772 504.608 801.88 505.347 802.813 506.28C803.746 507.213 804.485 508.321 804.988 509.541C805.491 510.761 805.748 512.068 805.744 513.387V643.872H737.718C723.52 643.872 709.902 649.512 699.862 659.551C689.822 669.59 684.182 683.206 684.182 697.404V758.732C684.182 772.929 689.822 786.545 699.862 796.585C709.902 806.624 723.52 812.264 737.718 812.264H806.881V928.261ZM842.615 679.57H843.72V776.597H737.718C735.368 776.628 733.035 776.188 730.857 775.302C728.68 774.417 726.702 773.104 725.039 771.442C723.377 769.78 722.065 767.802 721.179 765.625C720.294 763.447 719.853 761.115 719.884 758.764V697.404C719.853 695.053 720.294 692.721 721.179 690.543C722.065 688.366 723.377 686.388 725.039 684.726C726.702 683.064 728.68 681.751 730.857 680.866C733.035 679.98 735.368 679.54 737.718 679.57H842.615ZM873.834 269.147L766.631 467.651H545.728L713.029 158.737L864.868 241.374C867.385 242.487 869.638 244.12 871.479 246.166C873.32 248.212 874.706 250.625 875.547 253.246C876.388 255.867 876.665 258.636 876.358 261.371C876.051 264.106 875.169 266.745 873.769 269.115L873.834 269.147Z" stroke="white" stroke-width="8" mask="url(#path-1-outside-1_3597_12377)"/>
<path d="M806.91 250.716L805.907 252.446L806.799 250.656L797.88 246.213C786.277 240.201 772.802 238.898 760.262 242.576C747.716 246.256 737.076 254.636 730.56 265.969L730.541 266.002L730.524 266.035L719.385 287.207C716.258 293.04 714.346 299.446 713.764 306.038C713.183 312.622 713.94 319.255 715.991 325.538C717.813 331.816 720.927 337.644 725.133 342.649C729.345 347.661 734.559 351.736 740.44 354.612C740.442 354.613 740.444 354.614 740.446 354.615L749.357 359.054C756.54 362.735 764.472 364.72 772.543 364.856L772.577 364.856L772.612 364.856C781.498 364.698 790.197 362.273 797.883 357.81C805.569 353.346 811.987 346.993 816.528 339.353L816.554 339.308L816.578 339.262L827.721 318.084L827.74 318.048L827.757 318.013C833.372 306.228 834.344 292.762 830.482 280.292C826.619 267.823 818.204 257.264 806.91 250.716ZM791.6 299.76L791.428 300.276L780.749 320.575C779.323 322.849 777.086 324.498 774.49 325.189C771.892 325.88 769.129 325.558 766.76 324.29L757.92 318.762C755.799 317.291 754.118 315.272 753.056 312.919L753.049 312.903L753.041 312.887C752.522 311.789 752.326 310.566 752.475 309.361C752.624 308.155 753.112 307.017 753.883 306.078L754.013 305.921L754.108 305.74L765.207 284.644C766.26 283.042 767.661 281.696 769.306 280.708C770.976 279.706 772.853 279.098 774.794 278.931L774.794 278.931L774.806 278.93C776.353 278.788 777.907 279.095 779.284 279.815L779.301 279.824L779.319 279.833L787.964 284.139C789.914 286.117 791.293 288.587 791.95 291.289C792.631 294.09 792.509 297.025 791.6 299.76Z" fill="white" stroke="white" stroke-width="4"/>
</svg>
