<svg width="1024" height="1024" viewBox="0 0 1024 1024" fill="none" xmlns="http://www.w3.org/2000/svg">
<path d="M931.903 237.37L931.895 237.361L931.886 237.352C928.629 234.16 924.251 232.373 919.691 232.373C915.131 232.373 910.753 234.16 907.496 237.352L907.488 237.36L907.479 237.369L802.196 342.524L802.195 342.525C788.717 356 770.439 363.57 751.38 363.57C732.324 363.57 714.049 356.002 700.572 342.532C700.57 342.529 700.568 342.527 700.566 342.525L679.682 321.494L679.676 321.488C666.201 308.012 658.63 289.735 658.63 270.678C658.63 251.621 666.201 233.345 679.676 219.868L677.908 218.101L679.677 219.867L784.693 114.712L784.7 114.704C786.127 113.264 787.285 111.581 788.12 109.735C788.232 109.597 788.417 109.348 788.564 109.006L788.609 108.901L788.644 108.792C789.062 107.501 789.326 106.166 789.43 104.813C789.603 104.124 789.733 103.426 789.821 102.722L789.861 102.399L789.818 102.077C789.74 101.502 789.629 100.932 789.484 100.369C789.128 96.518 787.471 92.8997 784.783 90.1126L784.767 90.0964L784.751 90.0805L780.275 85.6045L780.269 85.5993C763.861 69.2884 742.604 58.7383 719.691 55.5321C696.786 52.3272 673.46 56.6328 653.21 67.8029C653.202 67.8075 653.193 67.8122 653.185 67.8169L529.885 132.264C529.882 132.266 529.879 132.267 529.876 132.269C529.052 132.692 528.262 133.179 527.516 133.727L527.507 133.734L527.499 133.74C455.2 187.778 448.104 284.403 472.606 358.502L461.315 384.722L461.312 384.727C448.8 413.957 430.808 440.521 408.307 462.987L408.306 462.988L87.0832 784.154L87.0754 784.162L87.0677 784.17C67.3632 804.223 56.3773 831.246 56.501 859.358C56.6248 887.47 67.8481 914.396 87.7283 934.274C107.608 954.153 134.536 965.375 162.651 965.499C190.765 965.623 217.791 954.638 237.845 934.935L237.853 934.927L237.861 934.919L558.964 613.813L558.965 613.813C581.451 591.308 608.038 573.317 637.291 560.812L637.292 560.811L663.273 549.698C688.632 558.178 715.18 562.572 741.923 562.714C769.992 563.846 797.931 558.309 823.447 546.556C848.977 534.797 871.353 517.152 888.739 495.068L888.757 495.045L888.775 495.022C889.336 494.274 889.836 493.483 890.271 492.657L890.276 492.647L954.331 369.589C965.608 349.328 969.993 325.95 966.825 302.978C963.656 279.995 953.098 258.667 936.744 242.209L934.97 243.972L936.738 242.204L931.903 237.37ZM572.864 495.178C586.826 509.015 602.568 520.919 619.67 530.579C587.909 544.74 559.009 564.621 534.418 589.242L213.322 910.342C213.316 910.347 213.31 910.353 213.305 910.358C199.746 923.381 181.624 930.573 162.824 930.391C144.016 930.209 126.029 922.661 112.723 909.368C99.4177 896.075 91.8543 878.096 91.6562 859.29C91.4582 840.493 98.6342 822.367 111.645 808.799C111.651 808.793 111.657 808.786 111.664 808.78L432.879 487.622C457.542 463.001 477.449 434.056 491.615 402.242C501.316 419.612 513.331 435.593 527.338 449.745L527.343 449.75L527.349 449.756L572.858 495.172L572.864 495.178ZM710.479 89.7275C723.705 90.8151 736.355 95.5293 747.049 103.325L654.953 195.355L654.953 195.355C634.959 215.349 623.727 242.464 623.727 270.738C623.727 299.012 634.959 326.127 654.953 346.12L675.842 367.008C695.837 387 722.955 398.231 751.231 398.231C779.507 398.231 806.625 387 826.62 367.008L918.794 274.842C926.786 285.609 931.628 298.409 932.748 311.807C933.945 326.135 930.831 340.493 923.806 353.038L921.722 356.76H921.895L860.127 475.256C815.305 533.751 729.707 537.17 668.258 514.835L668.248 514.832L668.238 514.828C641.642 505.412 617.422 490.303 597.27 470.557C597.268 470.554 597.266 470.552 597.264 470.55L551.852 425.231C551.848 425.227 551.844 425.224 551.84 425.22C531.95 404.872 516.785 380.395 507.422 353.526L507.418 353.512L507.412 353.498C485.284 292.384 488.82 207.119 547.203 162.507L669.636 98.51L669.662 98.4966L669.688 98.4825C682.125 91.6086 696.316 88.5627 710.479 89.7275Z" fill="white" stroke="white" stroke-width="5"/>
<path d="M164.975 812.522C156.115 812.492 147.446 815.092 140.065 819.993C132.684 824.893 126.924 831.873 123.513 840.05C120.102 848.226 119.194 857.229 120.905 865.922C122.615 874.614 126.866 882.603 133.121 888.878C139.375 895.153 147.351 899.431 156.038 901.17C164.725 902.909 173.733 902.032 181.922 898.648C190.11 895.265 197.11 889.528 202.035 882.164C206.96 874.8 209.589 866.141 209.589 857.282C209.589 845.436 204.894 834.074 196.531 825.684C188.169 817.294 176.821 812.561 164.975 812.522ZM175.48 867.637C173.405 869.753 170.747 871.204 167.844 871.804C164.942 872.404 161.927 872.125 159.183 871.005C156.439 869.885 154.091 867.972 152.438 865.512C150.785 863.052 149.903 860.156 149.903 857.192C149.903 854.229 150.785 851.332 152.438 848.872C154.091 846.412 156.439 844.5 159.183 843.38C161.927 842.259 164.942 841.981 167.844 842.581C170.747 843.181 173.405 844.632 175.48 846.748C178.202 849.549 179.717 853.305 179.7 857.211C179.684 861.116 178.136 864.859 175.39 867.637H175.48Z" fill="white"/>
</svg>
