<svg width="1024" height="1024" viewBox="0 0 1024 1024" fill="none" xmlns="http://www.w3.org/2000/svg">
<path d="M521.539 79.6387H502.461C479.461 79.6387 457.404 88.7752 441.141 105.038C424.878 121.301 415.741 143.359 415.741 166.358V174.163C415.726 189.37 411.711 204.306 404.101 217.472C396.49 230.638 385.552 241.572 372.382 249.175L353.737 260.015C340.554 267.626 325.6 271.633 310.377 271.633C295.155 271.633 280.2 267.626 267.017 260.015L260.513 256.546C240.614 245.068 216.973 241.953 194.78 247.888C172.587 253.822 153.656 268.32 142.141 288.199L132.602 304.676C121.123 324.575 118.009 348.216 123.944 370.409C129.878 392.602 144.376 411.534 164.255 423.048L170.759 427.384C183.865 434.951 194.764 445.816 202.37 458.899C209.977 471.983 214.027 486.829 214.119 501.963V524.076C214.179 539.357 210.201 554.383 202.587 567.631C194.972 580.88 183.993 591.882 170.759 599.522L164.255 603.424C144.376 614.939 129.878 633.87 123.944 656.063C118.009 678.256 121.123 701.897 132.602 721.797L142.141 738.273C153.656 758.152 172.587 772.65 194.78 778.584C216.973 784.519 240.614 781.405 260.513 769.926L267.017 766.457C280.2 758.846 295.155 754.839 310.377 754.839C325.6 754.839 340.554 758.846 353.737 766.457L372.382 777.297C385.552 784.901 396.49 795.834 404.101 809C411.711 822.166 415.726 837.102 415.741 852.309V860.114C415.741 883.114 424.878 905.171 441.141 921.434C457.404 937.697 479.461 946.834 502.461 946.834H521.539C544.539 946.834 566.596 937.697 582.859 921.434C599.122 905.171 608.259 883.114 608.259 860.114V852.309C608.274 837.102 612.289 822.166 619.899 809C627.51 795.834 638.448 784.901 651.618 777.297L670.263 766.457C683.446 758.846 698.4 754.839 713.623 754.839C728.845 754.839 743.8 758.846 756.983 766.457L763.487 769.926C783.386 781.405 807.027 784.519 829.22 778.584C851.413 772.65 870.344 758.152 881.859 738.273L891.398 721.363C902.877 701.464 905.991 677.823 900.056 655.63C894.122 633.437 879.624 614.505 859.745 602.991L853.241 599.522C840.007 591.882 829.028 580.88 821.413 567.631C813.799 554.383 809.821 539.357 809.882 524.076V502.396C809.821 487.115 813.799 472.09 821.413 458.841C829.028 445.592 840.007 434.591 853.241 426.95L859.745 423.048C879.624 411.534 894.122 392.602 900.056 370.409C905.991 348.216 902.877 324.575 891.398 304.676L881.859 288.199C870.344 268.32 851.413 253.822 829.22 247.888C807.027 241.953 783.386 245.068 763.487 256.546L756.983 260.015C743.8 267.626 728.845 271.633 713.623 271.633C698.4 271.633 683.446 267.626 670.263 260.015L651.618 249.175C638.448 241.572 627.51 230.638 619.899 217.472C612.289 204.306 608.274 189.37 608.259 174.163V166.358C608.259 143.359 599.122 121.301 582.859 105.038C566.596 88.7752 544.539 79.6387 521.539 79.6387V79.6387Z" stroke="white" stroke-width="45" stroke-linecap="round" stroke-linejoin="round"/>
<path d="M511.997 643.317C583.838 643.317 642.076 585.078 642.076 513.237C642.076 441.397 583.838 383.158 511.997 383.158C440.156 383.158 381.918 441.397 381.918 513.237C381.918 585.078 440.156 643.317 511.997 643.317Z" stroke="white" stroke-width="45" stroke-linecap="round" stroke-linejoin="round"/>
</svg>
